ply
format ascii 1.0
element vertex 1890
property float x
property float y
property float z
property uchar red
property uchar green
property uchar blue
end_header
-10.188 -19.094 77.325 166 169 178
-9.519 -16.841 76.980 196 200 203
-9.287 -16.374 76.877 178 181 180
-1.465 9.450 72.566 212 215 214
-6.178 -6.010 75.272 162 166 167
-9.605 -17.613 77.019 203 207 206
4.277 27.926 69.290 216 221 220
2.408 21.865 70.407 197 201 200
-0.335 12.923 71.995 191 195 194
-5.140 -2.815 74.697 187 192 192
-0.898 11.188 72.428 234 238 240
2.521 22.506 70.635 214 220 223
-1.162 10.431 72.694 216 222 228
-11.163 -22.489 78.142 164 168 178
0.457 15.954 72.021 197 200 211
-9.162 -15.816 77.145 191 194 205
-8.874 -15.356 76.639 213 220 219
-0.699 11.367 72.127 194 204 201
-0.674 11.506 72.175 186 194 193
2.378 21.610 70.632 181 185 188
2.637 22.528 70.563 236 240 246
1.121 17.684 71.523 218 222 228
-1.364 9.579 72.916 218 222 224
2.102 21.038 71.140 226 230 229
3.062 24.263 70.707 207 213 211
-9.305 -16.425 77.249 188 195 193
-9.751 -18.488 77.001 209 211 211
3.989 26.014 69.207 228 231 230
2.751 22.139 70.056 193 207 204
-10.823 -21.851 77.726 147 168 163
-9.559 -17.691 77.083 178 199 197
-5.048 -2.980 74.635 192 206 205
0.725 15.873 71.527 224 231 231
4.342 27.727 69.628 209 214 216
4.895 29.605 69.408 228 232 236
1.186 17.624 71.547 191 195 199
-1.071 10.301 72.812 224 228 229
0.362 15.050 72.118 187 192 191
-2.674 5.155 73.773 181 186 185
-10.645 -21.621 77.398 193 200 220
-8.342 -14.107 76.191 194 199 205
-4.344 -1.152 73.997 214 219 218
-5.637 -5.280 74.774 209 216 216
-4.587 -1.849 74.231 215 226 226
-3.508 1.684 73.678 160 174 173
-7.659 -11.702 76.028 163 178 179
-3.346 2.305 73.693 185 198 202
-4.240 -0.547 74.235 200 210 214
-0.286 12.329 72.135 208 214 217
2.154 20.442 71.021 227 231 236
-4.800 -2.099 74.830 203 208 209
-8.955 -15.610 77.055 137 144 142
-11.320 -23.304 78.321 148 158 156
-4.652 -1.480 74.899 136 150 147
-10.018 -18.994 77.706 118 134 131
-5.682 -5.880 74.531 194 199 213
-10.614 -21.608 77.434 177 183 198
-10.816 -22.227 77.578 180 185 200
-0.459 10.963 71.669 217 223 235
-3.493 1.296 73.459 181 186 192
-6.437 -8.103 75.179 185 189 191
-3.776 0.479 73.721 210 215 219
-9.365 -17.440 76.904 203 209 217
-10.995 -22.654 77.845 197 206 213
-10.889 -22.286 77.813 163 176 182
-1.439 8.196 72.637 182 196 204
0.118 13.272 71.843 192 205 215
-0.586 11.058 72.290 196 205 214
-5.106 -3.496 74.796 185 189 195
4.758 28.456 69.540 225 227 233
0.265 14.040 72.085 157 160 165
-2.527 5.040 73.624 166 171 174
-0.067 13.080 72.389 208 213 216
-7.317 -10.353 76.311 145 160 161
-5.232 -4.501 74.447 169 175 187
-10.476 -21.200 77.466 135 140 148
-6.778 -9.357 75.409 150 155 156
-2.914 3.039 73.283 192 198 199
-5.773 -6.068 74.930 196 203 206
-1.754 6.851 72.747 213 219 221
-9.897 -19.213 77.291 192 196 200
-2.287 5.243 73.153 196 202 211
0.697 14.882 71.584 202 210 224
2.613 21.102 70.612 197 201 215
0.078 13.066 72.111 227 227 239
-0.682 10.728 72.641 156 159 163
-7.578 -11.393 76.439 197 207 209
-6.060 -6.433 75.701 157 170 172
-0.429 10.530 71.702 196 203 202
-0.385 10.723 71.737 184 191 192
-1.919 5.900 72.664 161 166 168
-3.928 -0.444 73.847 180 185 186
-0.875 9.325 72.194 213 219 220
-2.419 4.457 73.109 186 192 193
1.856 18.151 70.807 223 228 228
2.897 21.537 70.305 240 242 244
5.278 29.215 69.080 240 242 250
4.209 25.867 69.738 239 242 255
1.429 17.029 71.312 180 184 192
-5.844 -6.188 75.316 209 214 213
-2.164 5.671 73.416 236 241 240
1.370 17.083 71.615 222 226 224
-6.659 -8.692 75.875 215 217 217
-10.029 -19.483 77.696 193 197 201
-3.075 2.987 74.165 178 184 187
-4.127 -0.362 74.755 173 179 184
-10.108 -20.417 77.134 179 188 186
-2.761 2.778 72.923 218 230 227
-5.185 -4.828 74.367 190 202 199
-1.643 6.405 72.390 201 212 210
2.890 20.789 69.872 207 219 218
2.509 19.645 70.159 199 211 211
0.339 12.833 71.447 177 186 185
0.901 14.673 71.196 225 232 231
-0.668 9.751 72.132 213 220 219
-5.297 -4.897 74.746 162 169 168
-0.606 10.056 72.218 191 195 194
1.697 17.439 71.023 193 195 194
-1.371 7.726 72.754 188 195 194
-0.193 11.536 72.177 216 227 227
4.636 26.997 69.654 215 229 227
-2.571 4.053 73.568 147 163 160
-4.146 -0.890 74.506 187 219 212
-1.561 7.432 73.205 201 221 216
-0.044 12.348 72.475 225 229 228
-10.481 -21.079 77.925 176 178 181
-1.817 6.767 73.512 198 202 208
-5.983 -6.569 75.691 150 154 159
-3.776 0.569 74.619 155 159 165
-6.832 -9.225 76.207 163 166 181
-6.061 -6.703 75.864 165 168 190
-7.102 -11.167 75.349 142 154 157
2.912 20.266 69.573 219 235 234
-1.111 7.704 71.966 177 194 190
1.413 15.685 70.574 203 219 215
3.048 20.881 69.706 215 231 227
0.066 11.563 71.470 176 189 186
0.448 12.820 71.317 187 200 197
-2.243 4.394 72.891 178 190 187
-2.377 4.021 73.020 184 195 192
-2.659 3.176 73.231 195 205 203
-7.538 -12.197 75.978 232 241 239
-5.334 -5.190 74.806 182 189 187
-7.350 -11.398 76.107 169 194 191
-6.754 -9.394 75.912 118 167 158
-8.070 -13.455 76.748 189 195 201
-4.716 -2.686 75.086 169 173 179
3.899 24.961 70.798 209 213 219
2.033 19.045 71.808 207 211 217
3.536 23.934 71.131 204 208 214
-1.375 8.221 73.631 128 132 138
-6.828 -10.529 75.147 161 176 184
-8.566 -15.883 76.235 163 178 187
1.519 15.646 70.442 192 209 217
-5.789 -7.144 74.707 172 187 189
-8.228 -14.735 76.143 166 177 175
-0.426 9.729 71.745 185 197 194
1.831 16.858 70.529 191 205 201
2.444 18.838 70.252 202 215 212
-2.464 3.490 73.063 177 186 184
0.333 12.328 71.563 205 211 210
1.674 16.600 70.885 200 202 201
-2.418 3.777 73.200 236 238 237
-4.685 -3.320 74.492 202 204 204
-9.957 -19.854 77.461 168 175 177
-2.236 4.592 73.375 177 186 186
5.235 28.291 69.470 211 223 222
-2.243 4.669 73.489 182 198 197
-7.140 -10.812 76.108 154 182 178
-2.266 4.694 73.612 155 194 187
-4.670 -2.809 75.006 176 196 199
-9.657 -18.654 77.584 177 185 190
-1.146 8.514 73.326 183 188 193
2.183 19.190 71.720 200 204 208
0.439 13.681 72.658 224 227 232
-2.409 4.633 74.131 214 218 224
-8.487 -14.769 77.170 99 106 113
-10.230 -21.238 77.171 94 113 121
-5.717 -7.197 74.577 165 182 190
-3.464 -0.154 73.317 197 211 220
0.903 13.477 70.857 184 195 204
2.801 19.443 69.835 189 197 201
0.248 11.545 71.357 213 220 219
-4.576 -3.449 74.146 186 191 189
-4.031 -1.704 73.886 240 243 242
-3.951 -1.411 73.889 234 236 235
-10.735 -22.589 77.710 167 169 169
3.606 22.332 69.810 205 208 207
3.767 22.901 69.794 239 242 241
-3.707 -0.475 73.952 204 207 206
4.005 23.975 70.036 214 219 220
3.882 23.654 70.177 205 209 211
4.806 26.635 69.764 212 215 216
3.604 22.974 70.546 216 233 232
1.840 17.464 71.533 192 222 220
2.365 19.186 71.332 189 217 216
-3.308 1.324 74.355 192 216 217
-3.628 0.356 74.568 193 215 217
-4.323 -1.807 74.968 200 215 216
-0.341 10.894 73.035 191 198 199
-0.464 10.557 73.158 216 221 223
0.748 14.473 72.624 209 214 217
-3.924 -1.769 73.628 177 192 204
-0.168 9.914 71.528 184 190 200
0.649 12.501 71.123 189 192 197
-4.329 -2.900 74.002 238 240 240
0.779 13.014 71.175 230 232 231
-0.079 10.403 71.718 209 211 211
-4.801 -4.244 74.406 181 183 183
-7.882 -13.805 76.156 180 182 182
0.918 13.671 71.353 196 198 198
2.136 17.530 70.751 198 201 200
-7.811 -13.453 76.263 182 184 186
-2.292 3.851 73.335 180 183 186
0.765 13.475 71.757 183 187 191
5.260 27.625 69.434 206 210 213
-0.166 10.666 72.377 201 206 207
-2.653 2.907 73.743 213 217 218
5.468 28.486 69.563 226 230 231
-1.567 6.419 73.288 203 211 213
1.523 16.200 71.755 210 221 223
4.115 24.431 70.496 175 186 188
-5.915 -6.993 75.846 204 211 212
4.465 25.944 70.782 217 224 224
5.142 28.158 70.529 201 207 208
-4.421 -3.487 73.957 155 161 170
-6.103 -8.640 74.960 148 154 162
-5.509 -6.768 74.665 202 205 215
-2.923 1.269 73.253 242 241 253
-4.984 -5.066 74.458 198 197 203
-3.661 -0.929 73.767 134 134 134
0.011 10.502 71.784 199 201 200
-0.286 9.635 72.008 205 208 207
4.828 25.572 69.270 219 222 221
-4.820 -4.360 74.595 204 207 206
-7.974 -14.134 76.347 201 203 202
-3.385 0.190 73.916 222 224 224
-8.164 -14.602 76.593 196 201 205
2.383 18.520 71.231 204 212 215
-3.245 0.943 74.201 195 204 207
-2.454 3.515 73.902 163 172 174
-6.728 -9.831 76.159 157 166 170
-7.411 -11.946 76.541 140 148 153
1.005 14.724 72.538 212 219 220
-8.210 -15.428 76.019 199 206 212
0.478 11.229 71.026 201 207 210
-0.107 9.488 71.424 202 207 210
-10.509 -22.371 77.465 173 178 179
-5.080 -5.611 74.463 197 199 207
-0.438 8.730 71.908 231 229 243
2.006 16.316 70.606 219 218 227
2.183 16.920 70.575 204 204 206
-0.717 8.020 72.239 237 238 239
-4.308 -3.029 74.263 239 241 243
-6.157 -8.710 75.317 240 243 243
5.936 28.781 68.813 203 205 205
-0.165 9.936 72.176 215 217 216
-7.334 -12.188 76.149 180 186 189
-0.894 7.879 72.803 174 180 184
-4.291 -2.564 74.732 172 181 184
2.709 19.336 71.191 216 224 227
-4.611 -3.356 75.135 156 163 167
-4.270 -2.245 75.013 165 174 179
-6.738 -9.948 76.280 169 178 180
-1.394 6.877 73.701 215 224 224
0.917 14.194 72.635 165 174 174
-6.302 -8.246 76.450 169 169 169
-3.625 -1.612 73.348 192 200 214
4.189 22.328 68.946 197 201 204
-0.080 9.346 71.463 216 221 223
-8.166 -15.304 76.163 196 198 199
-8.233 -15.478 76.235 179 179 179
-2.322 2.678 72.958 239 239 240
-3.646 -1.339 73.748 185 185 187
0.517 11.490 71.490 195 194 197
-1.393 5.671 72.605 184 184 186
-3.651 -1.229 73.898 187 190 192
-6.674 -10.496 75.594 234 241 242
-0.827 7.563 72.467 237 244 243
5.268 26.418 69.243 185 190 189
-3.252 0.176 73.881 172 175 175
2.539 18.236 70.989 215 217 217
-4.662 -4.019 74.823 167 171 172
1.862 16.374 71.615 209 219 217
3.779 22.395 70.705 207 215 213
-0.080 10.446 72.735 158 165 163
1.452 15.389 72.159 177 183 185
0.002 10.917 72.942 183 187 193
2.179 17.778 71.937 166 174 177
-9.197 -17.706 77.619 143 152 150
-6.011 -7.680 76.130 177 186 182
-0.488 9.704 73.552 204 213 207
-8.195 -14.471 77.246 177 183 178
-4.131 -1.565 75.481 193 195 192
-4.142 -3.365 73.693 145 153 167
-10.591 -22.875 77.507 128 136 134
0.496 11.086 71.434 230 232 231
3.957 21.723 69.576 229 231 231
0.614 11.554 71.492 203 207 208
-3.261 -0.260 73.679 156 163 166
-9.855 -20.431 77.324 179 188 191
-7.776 -14.027 76.226 230 241 243
3.583 20.887 70.141 227 237 238
3.444 20.522 70.287 166 175 176
-7.177 -12.090 76.016 159 169 167
-9.778 -20.065 77.432 227 236 234
-1.431 5.682 73.069 214 222 220
-2.227 3.276 73.542 186 193 191
-2.320 3.129 73.752 202 209 209
3.121 20.016 71.029 196 203 204
-0.415 9.177 72.954 172 178 179
0.184 11.142 72.778 211 218 219
2.475 18.379 71.778 208 219 221
0.866 13.427 72.634 151 163 163
-8.593 -15.974 77.321 159 170 168
-0.397 9.652 73.434 180 191 189
3.435 21.683 71.675 192 203 198
-3.397 0.371 74.974 186 196 189
-5.467 -6.066 75.996 184 192 186
-2.875 2.099 74.835 165 170 167
-5.748 -6.868 76.217 195 199 197
-0.595 9.348 73.897 196 198 198
-2.982 -0.031 73.068 154 158 161
1.867 14.694 70.338 170 177 185
-1.893 3.354 72.547 197 205 216
-2.551 1.407 72.973 164 171 177
-4.272 -3.773 73.995 151 158 156
-5.001 -5.947 74.450 137 148 145
-8.981 -17.985 76.747 202 215 212
2.086 15.752 70.673 223 234 234
-2.754 1.052 73.395 156 169 173
-10.085 -21.222 77.504 129 142 152
5.151 25.943 69.979 181 188 189
-3.144 0.432 74.270 156 163 164
-0.466 8.740 72.970 176 183 184
5.561 27.407 70.007 226 233 234
3.075 19.791 71.325 218 227 227
4.775 25.111 70.555 196 207 207
1.179 14.042 72.402 194 206 208
2.429 17.973 71.857 205 218 222
-2.688 2.158 74.411 140 153 157
-4.655 -3.864 75.462 164 180 180
5.262 27.026 70.789 174 193 189
0.914 13.557 72.924 170 185 181
-8.803 -16.668 77.552 141 153 150
-1.290 6.796 74.083 166 176 173
-2.116 4.266 74.525 190 199 197
-8.206 -14.715 77.381 187 197 194
-5.286 -5.551 76.084 188 198 196
-5.096 -4.918 76.045 120 128 126
-1.605 3.977 72.378 149 153 160
2.066 15.107 70.349 215 220 233
2.763 17.382 70.157 199 211 209
2.487 16.606 70.377 215 229 228
-0.241 8.493 72.068 193 208 209
-2.468 2.000 73.599 165 170 171
1.147 13.089 71.757 156 160 162
-4.646 -4.572 74.840 169 173 173
-0.750 7.392 72.868 202 207 206
3.587 20.730 70.694 213 219 219
5.959 28.065 69.553 232 239 240
-4.064 -2.586 74.777 163 167 169
-1.710 4.692 73.644 201 209 210
2.888 18.887 71.406 190 201 203
-1.325 5.974 73.565 155 168 171
2.926 19.125 71.529 184 197 201
3.375 20.571 71.380 202 216 221
3.026 19.555 71.623 167 180 187
-4.288 -2.863 75.373 156 174 174
-3.465 -0.227 75.086 151 162 160
3.547 21.603 71.886 193 203 200
-6.656 -10.061 76.659 193 202 200
-9.088 -18.707 76.674 163 166 167
3.660 19.658 69.509 207 212 213
-0.609 6.965 72.090 216 235 233
0.992 11.846 71.263 201 231 229
-8.069 -15.439 76.338 235 244 242
-3.503 -1.597 73.893 228 242 239
-7.540 -13.779 76.122 225 244 242
3.569 19.919 70.193 203 216 215
-5.407 -7.247 75.056 215 221 222
5.522 25.971 69.298 219 225 226
-0.485 7.783 72.545 201 207 208
2.648 17.360 70.960 195 200 200
0.829 11.883 71.977 166 171 170
-0.768 7.071 72.868 193 198 197
-2.010 3.334 73.566 235 240 239
6.422 29.113 69.303 219 223 222
5.536 26.543 69.913 209 213 214
-2.512 1.982 74.037 180 185 188
1.058 12.961 72.307 205 213 217
3.425 20.273 71.197 159 173 176
-0.351 8.749 73.131 154 168 173
3.332 20.109 71.387 184 197 203
6.008 28.395 70.156 208 221 229
-4.029 -2.412 75.092 139 152 163
-5.718 -7.496 76.040 136 147 158
-6.299 -9.253 76.358 149 162 168
3.755 21.909 71.773 170 188 184
3.339 20.685 72.039 174 190 185
-3.155 0.632 75.087 161 173 170
-4.554 -3.664 75.776 163 172 173
2.122 14.788 70.436 193 198 199
-2.344 1.496 73.049 218 227 225
2.659 16.568 70.335 206 223 221
0.752 10.890 71.451 215 238 237
-10.098 -21.656 77.500 205 214 212
-7.387 -13.453 76.071 210 217 215
3.520 19.509 70.280 223 230 228
-0.352 7.870 72.408 217 224 222
2.152 15.491 71.144 227 235 233
1.930 14.876 71.327 171 180 178
2.741 17.390 70.970 181 191 189
-9.981 -21.105 77.669 158 165 163
5.536 26.053 69.744 227 232 231
4.824 23.955 70.184 210 214 213
1.496 13.891 71.946 177 182 180
4.776 24.000 70.436 200 204 208
3.868 21.357 71.037 190 194 200
-8.975 -17.830 77.411 136 143 150
4.004 21.960 71.192 212 223 234
-4.886 -5.219 75.543 118 128 142
1.284 13.799 72.706 117 125 144
-9.323 -18.732 77.774 96 102 123
-4.073 -2.561 75.348 123 131 149
-7.007 -11.550 76.762 143 154 164
2.836 18.803 72.254 160 176 177
-5.486 -6.794 76.144 123 141 141
-3.705 -1.259 75.377 129 147 150
-3.676 -1.129 75.415 165 180 186
-0.183 7.668 71.784 182 198 199
-7.706 -14.757 76.025 160 173 174
-3.461 -2.035 73.713 181 190 193
-1.534 3.772 72.701 180 191 194
-7.957 -15.420 76.269 160 174 177
1.171 12.183 71.590 223 234 232
6.362 27.866 68.909 212 228 225
3.989 20.782 70.235 222 241 235
1.603 13.701 71.619 183 206 197
-3.797 -2.556 74.472 176 197 188
1.873 14.627 71.611 196 211 205
5.006 24.165 70.079 193 200 198
5.554 25.888 69.877 193 198 197
-2.183 2.499 73.853 159 164 163
2.625 17.131 71.500 155 159 158
-9.866 -20.740 77.783 177 182 180
-4.869 -5.528 75.343 238 242 243
6.451 28.943 69.827 214 218 222
1.045 12.718 72.741 117 127 141
-0.372 8.443 73.480 107 116 132
4.951 24.771 71.026 133 140 159
-5.990 -8.651 76.236 82 91 111
-9.054 -18.000 77.706 112 124 141
-1.862 4.079 74.411 164 178 188
4.354 23.200 71.612 182 198 201
-4.568 -4.138 75.759 147 169 170
0.071 10.163 73.705 139 166 167
-8.682 -16.717 77.705 148 177 177
-8.716 -17.892 76.615 148 164 166
-7.082 -12.967 75.786 162 176 180
-0.155 7.783 72.111 208 221 226
-4.268 -4.464 74.384 176 189 193
-4.710 -5.671 74.756 185 196 193
-2.209 1.912 73.538 155 173 168
5.305 24.593 69.761 198 218 209
4.847 23.279 70.073 195 214 205
2.471 16.187 71.360 176 189 184
3.421 19.108 70.946 182 189 187
-1.483 4.368 73.491 211 217 216
-2.581 1.100 74.097 214 219 218
3.882 20.679 70.930 191 195 194
-0.461 7.602 73.152 214 219 218
0.384 10.211 72.795 213 219 219
-10.448 -22.564 78.152 142 149 152
-4.119 -3.303 75.154 182 193 201
2.572 17.066 71.996 206 221 232
-8.008 -15.049 77.102 122 142 155
2.173 15.965 72.324 170 184 204
2.103 15.811 72.425 159 168 193
-2.881 0.674 74.818 152 162 189
0.054 9.672 73.511 160 172 196
-2.804 0.997 74.888 168 180 192
3.395 19.990 72.108 185 199 198
-3.444 -0.873 75.285 165 183 180
-8.268 -15.544 77.582 128 151 148
-9.275 -19.642 76.982 147 163 166
-7.005 -12.813 75.852 208 214 220
-4.426 -5.103 74.508 234 238 244
-9.105 -19.008 77.045 194 197 200
2.491 15.607 70.937 198 202 204
-7.688 -14.727 76.362 135 142 147
-7.649 -14.518 76.449 175 186 195
1.823 13.885 71.615 196 207 210
-0.788 6.158 73.073 158 168 165
-0.235 7.867 72.851 193 200 198
-0.360 7.541 72.973 229 234 233
0.848 11.225 72.429 209 214 213
-0.250 7.970 73.037 193 198 196
3.394 19.003 71.302 223 228 227
-8.442 -16.639 77.165 175 180 182
1.692 14.148 72.470 211 220 229
-4.829 -5.550 75.625 170 181 192
0.343 10.169 73.238 200 209 228
-10.092 -21.419 78.206 141 147 175
3.134 18.809 72.139 222 229 255
-4.350 -3.900 75.636 235 240 254
-1.340 5.306 74.316 234 238 240
4.156 22.103 71.893 215 225 223
-0.942 6.614 74.253 164 180 179
-1.428 5.180 74.528 141 157 156
-9.272 -19.670 77.099 211 221 225
-2.742 -0.271 73.650 237 241 247
-6.676 -11.909 75.785 194 197 205
-1.679 2.972 73.191 186 190 200
0.216 8.652 72.252 174 181 195
-8.398 -16.940 76.798 162 172 188
-8.040 -15.818 76.681 210 220 229
-1.038 5.108 73.134 162 172 177
-2.014 2.241 73.686 134 143 145
-2.731 0.185 74.153 220 227 226
0.275 9.230 72.704 210 216 214
3.316 18.393 71.256 206 211 210
3.166 18.003 71.400 217 221 220
-5.553 -8.011 75.872 157 166 167
4.355 21.877 71.184 220 232 234
3.241 18.580 71.787 208 223 225
3.114 18.254 71.918 188 206 211
-8.780 -17.559 77.623 124 129 158
2.082 15.363 72.676 171 173 200
2.115 15.519 72.729 180 182 198
-6.726 -11.242 76.795 183 185 189
2.172 15.806 72.840 195 197 199
3.883 21.062 72.146 205 208 209
0.103 9.627 73.894 151 154 156
-1.349 3.662 72.955 213 217 223
-10.092 -22.134 77.648 161 165 171
2.098 14.013 71.322 180 185 190
-3.452 -2.392 74.263 201 207 212
0.373 8.999 72.342 217 226 234
3.775 19.158 70.660 216 226 235
5.536 24.642 70.064 224 231 231
2.858 16.714 71.471 211 217 216
3.381 18.332 71.282 215 220 219
-1.706 3.187 73.847 199 204 202
-8.771 -17.870 77.379 183 187 187
-6.852 -12.094 76.488 162 166 167
-3.777 -2.841 75.057 172 181 181
-2.373 1.413 74.439 155 168 167
-1.023 5.514 73.855 170 187 185
2.967 17.555 72.043 214 232 232
-4.464 -4.746 75.572 166 182 195
-3.784 -2.620 75.354 152 160 191
0.895 11.536 73.269 147 153 181
-7.077 -12.482 76.944 128 132 152
-0.529 7.389 74.098 193 194 201
-4.985 -6.051 76.134 186 188 192
-6.564 -11.827 75.831 220 231 238
-0.729 5.431 72.844 216 224 228
2.061 13.720 71.462 227 234 237
2.879 16.192 71.108 232 239 242
5.598 24.296 69.790 231 238 241
-8.549 -17.548 77.031 175 180 182
-8.745 -18.074 77.195 177 195 193
4.403 21.000 70.690 197 222 219
-2.423 0.769 74.137 176 192 190
0.506 9.678 72.935 239 243 242
2.480 15.622 72.051 200 205 204
-1.220 4.623 73.879 185 194 192
0.626 10.190 73.063 176 189 188
2.203 14.961 72.385 185 201 207
5.262 24.179 71.027 209 226 240
0.691 10.538 73.221 181 196 218
-4.578 -5.220 75.708 103 116 143
-1.369 4.456 74.288 140 153 182
-1.495 4.125 74.402 139 151 178
-6.347 -10.425 76.645 157 163 182
-10.514 -22.916 78.579 111 111 119
-6.236 -10.970 75.733 214 216 218
-0.920 4.711 73.046 215 217 217
3.527 17.859 70.834 218 221 220
5.810 24.649 69.746 232 236 235
2.338 14.464 71.572 209 214 213
3.223 17.133 71.195 220 227 226
-10.278 -22.725 77.986 174 184 182
-5.888 -9.577 76.007 240 243 242
-3.064 -1.151 74.695 238 240 240
1.115 11.320 72.755 228 233 232
1.722 13.178 72.531 220 229 226
5.417 24.238 70.860 222 236 233
4.295 20.956 71.461 179 192 198
-4.794 -6.106 75.751 169 181 196
0.874 10.860 73.185 167 181 202
-3.691 -2.694 75.387 141 154 175
-5.618 -8.424 76.306 127 137 153
-4.260 -4.319 75.740 165 170 184
-7.910 -16.103 76.523 186 210 223
-7.474 -14.799 76.331 213 226 232
-10.328 -23.127 77.841 236 238 238
-4.130 -4.942 74.685 236 237 235
-6.352 -11.423 75.866 205 208 207
-4.456 -5.825 74.943 199 202 201
-6.277 -11.137 75.907 190 194 193
3.434 17.450 71.077 210 216 214
5.033 22.211 70.350 219 226 225
-4.656 -6.264 75.223 183 190 189
0.258 8.307 72.909 233 239 238
-7.618 -14.900 76.798 179 184 183
-6.776 -12.383 76.428 198 201 200
-0.293 6.825 73.354 211 214 213
-4.655 -6.043 75.494 187 189 188
-2.897 -0.795 74.706 178 183 182
-1.520 3.330 74.109 171 182 181
-0.735 5.704 73.797 162 178 179
-10.549 -23.399 78.414 150 169 176
-4.132 -4.222 75.576 153 172 186
-3.704 -2.909 75.430 158 174 184
-1.787 2.849 74.618 132 143 149
-7.059 -12.844 77.024 163 169 173
-9.585 -21.175 77.335 171 193 201
-5.925 -10.512 75.440 163 180 192
-4.926 -7.572 74.958 198 208 214
-8.948 -19.248 77.092 239 242 241
-2.037 0.921 73.550 227 229 227
-4.550 -6.369 74.894 231 233 233
-0.657 5.034 72.949 236 238 238
-6.001 -10.536 75.720 233 236 235
3.288 16.662 71.070 224 228 227
4.323 19.748 70.619 186 191 190
5.472 23.172 70.117 209 214 213
-1.865 1.722 73.831 235 240 239
-1.644 2.415 73.775 202 207 206
-2.311 0.498 74.156 239 243 242
0.231 8.061 73.031 207 212 211
-0.056 7.266 73.228 234 239 238
-4.809 -6.692 75.558 234 239 238
-2.688 -0.401 74.596 215 219 217
-1.230 3.944 73.960 215 220 219
-5.921 -9.871 76.214 172 181 181
2.084 13.833 72.530 134 150 151
-3.324 -3.119 74.113 217 227 239
-2.974 -2.066 73.978 229 235 240
-6.134 -11.197 75.663 237 239 239
0.483 8.053 72.298 229 231 230
-2.015 0.840 73.635 233 236 235
2.208 13.169 71.539 231 233 233
1.934 12.424 71.743 231 233 233
3.700 17.619 70.920 234 237 236
5.122 21.824 70.279 193 198 197
-1.858 1.512 73.818 218 222 221
0.779 9.258 72.569 238 240 240
-0.879 4.458 73.444 207 209 208
2.630 14.772 71.790 239 242 241
-3.930 -4.347 75.081 206 211 210
-2.767 -0.898 74.572 230 235 234
-8.815 -18.614 77.497 209 216 214
-7.865 -15.797 77.081 219 226 225
-2.574 -0.125 74.738 156 173 185
-1.039 3.397 73.072 230 236 239
-3.207 -2.835 74.237 237 242 243
-1.499 2.151 73.416 236 238 238
1.474 10.811 71.965 232 235 234
1.745 11.647 71.891 237 239 239
3.590 17.056 71.031 239 242 241
2.893 15.086 71.447 214 216 215
5.898 23.877 70.030 225 228 227
7.633 28.988 69.254 240 243 242
6.710 26.431 69.865 240 243 242
-4.814 -7.096 75.542 222 227 226
-5.368 -8.679 75.850 232 239 237
0.652 8.964 73.047 207 216 214
-0.167 6.615 73.492 170 183 188
-4.614 -6.367 75.626 145 162 174
-9.987 -22.086 78.162 154 176 188
-4.034 -4.592 75.450 164 190 200
-6.195 -11.650 75.760 174 180 184
-8.246 -17.531 76.844 214 220 220
-0.553 4.692 72.981 235 240 239
2.164 12.585 71.669 231 235 234
-0.249 5.661 72.941 232 235 234
2.511 13.692 71.625 236 238 238
4.073 18.266 70.918 239 242 241
5.930 23.702 70.076 239 242 241
6.391 25.099 69.927 236 238 238
6.142 24.503 70.202 239 242 241
4.329 19.349 71.221 236 243 241
5.486 22.837 70.820 198 207 205
3.859 18.153 71.656 142 160 163
1.743 12.033 72.710 125 152 161
-5.481 -9.023 76.107 143 170 182
-9.959 -22.570 77.740 176 185 185
-0.332 5.132 72.916 234 239 238
-0.358 5.102 72.985 235 238 237
-7.618 -15.761 76.658 233 236 235
2.050 12.132 71.907 238 240 240
3.604 16.720 71.275 239 242 241
1.526 10.772 72.354 233 236 235
0.690 8.404 72.821 200 202 201
0.273 7.245 73.081 174 176 176
4.371 19.163 71.185 234 239 238
7.668 28.778 69.694 231 241 239
5.846 23.618 70.711 164 190 184
-2.736 -1.263 74.778 95 122 122
5.054 20.535 70.479 235 237 236
-3.552 -4.066 74.861 125 127 129
-3.118 -2.739 74.748 176 183 184
-1.873 0.891 74.206 197 212 211
-9.859 -21.002 84.364 146 144 162
-9.602 -20.206 84.451 122 127 136
-0.386 7.578 86.337 173 184 184
-2.610 0.923 85.954 116 128 134
-4.056 -3.396 85.717 170 180 194
-3.348 -1.133 86.047 146 147 159
-4.065 -3.677 85.601 172 175 193
5.017 23.636 87.517 177 185 195
-0.957 5.742 86.364 158 169 173
-5.003 -6.381 85.576 158 167 173
0.217 9.372 86.757 127 133 143
0.116 9.121 86.810 184 189 200
-0.214 8.174 86.810 184 187 198
-6.858 -11.831 85.372 173 174 182
-4.277 -3.999 86.017 175 174 179
0.180 9.516 87.122 174 173 175
-3.345 -1.658 85.809 156 162 183
-1.665 3.414 86.219 138 147 166
-0.653 6.638 86.713 173 182 191
3.070 17.880 87.631 174 183 189
2.074 14.941 87.486 122 131 133
-5.660 -8.302 85.750 147 155 158
-9.950 -21.669 84.246 176 195 192
-3.461 -2.185 85.787 126 135 149
1.026 11.291 86.859 165 181 182
5.751 25.462 87.957 171 192 192
-5.885 -9.271 85.493 136 157 157
7.041 29.521 88.535 201 218 218
-1.288 4.615 86.709 103 117 118
-3.301 -1.378 86.305 133 144 147
-9.932 -21.253 84.782 154 162 167
-4.818 -5.818 86.114 126 128 132
-9.497 -19.870 84.999 110 112 116
-2.966 -1.101 85.585 174 194 196
6.009 25.563 87.447 195 206 210
4.367 20.760 87.217 177 186 198
-2.300 1.041 85.963 176 186 202
-1.753 2.708 86.139 136 146 155
7.085 29.084 88.149 204 225 221
-0.627 6.194 86.581 217 247 242
4.251 20.774 87.724 170 199 193
2.419 15.427 87.485 225 244 242
2.919 16.976 87.683 164 177 179
3.450 18.621 87.892 132 140 144
-6.993 -12.567 85.484 123 127 133
-8.092 -15.827 85.265 132 134 141
1.308 12.375 87.624 132 134 140
3.672 19.522 88.294 133 135 139
0.829 9.894 86.297 206 227 229
2.020 13.512 86.677 166 177 181
1.610 12.352 86.675 193 204 206
3.509 18.019 87.136 206 218 217
-9.365 -20.006 84.580 163 172 171
-2.356 0.813 86.145 150 171 168
5.799 25.103 88.066 153 178 173
3.351 17.895 87.613 170 184 180
4.571 21.579 87.976 230 242 242
-2.442 0.859 86.572 120 122 129
2.218 14.805 87.766 166 167 174
-0.992 5.274 87.057 146 148 154
2.594 16.038 88.024 167 169 173
-6.078 -10.629 84.961 206 219 220
5.716 24.016 87.214 224 238 239
0.991 10.201 86.406 184 196 195
4.052 19.248 87.075 145 155 153
4.538 20.735 87.258 185 194 192
6.647 27.006 87.772 212 221 219
3.241 17.033 87.169 207 215 212
2.451 14.760 87.088 180 190 187
-3.497 -2.746 85.904 156 178 179
-2.039 1.603 86.278 137 168 172
2.001 13.594 87.233 138 162 169
2.035 13.748 87.320 171 184 192
5.455 23.931 88.178 198 205 209
5.330 23.686 88.335 241 243 241
0.896 10.581 87.369 196 198 198
-8.023 -15.877 85.281 132 134 134
-5.935 -9.636 85.839 154 157 156
3.483 18.438 88.246 173 177 176
-5.188 -7.343 86.130 179 184 183
-4.707 -6.840 85.108 133 144 147
-5.497 -9.110 85.020 140 149 149
0.999 9.899 86.261 186 195 195
7.588 29.216 87.568 222 231 231
3.881 18.433 86.960 205 212 212
-0.379 6.016 86.218 154 161 160
-1.430 2.981 86.080 173 181 179
2.030 13.175 86.844 193 202 200
3.775 18.354 87.282 198 207 204
5.568 23.679 87.742 201 211 208
4.724 21.258 87.655 186 202 209
6.819 27.485 88.198 144 168 183
6.236 25.833 88.167 159 184 196
3.878 18.943 87.734 222 244 250
6.416 26.685 88.688 228 237 235
6.577 27.228 88.824 163 171 168
3.626 18.547 88.194 138 143 142
-6.033 -9.976 85.965 131 134 140
-6.829 -13.194 84.692 216 230 231
-0.635 4.832 85.829 191 202 204
5.788 23.557 87.053 214 223 225
2.627 14.418 86.564 183 192 193
-0.734 4.680 86.016 220 229 229
3.814 18.043 87.037 166 173 173
3.048 15.973 87.135 167 182 190
2.716 15.056 87.148 151 175 190
3.220 16.588 87.337 164 189 206
2.973 15.918 87.367 126 149 165
6.905 27.514 88.316 173 197 203
6.142 25.465 88.433 157 171 168
2.567 15.000 87.687 166 185 181
5.886 24.838 88.562 210 233 230
2.883 16.097 88.011 125 145 143
5.021 22.472 88.629 176 190 194
0.281 8.515 87.518 199 207 217
-8.656 -17.890 85.289 137 141 150
-8.669 -17.901 85.326 125 127 133
-4.802 -7.537 84.940 114 132 130
-3.576 -3.959 85.200 166 180 180
-5.725 -10.102 84.935 185 192 195
1.670 11.406 86.393 195 202 204
0.401 7.775 86.232 227 234 235
7.421 28.279 87.743 198 202 201
4.234 19.186 87.382 162 176 184
2.714 14.811 87.150 165 185 201
2.730 14.913 87.235 168 186 205
7.053 27.595 88.253 159 173 190
5.878 24.349 88.279 174 184 181
2.283 13.872 87.540 135 152 148
1.983 13.046 87.550 159 182 179
1.119 10.613 87.500 141 168 165
-9.492 -20.548 84.962 118 141 138
2.962 16.140 88.114 124 142 146
-5.382 -8.389 86.079 125 138 149
-2.552 0.033 86.924 155 161 169
-4.930 -8.059 84.922 157 175 175
-1.528 1.773 85.551 191 207 209
-9.008 -19.742 84.321 169 182 186
-8.187 -17.350 84.503 186 196 201
1.345 10.242 86.337 216 221 224
1.406 10.468 86.424 235 240 241
-1.222 2.959 86.063 190 194 193
5.963 23.891 87.648 236 242 243
4.462 19.594 87.432 171 180 182
5.128 21.588 87.659 205 216 218
6.087 24.559 88.140 231 238 238
6.113 24.761 88.334 238 243 244
-2.268 0.387 86.551 160 177 177
1.901 12.678 87.689 146 174 171
1.600 11.849 87.694 137 160 157
-2.324 0.435 86.855 162 175 174
-5.986 -10.249 86.026 150 158 166
-8.668 -18.952 84.267 146 166 165
-0.359 4.892 85.686 200 218 218
1.873 11.340 86.133 193 205 208
6.015 23.283 86.927 187 193 198
2.490 13.318 86.552 168 172 178
5.829 22.990 87.258 202 204 206
-4.402 -6.412 85.446 172 174 173
7.302 27.425 87.825 219 222 221
6.031 23.818 87.665 239 243 242
3.063 15.347 87.229 201 207 208
4.809 20.576 87.860 194 200 201
7.389 28.129 88.527 237 244 244
7.027 27.143 88.543 236 242 244
7.052 27.280 88.646 237 243 246
0.219 7.445 87.136 157 172 173
-0.102 6.556 87.132 143 166 165
-0.904 4.265 87.009 144 168 165
-1.478 2.635 86.936 142 165 160
4.215 19.314 88.426 184 203 199
-8.232 -16.976 85.438 147 154 155
-1.969 0.054 85.360 167 183 182
5.539 21.538 86.672 208 222 221
0.785 8.009 85.953 169 179 180
5.608 21.913 86.952 213 219 223
6.290 23.986 87.257 184 191 194
2.215 12.353 86.584 167 174 174
-5.297 -9.143 85.274 167 169 169
2.907 14.497 86.956 203 205 205
6.377 24.606 87.832 173 177 176
-7.651 -15.798 84.985 159 164 163
-0.812 3.973 86.486 225 231 230
4.874 20.507 87.876 187 192 193
3.467 16.493 87.650 239 243 244
6.329 24.900 88.480 230 239 244
4.395 19.351 88.119 158 171 176
-7.788 -15.970 85.296 123 138 141
-8.420 -17.778 85.185 105 118 121
4.966 21.246 88.613 175 182 185
-0.380 5.726 87.347 165 171 174
4.861 21.117 88.857 174 181 181
-5.635 -9.484 86.167 121 127 127
5.231 20.346 86.540 182 199 201
8.195 28.839 87.121 189 205 204
2.268 12.021 86.210 156 168 168
6.523 24.202 87.027 201 207 210
-0.826 3.299 85.816 177 183 186
-5.809 -10.885 84.981 175 182 185
4.572 18.867 87.031 182 189 187
7.700 27.876 87.717 236 241 240
3.035 14.577 86.904 190 193 192
7.335 26.958 87.840 197 198 198
7.481 27.439 87.966 242 242 242
6.595 25.020 87.975 196 198 198
3.402 15.897 87.387 216 220 219
6.492 24.848 88.141 211 215 214
6.116 23.827 88.152 206 210 212
6.755 25.857 88.580 170 181 186
1.932 12.029 87.619 167 178 184
-0.846 4.035 87.023 81 91 97
-4.297 -5.921 86.241 138 147 152
-5.996 -10.814 85.872 143 149 156
7.126 27.377 89.349 195 198 204
6.858 26.661 89.377 197 201 202
0.364 7.827 87.754 142 147 145
-5.332 -9.865 84.771 142 159 169
4.362 17.629 86.404 156 175 180
4.047 16.791 86.436 152 170 171
5.840 21.935 86.825 177 196 199
-6.130 -11.970 84.878 144 159 164
6.849 25.043 87.371 226 235 235
2.165 11.758 86.583 236 243 241
6.774 25.014 87.638 182 182 182
7.715 27.826 88.017 242 242 242
7.868 28.330 88.146 196 196 196
-0.368 4.808 86.516 125 125 125
-1.113 2.720 86.426 173 175 175
7.430 27.267 88.347 228 233 232
6.388 24.340 88.214 223 234 232
2.578 13.508 87.533 167 182 185
-3.929 -5.166 86.106 143 156 162
5.641 22.434 88.414 180 192 200
5.526 22.162 88.478 199 210 219
-5.524 -9.657 85.888 114 121 132
6.212 24.261 88.829 124 128 141
-9.685 -21.616 84.950 101 103 116
-0.745 4.265 87.253 203 204 215
2.815 14.668 88.320 161 163 167
4.079 18.385 88.736 176 178 181
-5.128 -9.434 84.807 161 179 191
2.470 12.047 86.101 170 188 198
6.533 23.697 87.041 180 198 205
4.757 18.727 86.817 170 187 192
8.179 28.546 87.622 228 240 239
3.637 15.715 86.864 237 244 242
2.682 13.105 86.842 155 158 157
0.801 7.805 86.546 187 189 189
6.646 24.501 87.804 237 239 239
0.277 6.404 86.583 160 162 162
7.282 26.439 88.125 193 195 194
3.319 15.185 87.374 160 162 161
7.325 26.685 88.327 161 165 164
-0.604 4.070 86.672 142 154 154
2.311 12.460 87.394 141 158 161
-0.595 4.184 86.810 154 171 175
-6.104 -11.568 85.602 171 184 190
0.869 8.475 87.292 165 177 183
6.641 25.100 88.745 190 201 208
1.350 9.953 87.556 190 196 207
-0.955 3.374 87.064 98 99 113
1.997 12.018 88.026 155 154 160
3.008 14.989 88.369 143 143 150
3.772 17.250 88.654 176 177 182
-6.808 -13.285 85.900 132 134 136
2.649 12.328 86.136 183 199 213
4.088 16.537 86.620 147 163 166
5.845 21.549 87.016 172 186 187
1.341 8.889 86.288 154 165 165
4.203 17.024 86.891 235 241 241
4.956 19.209 87.117 239 242 241
5.960 22.167 87.487 184 187 186
3.127 14.193 87.013 187 189 189
6.935 25.052 87.866 239 242 241
6.890 24.986 87.951 201 203 203
6.331 23.577 88.113 159 164 163
3.352 15.149 87.547 141 151 152
1.832 10.868 87.288 142 158 161
-5.154 -9.024 85.771 147 161 165
7.085 25.975 88.659 192 203 208
-0.524 4.326 87.033 165 169 175
-3.853 -4.980 86.577 133 132 139
5.244 21.240 89.041 174 174 179
-10.061 -22.789 85.026 140 142 144
-0.706 2.659 85.525 143 164 178
-1.146 1.470 85.519 168 191 206
3.025 13.211 86.282 182 204 217
4.829 18.325 86.670 177 195 204
-0.024 4.747 85.907 138 153 157
4.871 18.554 86.848 138 152 152
2.655 12.373 86.531 149 161 158
5.047 19.162 87.052 211 218 216
5.945 21.748 87.308 219 222 221
5.397 20.431 87.557 179 181 180
3.794 15.954 87.315 197 200 199
0.291 6.267 86.943 179 183 187
-7.167 -14.896 85.313 144 148 152
7.568 27.075 88.772 200 204 208
5.353 20.827 88.348 194 199 203
6.527 24.233 88.719 204 208 214
-1.584 1.149 86.844 153 157 168
-8.460 -18.446 85.215 147 150 165
2.266 12.390 88.173 151 155 165
-3.219 -4.539 85.126 166 188 201
-2.679 -2.995 85.271 166 189 203
4.592 17.366 86.551 175 197 210
6.838 23.702 87.020 195 213 223
-4.078 -6.797 85.202 134 147 153
-4.296 -7.373 85.217 134 144 146
-2.263 -1.637 85.640 176 183 182
4.126 16.331 86.886 223 227 225
7.080 24.680 87.527 194 196 196
5.288 19.872 87.538 183 190 189
-9.324 -21.275 84.605 153 160 161
6.310 22.871 87.929 161 168 171
2.400 11.886 87.184 186 192 193
-6.231 -12.463 85.385 177 182 180
4.563 18.105 87.818 206 209 208
1.388 9.171 87.191 174 176 176
3.042 13.907 87.643 186 189 188
6.572 23.970 88.542 211 215 214
8.131 28.457 89.003 188 193 194
3.351 14.942 87.960 206 210 214
5.880 22.185 88.655 172 176 186
2.066 11.592 88.119 140 148 159
-6.374 -13.472 84.622 177 192 200
3.233 13.290 86.249 208 224 230
5.994 21.030 86.792 196 211 215
-4.588 -8.339 85.168 166 174 177
-3.341 -4.821 85.447 184 191 194
7.713 26.123 87.556 231 235 236
8.437 28.275 87.887 217 219 219
2.458 11.728 87.044 185 189 191
7.538 26.064 88.190 173 178 181
-1.027 2.020 86.453 156 160 162
5.860 21.519 88.107 204 207 206
0.591 6.850 87.228 166 173 173
-5.510 -10.375 85.841 123 129 132
7.523 26.580 89.054 150 156 164
5.002 19.495 88.530 182 188 200
-0.100 5.163 87.483 129 139 148
1.688 10.295 88.020 144 154 161
1.044 8.512 87.926 128 140 143
-4.327 -6.745 86.561 125 136 136
3.913 14.901 86.286 197 212 226
3.712 14.395 86.334 181 197 207
6.714 22.778 86.920 170 186 189
5.197 18.622 86.750 205 218 219
4.733 17.388 86.754 226 235 235
4.772 17.658 87.015 188 191 193
7.074 24.132 87.536 174 176 176
6.791 23.402 87.574 214 216 217
7.206 24.682 87.841 164 165 170
4.604 17.462 87.406 205 207 211
8.335 27.961 88.263 202 205 209
8.670 28.963 88.432 194 199 202
0.281 5.502 86.735 177 181 183
6.324 22.508 88.120 214 219 218
-3.530 -5.003 86.202 152 163 165
0.157 5.424 87.127 122 132 138
7.210 25.360 88.883 150 158 168
5.951 21.926 88.764 240 242 246
4.945 19.253 88.779 154 161 158
-1.007 2.482 87.382 129 142 137
0.769 6.036 85.854 161 178 180
4.379 16.063 86.532 187 203 201
6.464 21.885 86.974 215 228 225
6.361 21.889 87.405 186 193 191
-5.068 -9.835 85.289 189 194 195
8.312 27.495 88.066 205 208 212
7.685 25.811 88.036 188 190 194
7.684 25.929 88.227 201 206 207
1.913 9.865 87.087 191 195 195
5.347 19.516 87.910 205 209 208
5.044 18.835 88.104 160 175 180
-0.637 2.952 86.873 119 141 150
5.664 20.687 88.424 172 194 203
4.563 17.817 88.508 195 196 194
6.270 22.685 89.027 186 188 185
0.550 6.602 87.649 159 166 162
-3.869 -5.832 86.569 116 127 122
1.624 9.729 88.076 139 152 148
-6.927 -15.348 84.585 177 199 199
-2.388 -2.815 85.395 196 216 214
-8.008 -18.224 84.564 155 168 166
8.033 26.569 88.207 205 208 209
7.458 25.031 88.182 184 189 187
8.616 28.316 88.525 210 214 213
5.560 19.920 88.046 165 174 180
5.057 18.573 88.022 151 164 175
3.067 13.069 87.654 158 174 185
2.880 12.598 87.690 161 179 188
-3.370 -4.840 86.297 172 185 194
3.337 13.976 87.958 202 211 218
6.895 23.999 88.902 211 218 221
-0.540 3.208 87.165 169 176 175
-6.599 -13.757 85.719 118 127 123
-8.058 -17.826 85.395 82 94 89
-1.017 2.037 87.311 125 136 138
-3.085 -3.745 86.831 141 153 153
-6.671 -14.740 84.675 182 186 185
4.799 16.805 86.698 207 212 211
9.081 28.635 87.536 223 228 227
4.315 15.581 86.779 211 215 214
7.574 24.670 87.551 215 216 216
6.740 22.428 87.486 240 240 240
0.287 4.668 86.329 182 183 181
1.844 9.060 86.778 174 175 177
6.984 23.333 87.900 200 200 207
4.090 15.376 87.393 190 192 195
-6.037 -12.645 85.339 149 154 153
2.889 12.149 87.300 183 187 189
8.701 28.589 89.041 199 207 217
-0.329 3.477 87.014 146 151 156
2.157 10.458 87.676 188 190 192
-0.233 3.832 87.172 156 160 162
-4.675 -8.538 86.147 137 143 146
-0.932 1.964 87.134 110 120 119
2.119 10.644 88.127 140 151 155
-8.697 -19.657 85.348 148 156 160
-0.480 2.075 85.726 222 224 224
3.193 12.273 86.582 240 243 242
1.641 8.062 86.376 232 235 234
7.650 24.675 87.664 242 242 242
7.663 24.769 87.760 226 226 226
-1.359 0.027 86.139 142 142 143
1.989 9.299 86.885 224 223 226
7.338 24.112 88.069 208 209 209
0.848 6.333 86.935 117 118 127
4.706 17.059 87.861 195 196 208
7.796 25.860 88.928 194 196 197
-2.094 -1.538 86.721 165 167 165
-4.547 -8.296 86.231 136 139 137
-2.971 -3.828 86.742 121 128 129
1.856 9.693 88.057 156 165 167
-3.863 -6.248 86.623 162 170 173
2.823 10.901 86.291 230 232 232
1.545 7.461 86.146 223 225 225
6.921 22.186 87.167 230 232 232
6.497 21.085 87.181 225 228 227
8.793 27.422 87.691 240 243 242
1.256 6.852 86.380 203 204 204
6.268 20.626 87.405 211 211 211
3.722 13.702 87.001 234 234 234
5.020 17.315 87.337 210 210 210
3.977 14.504 87.212 141 141 142
-6.160 -13.302 85.224 166 166 169
1.261 7.182 86.883 178 179 184
-2.243 -2.425 86.203 159 160 174
4.941 17.420 87.829 167 167 194
-6.582 -14.323 85.361 145 144 191
7.397 24.368 88.647 190 191 227
2.443 10.773 87.668 176 178 182
2.085 9.830 87.659 203 205 207
0.676 5.972 87.393 215 217 217
-7.122 -15.621 85.544 178 180 179
3.095 12.779 88.139 174 178 176
3.858 14.950 88.412 189 193 190
1.571 7.287 86.084 191 193 197
3.119 11.542 86.424 199 202 204
6.950 22.014 87.178 208 213 212
-4.785 -9.887 85.154 174 178 177
5.331 17.715 87.061 240 243 242
3.169 11.872 86.742 200 203 203
-6.771 -15.214 84.926 178 183 182
-6.488 -14.414 85.025 181 185 184
-1.279 -0.145 86.097 153 155 155
4.922 16.863 87.405 144 145 144
4.174 14.921 87.418 222 223 222
8.421 26.680 88.494 176 178 191
6.974 22.766 88.275 178 180 205
-5.228 -10.725 85.662 137 143 169
6.342 21.201 88.407 135 144 171
-5.405 -11.119 85.770 152 161 186
-4.262 -7.766 86.355 175 182 185
8.003 24.560 87.276 227 230 235
6.421 20.328 87.090 235 239 243
-0.021 2.903 86.016 186 192 193
-5.143 -10.966 85.141 173 180 178
8.152 25.199 87.679 202 209 207
3.162 11.685 86.822 231 238 236
7.156 22.608 87.675 209 216 214
-8.323 -19.508 84.709 151 158 156
1.979 8.607 86.817 161 165 164
-1.810 -1.688 86.116 169 172 171
7.484 23.732 88.109 218 222 220
7.726 24.454 88.253 230 237 235
5.373 18.075 87.842 175 183 192
0.296 4.232 86.820 173 182 203
-9.070 -21.365 84.847 125 143 166
3.236 12.428 87.698 143 160 184
-2.671 -3.744 86.405 150 166 190
1.770 8.498 87.510 177 193 214
-4.402 -8.368 86.213 136 154 157
-1.302 0.213 87.040 127 143 144
-1.547 -0.423 87.042 141 154 156
2.772 10.224 86.449 236 241 242
6.065 19.178 87.119 213 218 218
4.548 15.126 86.927 191 195 194
5.031 16.486 87.099 213 219 218
7.573 23.428 87.667 213 220 219
5.540 17.972 87.365 231 239 238
1.327 6.631 86.689 197 206 204
3.026 11.297 87.108 166 173 171
3.832 13.538 87.353 186 194 191
5.258 17.524 87.819 205 213 220
-0.161 2.795 86.722 179 187 203
-1.047 0.577 86.847 173 184 197
-6.401 -14.059 85.630 96 110 113
-3.944 -7.289 86.272 139 153 156
-3.621 -6.370 86.406 150 163 167
-1.937 -1.670 86.943 148 155 158
0.219 3.142 86.001 236 238 238
8.258 24.848 87.520 238 242 241
7.997 24.203 87.566 237 242 241
1.217 6.005 86.458 213 218 217
9.648 28.843 88.167 224 231 229
7.558 23.248 87.853 200 209 207
-9.574 -23.083 84.498 153 161 159
3.759 13.069 87.260 155 162 161
5.487 17.804 87.699 163 170 172
-2.140 -2.807 86.231 168 176 185
-2.500 -3.746 86.212 176 184 195
-6.056 -13.300 85.620 145 154 173
-5.529 -11.802 85.839 127 135 131
-5.505 -11.705 85.893 149 156 162
-2.012 -2.120 86.802 136 141 158
5.664 17.625 87.057 240 243 242
7.264 21.979 87.436 240 243 242
3.708 12.469 86.859 235 237 236
7.307 22.205 87.626 224 226 226
5.907 18.545 87.530 228 233 232
-5.559 -12.343 85.308 193 198 196
-7.218 -16.793 85.016 159 164 163
5.222 16.854 87.647 187 193 195
5.850 18.605 87.864 183 191 196
-6.910 -15.880 85.207 183 191 198
3.511 12.375 87.527 195 204 211
2.889 10.740 87.468 125 136 141
-0.649 1.187 86.747 110 124 127
-8.018 -18.782 85.126 163 177 189
2.298 9.276 87.561 137 149 167
-9.699 -23.285 84.842 134 137 134
-4.832 -10.005 86.057 163 164 171
0.326 4.088 87.377 147 148 166
9.049 26.512 87.771 228 230 229
7.389 22.176 87.646 216 221 220
9.652 28.309 88.177 208 213 213
6.011 18.588 87.555 207 212 213
1.969 7.771 86.827 211 215 215
7.861 23.672 88.107 226 230 229
-3.945 -8.032 85.793 193 199 200
2.781 10.143 87.293 207 216 220
7.914 24.046 88.491 187 197 204
0.620 4.398 86.966 144 156 161
5.420 17.421 88.117 143 156 160
2.652 9.981 87.568 154 167 179
3.554 12.471 87.854 143 155 173
0.950 4.716 86.417 224 226 228
9.241 26.939 88.101 215 218 220
7.216 21.578 87.797 201 206 207
5.531 17.170 87.632 237 244 242
6.108 18.772 87.837 190 197 195
-0.326 1.543 86.561 147 154 153
-3.824 -7.819 85.874 201 212 210
-1.002 -0.194 86.544 176 189 188
5.162 16.439 87.976 146 160 161
4.681 15.196 87.951 174 188 191
0.449 3.834 87.065 176 188 199
5.082 16.380 88.210 180 192 208
-5.354 -11.754 85.833 154 168 177
3.270 10.802 87.018 208 219 221
5.200 16.005 87.484 174 185 189
8.364 24.511 88.216 147 158 162
1.760 6.907 86.934 137 148 149
-6.325 -14.690 85.292 140 152 149
-6.306 -14.613 85.341 162 174 172
5.282 16.481 87.920 156 168 167
-1.116 -0.632 86.583 141 154 155
-2.623 -4.641 86.305 129 142 146
-7.600 -17.978 85.223 122 135 143
-8.420 -20.421 84.812 131 141 150
-9.315 -22.787 84.659 185 196 205
-2.652 -13.842 77.011 158 171 184
-2.282 -13.030 76.930 154 166 179
-4.812 -18.427 77.792 152 165 178
-6.605 -22.252 78.404 144 161 174
-6.066 -21.078 78.263 140 162 175
-6.158 -21.258 78.324 139 162 176
-6.090 -21.334 78.067 169 185 197
-2.569 -13.813 76.928 170 185 198
-1.460 -11.426 76.602 165 179 192
3.343 -1.153 75.070 170 185 198
5.617 3.732 74.384 169 187 200
3.631 -0.476 75.086 167 189 202
-0.936 -10.209 76.605 155 179 192
-2.047 -12.561 77.003 150 174 187
-3.699 -16.074 77.566 158 182 196
-0.524 -9.253 76.609 162 186 201
-1.877 -12.128 77.075 168 190 204
-6.052 -21.058 78.406 156 177 190
-6.986 -23.045 78.724 145 168 182
-1.482 -11.651 76.508 178 195 207
-0.977 -10.555 76.382 179 196 208
-2.377 -13.506 76.889 170 187 199
0.359 -7.665 76.030 175 193 204
-0.233 -8.901 76.270 163 183 194
2.283 -3.518 75.501 166 188 201
-0.711 -9.868 76.515 164 188 203
0.944 -6.315 76.032 167 192 206
2.299 -3.396 75.651 171 195 208
1.330 -5.437 76.007 172 195 208
6.928 6.548 74.310 188 210 223
3.223 -1.335 75.521 193 213 226
0.044 -8.103 76.552 169 188 200
-2.136 -12.742 77.263 167 188 198
-7.148 -23.451 78.820 166 188 197
-2.002 -12.859 76.708 179 196 204
-3.681 -16.393 77.307 176 193 201
-3.204 -15.362 77.187 173 190 200
1.345 -5.694 75.736 175 193 206
0.480 -7.501 76.066 169 188 204
0.126 -8.227 76.228 170 191 207
-1.899 -12.505 76.923 168 190 205
1.596 -5.052 75.854 178 198 212
4.560 1.282 74.969 192 209 221
5.154 2.577 74.840 197 211 220
8.519 9.776 73.854 203 214 220
11.622 16.427 72.964 223 233 241
11.458 16.118 73.088 211 222 231
8.899 10.699 73.939 197 212 220
0.442 -7.321 76.553 182 202 208
-3.761 -16.272 77.855 172 191 199
-2.574 -14.171 76.924 194 209 217
-3.433 -15.964 77.248 184 199 208
-1.304 -11.443 76.587 184 199 209
2.812 -2.716 75.288 184 199 212
3.694 -0.821 75.055 187 201 216
3.938 -0.275 75.032 181 194 210
1.701 -4.984 75.800 183 193 209
2.898 -2.417 75.471 193 203 214
8.523 9.542 73.759 204 215 222
10.191 13.119 73.305 213 225 228
12.938 18.992 72.526 226 237 239
10.648 14.168 73.306 232 239 240
12.775 18.730 72.731 235 240 241
10.013 12.897 73.642 232 239 242
9.911 12.720 73.743 212 223 230
5.234 2.796 75.203 190 204 212
-7.301 -23.892 78.958 158 175 185
-3.831 -16.918 77.365 191 206 216
-1.181 -11.316 76.530 194 207 216
2.148 -4.277 75.485 198 209 218
6.124 4.135 74.246 200 210 220
9.328 10.928 73.274 209 219 230
7.318 6.722 73.985 200 211 221
4.610 1.037 74.907 195 206 212
4.755 1.375 74.918 200 209 214
10.460 13.472 73.193 217 224 227
12.638 18.121 72.588 224 229 230
12.279 17.403 72.775 234 239 238
13.085 19.153 72.604 233 237 236
12.083 17.071 72.985 233 237 236
11.056 14.932 73.369 232 236 235
10.871 14.579 73.497 214 219 218
9.521 11.752 73.969 202 212 211
1.953 -4.296 76.259 195 211 211
-1.994 -12.663 77.459 171 188 195
-1.055 -11.182 76.472 198 213 223
-1.399 -11.880 76.627 192 205 214
0.913 -7.000 75.918 195 205 214
5.137 1.908 74.601 198 209 217
6.655 5.133 74.172 204 215 222
10.140 12.503 73.125 212 220 226
11.536 15.482 72.754 220 227 232
13.688 20.059 72.152 222 228 231
14.511 21.838 71.974 224 231 231
14.362 21.567 72.101 227 233 232
13.487 19.763 72.449 232 236 235
13.925 20.733 72.394 233 236 235
13.654 20.203 72.555 236 238 238
11.911 16.560 73.155 238 240 240
12.030 16.853 73.195 235 237 236
12.491 17.869 73.134 226 229 229
11.679 16.191 73.448 230 235 236
5.054 2.181 75.441 200 210 211
-3.249 -15.407 77.885 171 187 188
-3.485 -16.397 77.259 203 217 225
0.328 -8.397 76.044 201 214 222
-0.578 -10.267 76.385 193 205 212
2.747 -3.277 75.353 203 214 220
7.027 5.726 74.028 208 218 224
9.607 11.174 73.267 214 223 228
11.703 15.609 72.671 213 220 225
14.251 21.002 71.943 212 219 224
16.687 26.167 71.262 217 222 226
14.838 22.368 72.002 222 227 227
14.369 21.425 72.226 232 236 235
15.633 24.132 71.923 231 236 235
15.089 23.032 72.170 232 236 235
15.007 22.903 72.276 229 232 232
13.219 19.173 72.887 225 228 227
11.526 15.640 73.461 222 225 224
8.451 9.182 74.428 233 237 236
6.077 4.197 75.180 212 218 219
-1.357 -11.502 77.366 190 198 201
-4.107 -17.844 77.380 185 202 214
-6.582 -22.981 78.243 192 208 218
-5.527 -20.767 77.923 195 210 218
0.450 -8.282 75.986 210 224 231
4.725 0.666 74.634 213 226 232
3.712 -1.420 75.019 207 219 224
3.776 -1.256 75.052 211 222 226
9.690 11.139 73.213 209 220 224
11.236 14.410 72.791 210 221 225
14.184 20.620 71.933 210 219 224
16.878 26.447 71.425 218 223 224
15.854 24.345 71.821 234 238 240
16.069 24.840 71.840 229 234 234
16.692 26.244 71.824 228 233 231
13.487 19.545 72.852 225 229 228
12.680 17.888 73.166 225 229 229
11.646 15.750 73.541 225 229 230
7.640 7.342 74.765 215 220 222
4.559 0.875 75.707 205 212 215
-4.062 -17.297 78.197 184 197 199
-3.403 -16.473 77.167 188 206 215
-0.707 -10.852 76.307 198 212 219
2.207 -4.771 75.388 206 217 222
2.538 -4.054 75.329 212 222 225
5.957 3.088 74.267 216 225 228
4.644 0.387 74.750 210 218 222
2.905 -3.207 75.365 204 212 217
8.301 8.072 73.697 207 217 222
9.652 10.927 73.335 204 215 219
14.193 20.443 71.977 201 211 216
16.816 25.965 71.238 206 215 219
16.642 25.647 71.377 212 220 224
15.762 23.989 71.981 224 231 231
14.992 22.420 72.293 219 226 227
11.852 15.877 73.301 212 219 221
11.194 14.536 73.568 217 224 227
9.624 11.278 74.097 215 221 224
9.303 10.642 74.258 212 219 222
7.003 5.840 74.984 213 219 222
-1.741 -12.524 77.523 197 204 207
-7.371 -24.355 79.147 180 192 196
-3.642 -17.079 77.233 185 206 220
-0.571 -10.700 76.245 196 214 223
3.563 -2.113 74.919 212 225 230
4.320 -0.516 74.724 220 229 231
3.311 -2.577 75.108 214 223 225
3.956 -1.212 74.952 213 222 224
5.666 2.370 74.455 213 222 225
6.396 3.919 74.280 209 218 223
9.823 11.076 73.253 206 216 222
11.694 15.005 72.732 202 213 219
15.741 23.469 71.540 202 213 220
17.043 26.226 71.218 205 216 223
12.720 17.262 72.635 207 217 222
15.791 23.708 71.772 212 221 223
16.870 26.052 71.612 214 223 225
14.043 20.192 72.542 216 225 228
13.962 20.065 72.645 213 222 224
11.613 15.194 73.414 201 210 212
10.645 13.207 73.769 202 211 214
8.538 8.833 74.450 208 218 222
6.802 5.231 75.014 203 214 218
-0.021 -9.045 77.016 189 200 205
-3.337 -16.559 77.117 190 212 225
-1.193 -12.116 76.437 196 211 220
3.669 -2.054 74.864 213 222 226
4.032 -1.276 74.797 218 226 229
4.436 -0.413 74.719 213 222 224
3.939 -1.409 74.936 215 224 226
4.718 0.231 74.739 214 223 225
4.634 0.087 74.822 208 217 221
6.018 2.986 74.437 209 218 223
7.080 5.219 74.161 200 209 215
10.989 13.363 72.997 202 211 218
11.900 15.292 72.784 200 210 217
13.489 18.632 72.366 198 209 216
11.141 13.795 73.163 199 209 214
12.206 16.047 72.911 204 212 215
12.748 17.215 72.821 211 219 222
10.226 12.005 73.652 216 225 228
12.476 16.730 73.053 213 222 225
12.485 16.789 73.126 206 215 219
10.051 11.753 73.913 192 203 208
9.021 9.641 74.281 196 210 214
7.216 5.908 74.867 195 209 213
3.777 -1.245 75.912 185 198 204
-4.534 -18.597 78.319 184 197 204
-6.583 -22.864 78.929 188 201 210
-6.819 -23.828 78.279 187 206 217
-0.360 -10.529 76.142 201 216 226
0.437 -8.866 75.920 207 219 225
5.780 2.160 74.199 223 232 235
5.571 1.759 74.326 223 231 233
5.206 1.039 74.502 218 226 229
6.583 3.910 74.113 215 224 226
8.113 7.099 73.681 215 224 227
5.913 2.590 74.447 207 216 221
5.327 1.412 74.691 201 210 217
3.944 -1.417 75.184 191 201 208
4.778 0.338 74.978 195 206 212
4.675 0.154 75.066 193 204 211
9.357 9.884 73.682 202 213 219
10.208 11.684 73.490 212 222 226
10.775 12.898 73.387 220 229 231
11.255 13.932 73.313 223 232 234
12.181 15.892 73.110 219 228 230
11.753 15.042 73.310 213 222 224
12.143 15.893 73.269 207 216 218
9.947 11.366 73.982 195 206 209
5.145 1.408 75.438 196 210 214
1.682 -5.774 76.488 187 201 204
0.184 -8.869 76.963 189 203 207
-4.267 -18.126 78.263 185 198 204
-5.156 -20.507 77.705 190 205 215
-2.804 -15.669 76.947 195 208 217
1.525 -6.772 75.540 209 220 226
1.017 -7.789 75.756 212 222 226
2.365 -4.995 75.359 211 219 222
2.621 -4.443 75.325 216 225 227
3.178 -3.270 75.195 214 223 225
4.849 0.195 74.709 208 217 221
6.517 3.657 74.231 214 223 228
3.818 -1.868 75.148 208 217 223
4.588 -0.253 74.959 207 216 223
4.898 0.417 74.917 199 209 216
5.571 1.836 74.765 199 210 217
5.952 2.652 74.705 205 213 218
8.159 7.244 74.088 218 225 228
8.196 7.354 74.142 224 231 232
8.465 7.946 74.125 226 233 234
8.288 7.614 74.243 230 237 237
9.421 9.996 73.971 220 227 228
10.648 12.574 73.677 218 226 228
12.195 15.818 73.296 213 225 227
7.841 6.827 74.632 198 211 214
6.774 4.646 75.003 193 206 210
3.788 -1.522 75.915 187 201 204
0.176 -8.999 76.991 187 200 204
-1.241 -11.921 77.434 197 210 216
-5.388 -20.527 78.630 192 205 213
-2.740 -15.652 76.911 192 208 215
1.497 -6.972 75.531 208 220 225
2.599 -4.694 75.212 218 226 229
2.688 -4.485 75.233 217 225 227
3.266 -3.274 75.094 218 226 229
1.635 -6.587 75.677 215 224 226
4.106 -1.495 74.927 220 229 231
3.192 -3.341 75.274 211 219 224
0.908 -8.002 76.054 204 212 219
-1.684 -13.300 76.921 196 208 215
0.983 -7.797 76.124 198 214 219
6.180 2.914 74.551 211 224 228
9.121 8.996 73.701 216 225 228
8.620 8.001 73.921 216 224 225
7.608 5.950 74.294 229 235 236
9.225 9.318 73.868 231 236 236
10.778 12.556 73.468 234 239 238
9.190 9.318 74.011 236 240 238
11.479 14.080 73.402 230 235 234
12.409 16.040 73.201 220 228 228
9.926 10.945 73.998 205 216 218
6.014 2.890 75.195 192 205 209
3.567 -2.143 75.955 192 205 211
4.073 -1.066 75.865 192 205 212
1.056 -7.290 76.769 191 204 212
-2.202 -14.020 77.726 191 204 212
-0.838 -11.872 76.297 203 217 223
2.472 -5.103 75.236 213 225 227
4.123 -1.709 74.739 221 230 230
6.267 2.697 74.088 226 233 234
7.130 4.488 73.865 222 228 231
2.165 -5.623 75.535 218 223 226
1.170 -7.630 75.905 210 217 220
-1.538 -13.145 76.817 203 214 219
-1.636 -13.323 76.889 195 210 218
-2.904 -15.899 77.330 189 205 214
-1.392 -12.780 76.895 194 209 217
6.744 3.927 74.411 226 237 242
11.462 13.637 73.018 226 233 234
10.522 11.747 73.377 228 233 232
9.356 9.388 73.800 234 239 238
11.878 14.609 73.108 232 236 235
15.539 22.176 72.087 232 236 235
13.413 17.846 72.798 232 236 235
13.160 17.364 72.949 226 230 229
12.883 16.835 73.106 215 223 225
7.400 5.571 74.768 194 204 211
5.956 2.625 75.245 190 202 210
5.991 2.728 75.295 188 201 210
5.316 1.366 75.545 193 206 214
2.532 -4.357 76.383 193 206 214
-1.206 -12.059 77.472 191 203 212
-3.157 -16.073 78.052 187 200 208
-1.270 -12.875 76.426 219 232 236
2.569 -5.055 75.185 222 231 231
4.430 -1.245 74.617 224 231 230
4.630 -0.808 74.605 230 237 235
6.263 2.544 74.125 230 237 236
8.870 7.883 73.336 229 235 236
2.760 -4.532 75.373 214 220 223
-0.114 -10.363 76.345 202 208 214
-3.517 -17.283 77.472 191 201 208
-5.085 -20.463 78.003 200 213 221
-2.457 -15.078 77.212 197 211 220
-2.158 -14.446 77.158 192 205 213
5.684 1.611 74.775 226 234 238
12.325 15.229 72.796 229 234 233
14.521 19.764 72.201 232 236 235
17.408 25.722 71.407 233 237 236
17.026 24.983 71.607 233 237 236
14.639 20.173 72.480 233 237 236
14.794 20.535 72.514 229 234 233
11.756 14.335 73.476 213 223 226
7.098 4.796 74.890 180 195 203
5.708 1.971 75.349 180 196 205
5.012 0.567 75.606 187 202 210
5.214 1.014 75.606 197 209 217
4.306 -0.827 75.917 206 217 224
3.073 -3.339 76.313 209 221 227
-2.895 -15.625 78.001 193 206 212
-4.745 -19.424 78.543 183 199 204
-6.903 -23.865 79.159 170 187 192
-5.375 -21.304 77.795 194 207 215
2.825 -4.683 75.080 220 230 233
4.855 -0.545 74.455 230 237 235
9.522 8.946 72.967 230 235 233
9.274 8.478 73.114 230 235 234
6.706 3.300 74.017 232 236 235
5.519 0.922 74.460 236 241 240
2.853 -4.467 75.374 209 215 217
-3.793 -17.952 77.545 191 199 204
-4.854 -20.056 77.984 195 207 216
-2.052 -14.327 77.149 198 209 218
4.129 -1.702 75.287 224 232 236
13.734 17.927 72.408 229 234 233
16.732 24.089 71.576 232 236 235
14.935 20.588 72.438 233 237 235
15.696 22.188 72.296 225 229 228
11.730 14.104 73.524 211 219 225
6.016 2.428 75.236 178 189 202
3.298 -3.117 76.068 177 187 202
-0.299 -10.474 77.136 177 187 201
1.750 -6.240 76.607 188 197 207
6.090 2.706 75.452 211 219 226
5.973 2.497 75.544 219 227 233
0.145 -9.465 77.194 204 212 217
0.486 -8.738 77.147 198 209 214
-2.255 -14.359 77.928 186 199 203
-5.359 -21.382 77.747 196 209 218
-4.159 -18.944 77.372 191 203 213
1.576 -7.354 75.481 210 220 229
5.302 0.196 74.285 224 232 236
8.510 6.706 73.278 232 236 235
9.905 9.560 72.882 231 235 233
7.538 4.807 73.722 232 236 235
8.975 7.747 73.317 233 237 236
4.241 -1.806 74.907 236 241 240
-0.557 -11.499 76.496 201 209 210
-6.453 -23.401 78.471 194 207 218
-0.210 -10.680 76.604 203 216 225
6.840 3.680 74.489 216 225 229
15.321 20.970 71.971 228 233 232
16.920 24.447 71.903 238 240 239
17.017 24.689 71.959 218 221 220
8.597 7.528 74.467 198 203 208
2.581 -4.739 76.250 177 185 195
1.912 -6.081 76.490 179 189 201
-1.171 -12.366 77.406 185 196 209
-0.965 -11.921 77.391 184 193 205
2.852 -4.076 76.379 201 209 219
5.543 1.471 75.694 219 228 236
3.486 -2.720 76.311 208 218 225
2.741 -4.221 76.565 202 216 220
-2.315 -14.581 77.966 182 198 201
-4.505 -19.062 78.586 176 192 195
-6.633 -24.095 78.055 195 211 219
-4.795 -20.393 77.444 189 204 212
-4.897 -20.581 77.512 189 203 211
-4.286 -19.338 77.335 191 204 212
-4.405 -19.558 77.409 188 200 209
-5.538 -21.818 77.827 189 200 208
0.045 -10.572 75.978 200 210 217
7.025 3.498 73.688 221 230 235
11.921 13.389 72.121 230 236 238
12.819 15.237 71.895 232 236 235
12.999 15.637 71.909 232 236 235
9.503 8.623 73.120 233 237 236
12.467 14.640 72.227 231 235 233
7.430 4.505 73.916 221 226 225
-3.008 -16.557 77.303 191 198 203
-6.235 -22.998 78.481 196 209 218
7.115 4.092 74.440 213 222 225
16.457 23.083 71.673 225 229 228
16.466 23.319 72.083 226 229 228
12.661 15.613 73.265 202 207 206
3.919 -2.163 75.844 178 185 189
-2.630 -15.489 77.759 174 184 193
-2.942 -16.104 77.886 173 184 195
-3.900 -18.039 78.192 177 188 199
-1.284 -12.677 77.503 183 192 203
-1.189 -12.461 77.519 183 191 200
4.873 -0.040 75.909 207 215 223
6.715 3.759 75.468 212 220 225
6.203 2.744 75.666 209 221 225
3.069 -3.646 76.558 196 211 215
-0.699 -11.345 77.603 180 198 201
-5.318 -21.553 77.584 189 208 218
-1.187 -13.279 76.175 200 217 227
-1.708 -14.299 76.396 198 213 223
-3.066 -16.995 76.903 192 206 217
0.525 -9.786 75.711 194 207 218
-1.997 -14.815 76.612 194 204 214
-0.851 -12.498 76.265 202 211 218
7.184 3.641 73.612 214 220 224
7.203 3.712 73.665 235 240 241
11.829 13.033 72.195 232 236 236
13.392 16.212 71.751 232 236 235
12.738 14.935 72.039 233 237 236
9.839 9.141 73.051 234 239 238
10.557 10.622 72.886 223 231 233
-2.019 -14.674 76.972 181 192 198
-5.569 -21.808 78.137 179 192 201
1.094 -8.258 76.257 223 236 242
10.699 11.194 73.388 221 230 232
17.565 25.217 71.557 234 239 238
9.661 9.307 74.102 196 204 204
6.525 2.972 75.071 180 191 193
-0.691 -11.662 77.189 169 182 188
-5.906 -22.228 78.739 170 182 196
-4.577 -19.504 78.400 170 180 196
-0.417 -11.012 77.287 179 189 199
4.674 -0.612 75.938 212 220 225
6.286 2.705 75.557 210 218 222
10.172 10.667 74.571 218 224 230
9.833 10.012 74.730 214 221 226
9.273 8.904 74.947 218 226 231
0.455 -9.091 77.324 187 199 205
-6.879 -24.069 79.274 171 187 195
-2.649 -16.271 76.745 194 208 221
-4.378 -19.702 77.376 185 197 210
0.508 -9.928 75.745 196 206 218
5.128 -0.673 74.226 212 222 229
5.729 0.558 74.079 216 225 228
12.027 13.187 72.032 225 232 232
11.415 11.999 72.305 234 239 238
15.245 19.705 71.113 232 235 234
12.459 14.164 72.102 233 236 235
11.567 12.413 72.464 235 238 237
9.249 7.797 73.282 234 239 238
8.189 5.703 73.686 215 223 226
-1.743 -14.214 76.908 191 202 211
2.065 -6.413 75.988 224 238 244
6.636 2.835 74.656 229 239 242
18.213 26.230 71.242 229 235 236
15.935 21.675 72.006 222 227 226
17.068 24.008 71.752 222 227 226
16.089 22.072 72.123 214 220 221
14.861 19.630 72.562 204 212 215
8.803 7.407 74.388 191 204 207
0.547 -9.280 76.816 150 168 173
-4.956 -20.409 78.424 151 170 182
-1.508 -13.335 77.611 176 189 202
7.080 4.144 75.313 219 230 237
7.180 4.380 75.348 212 220 224
9.284 8.694 74.846 219 226 229
9.239 8.637 74.925 215 222 226
8.877 7.936 75.087 222 231 236
2.581 -4.867 76.794 196 208 215
-3.628 -17.508 78.450 181 196 204
-5.040 -21.117 77.591 178 190 203
-4.246 -19.519 77.352 190 202 213
-0.138 -11.322 75.992 199 210 219
4.666 -1.726 74.416 212 219 224
8.731 6.409 73.109 227 231 233
8.941 6.860 73.102 232 236 236
12.865 14.727 71.869 232 236 235
11.446 11.930 72.407 234 237 236
11.793 12.660 72.363 237 239 239
12.773 14.657 72.116 239 240 239
10.247 9.640 73.000 236 238 238
6.159 1.489 74.371 206 213 216
-5.868 -22.574 78.239 185 198 204
3.105 -4.413 75.753 221 231 238
15.317 20.195 72.157 227 234 237
12.527 14.655 73.136 212 219 220
16.497 22.698 72.050 205 214 215
10.283 10.204 73.932 194 205 207
3.519 -3.414 75.942 162 179 181
-2.118 -14.774 77.601 145 167 171
-3.133 -16.727 78.078 166 183 201
-0.267 -10.897 77.338 182 197 207
4.792 -0.611 76.023 197 208 214
8.438 6.817 75.108 218 225 228
7.575 5.099 75.400 214 220 222
8.636 7.288 75.185 226 233 236
5.065 0.060 76.177 213 222 225
-0.629 -11.495 77.698 194 205 209
-6.646 -24.351 78.217 192 203 212
0.599 -9.936 75.814 207 214 219
4.854 -1.453 74.441 218 222 223
7.970 4.775 73.463 228 233 232
6.509 1.898 74.004 234 239 238
10.579 10.038 72.732 229 232 231
11.146 11.202 72.616 222 224 224
11.327 11.598 72.626 225 229 230
10.064 9.114 73.099 219 226 229
-1.141 -13.224 76.725 190 201 206
7.621 4.558 74.491 208 219 223
9.302 7.967 74.056 203 214 216
10.019 9.441 73.912 201 212 214
12.670 14.806 73.209 196 207 211
8.360 6.174 74.524 184 197 203
-0.221 -11.071 77.041 152 173 180
-5.243 -21.165 78.510 139 166 175
-6.152 -22.916 78.920 161 178 199
0.833 -8.778 77.066 186 203 215
4.686 -0.961 76.082 202 217 224
8.070 5.918 75.240 218 229 233
9.421 8.688 74.948 221 230 232
6.878 3.570 75.678 219 226 227
5.770 1.355 76.025 221 227 228
3.138 -3.955 76.757 203 210 213
-0.979 -12.286 77.854 189 200 204
-6.714 -24.539 78.286 205 216 219
0.717 -9.764 75.892 220 229 229
-1.819 -14.776 76.767 230 239 240
5.904 0.588 74.294 222 230 230
-2.614 -16.314 77.103 183 190 191
-0.890 -12.867 76.587 204 211 214
-3.237 -17.327 77.741 191 202 211
-1.999 -14.827 77.414 184 194 200
-3.808 -18.432 77.980 177 188 193
1.273 -8.225 76.547 163 182 186
-2.269 -15.307 77.610 143 169 175
-2.677 -15.967 78.034 179 196 208
6.362 2.289 75.665 214 227 232
8.993 7.630 75.031 226 235 235
9.800 9.294 74.885 222 230 230
8.481 6.664 75.295 220 227 228
7.011 3.726 75.737 222 228 229
4.293 -1.742 76.491 219 226 227
1.945 -6.468 77.138 204 214 215
-1.708 -13.843 78.101 196 210 211
-5.603 -22.347 78.056 207 216 220
-4.315 -19.351 78.492 170 186 205
2.600 -5.421 76.694 194 207 216
8.401 6.283 75.221 226 235 235
7.812 5.129 75.439 224 231 229
9.099 7.757 75.169 225 232 231
8.460 6.501 75.399 224 231 230
6.566 2.712 75.943 225 232 233
7.663 4.960 75.728 228 235 237
3.819 -2.774 76.747 216 225 228
-3.903 -18.590 78.437 181 197 210
1.950 -6.821 76.942 202 217 225
6.685 2.716 75.764 226 237 241
3.971 -2.707 76.521 232 239 240
4.504 -1.608 76.440 235 241 241
3.857 -2.882 76.658 234 241 242
8.803 7.105 75.476 229 235 238
4.797 -0.932 76.533 215 221 226
-2.330 -15.270 78.338 187 196 201
-5.468 -21.805 78.867 189 202 216
-3.658 -18.165 78.428 195 208 217
2.174 -6.463 76.960 210 221 228
5.741 0.713 76.097 214 222 230
4.756 -1.232 76.405 209 216 222
2.852 -5.025 76.939 212 219 224
2.954 -4.794 76.965 214 220 227
0.057 -10.588 77.730 202 208 218
-6.333 -23.606 79.110 197 209 220
-5.284 -21.496 78.868 193 206 216
-5.287 -21.487 78.902 200 213 222
-0.675 -12.249 77.760 196 209 218
-4.443 -19.763 78.753 198 209 219
-4.501 -19.862 78.802 204 212 223
-6.167 -23.182 79.249 187 194 206
-5.727 -22.423 79.062 184 199 209
