ply
format ascii 1.0
element vertex 2963
property float x
property float y
property float z
property uchar red
property uchar green
property uchar blue
end_header
-7.094 32.263 -19.152 64 65 103
-7.005 31.958 -19.394 126 130 159
-6.594 36.436 -19.383 177 179 220
-6.981 32.444 -19.230 116 118 168
-7.905 22.714 -19.002 169 175 224
-8.166 20.024 -18.891 189 199 242
-6.826 34.914 -18.643 109 119 127
-6.367 37.391 -19.756 117 120 123
-7.713 23.448 -19.384 125 131 137
-7.487 25.908 -19.354 133 140 155
-7.388 27.053 -19.295 120 127 150
-7.271 28.389 -19.237 141 147 174
-7.479 26.300 -19.123 159 166 192
-8.897 11.484 -18.831 217 227 245
-8.564 15.070 -18.816 200 212 226
-7.955 21.594 -18.828 200 212 231
-7.924 22.020 -18.758 183 194 219
-7.083 31.018 -18.771 147 159 180
-7.071 31.263 -18.689 150 162 178
-7.911 22.450 -18.538 155 167 183
-7.174 30.390 -18.513 127 137 153
-6.876 30.868 -19.861 187 193 196
-7.294 26.997 -19.444 136 143 166
-7.386 26.143 -19.348 138 145 169
-8.426 15.476 -19.080 212 219 240
-8.332 16.538 -19.031 217 224 241
-7.921 20.895 -19.029 212 220 234
-8.673 13.167 -18.846 207 218 231
-8.813 11.793 -18.764 205 220 232
-8.843 11.562 -18.698 201 217 229
-8.781 12.289 -18.644 181 196 208
-7.637 24.344 -18.696 135 149 161
-8.072 19.881 -18.581 103 116 129
-8.486 15.630 -18.478 86 97 112
-8.035 20.459 -18.441 80 89 105
-6.398 37.911 -18.362 81 87 97
-7.559 25.778 -18.237 82 90 91
-6.337 38.805 -18.178 62 71 64
-6.089 37.882 -20.114 144 153 153
-6.320 35.653 -19.967 124 133 136
-6.604 33.218 -19.557 97 111 133
-7.710 22.031 -19.261 142 159 182
-8.409 14.965 -19.062 218 239 255
-7.874 20.541 -19.087 172 192 205
-8.087 18.447 -18.982 157 174 182
-7.924 20.206 -18.936 150 166 175
-8.251 16.939 -18.822 149 164 177
-8.214 17.411 -18.759 152 166 179
-8.858 10.845 -18.620 181 196 208
-8.159 18.156 -18.627 171 185 199
-7.547 24.579 -18.610 96 109 124
-7.131 29.000 -18.564 112 123 140
-6.909 31.635 -18.326 87 95 107
-6.932 31.502 -18.241 77 86 88
-6.028 37.684 -20.004 104 115 119
-7.041 27.834 -19.521 154 166 171
-7.591 22.389 -19.332 185 194 196
-7.746 20.918 -19.230 198 207 208
-8.252 15.885 -19.070 191 200 200
-7.811 20.449 -19.076 180 188 187
-7.419 24.513 -19.064 187 196 197
-8.270 15.965 -18.868 200 213 223
-8.433 14.389 -18.780 184 200 219
-7.855 20.365 -18.783 152 169 184
-8.516 13.707 -18.641 160 175 185
-6.688 32.483 -18.750 97 110 123
-6.395 35.589 -18.689 112 124 139
-8.028 18.965 -18.483 165 175 189
-6.274 37.064 -18.517 121 129 141
-6.117 35.551 -20.212 134 142 149
-5.931 37.507 -20.173 115 124 131
-7.433 22.748 -19.708 128 136 144
-8.132 15.915 -19.467 166 175 182
-7.427 22.999 -19.562 183 189 196
-6.733 29.997 -19.639 199 203 209
-8.698 10.523 -19.153 219 223 227
-8.572 11.862 -19.117 219 223 224
-7.978 17.869 -19.164 225 229 229
-8.796 9.780 -18.956 218 222 221
-8.408 13.737 -18.958 202 206 204
-8.187 16.042 -18.928 235 240 239
-8.526 12.716 -18.814 231 241 244
-8.660 11.453 -18.734 226 241 249
-7.295 25.283 -18.830 134 150 158
-7.353 24.791 -18.746 169 184 192
-8.119 17.156 -18.599 191 206 218
-7.669 21.796 -18.567 113 128 143
-7.873 19.822 -18.479 150 162 176
-8.320 15.377 -18.382 156 167 178
-6.657 32.357 -18.392 85 93 107
-7.730 21.731 -18.121 122 126 138
-6.702 28.862 -20.099 156 160 168
-6.211 33.760 -20.151 144 147 155
-5.994 35.997 -20.121 134 136 145
-6.690 29.289 -19.862 125 127 136
-6.324 32.976 -19.867 131 132 141
-7.609 20.466 -19.494 171 172 179
-7.219 24.396 -19.506 169 171 175
-8.187 14.957 -19.235 178 179 182
-8.054 16.354 -19.196 225 227 229
-8.272 14.285 -19.090 236 239 240
-8.240 14.679 -19.031 235 240 239
-8.889 8.337 -18.864 231 235 234
-8.558 11.689 -18.854 198 202 201
-8.359 13.750 -18.820 196 205 202
-8.823 9.210 -18.698 216 230 227
-7.959 17.897 -18.736 145 160 161
-8.522 12.365 -18.610 177 193 198
-8.495 12.717 -18.550 179 195 201
-7.739 20.357 -18.546 120 136 141
-7.989 17.947 -18.457 144 159 162
-7.623 21.700 -18.408 155 168 170
-6.623 31.841 -18.378 121 131 140
-7.153 26.711 -18.195 98 102 120
-6.878 29.594 -18.118 91 94 111
-6.516 29.769 -20.198 133 138 145
-6.286 32.195 -20.096 146 147 162
-6.905 26.308 -19.856 153 151 172
-7.179 23.759 -19.713 140 138 159
-6.665 28.830 -19.756 109 108 128
-7.047 25.324 -19.516 126 127 147
-7.648 19.568 -19.320 177 180 191
-8.093 15.317 -19.167 189 196 197
-8.326 13.114 -19.060 143 151 149
-7.714 19.180 -19.098 167 174 172
-8.654 10.068 -18.883 234 241 240
-8.504 11.613 -18.845 220 227 226
-8.245 14.228 -18.817 207 213 213
-8.502 11.789 -18.721 208 214 215
-7.769 19.084 -18.740 153 164 165
-7.992 16.972 -18.647 167 183 184
-7.762 19.323 -18.599 155 171 172
-6.828 28.656 -18.599 142 158 159
-8.534 11.858 -18.408 160 175 177
-7.058 26.578 -18.424 128 141 143
-6.676 30.464 -18.360 141 153 154
-7.724 20.151 -18.244 131 140 143
-7.871 18.770 -18.169 119 125 135
-7.116 26.396 -18.104 118 123 140
-6.783 29.814 -18.023 122 127 145
-7.415 23.598 -17.950 104 109 126
-6.838 25.907 -20.073 142 148 146
-6.738 27.052 -19.946 145 146 157
-7.552 19.361 -19.665 140 140 163
-7.307 21.794 -19.654 143 142 171
-7.057 24.284 -19.638 117 116 148
-5.746 36.975 -19.846 86 89 122
-5.987 34.765 -19.707 117 125 155
-6.707 27.937 -19.479 140 154 176
-7.937 16.177 -19.174 160 177 189
-7.740 18.162 -19.142 124 136 140
-7.675 18.874 -19.083 140 147 146
-7.847 17.295 -18.987 163 169 167
-7.403 21.688 -18.981 179 186 184
-8.462 11.495 -18.772 196 201 200
-8.380 12.362 -18.720 177 182 180
-7.764 18.446 -18.723 141 150 149
-7.809 18.087 -18.649 179 193 192
-7.319 22.955 -18.621 152 166 166
-7.483 21.448 -18.534 146 160 161
-8.599 10.611 -18.391 169 182 182
-7.555 20.920 -18.383 106 118 117
-7.992 16.723 -18.293 161 171 171
-8.015 16.575 -18.224 136 145 147
-7.704 19.721 -18.161 114 124 130
-7.781 19.054 -18.089 145 155 166
-7.080 26.062 -18.014 97 107 122
-6.453 32.474 -17.837 124 130 152
-7.337 20.463 -19.904 152 161 155
-5.651 36.460 -20.280 115 122 116
-7.795 16.315 -19.646 196 204 195
-6.978 24.117 -19.779 158 165 159
-7.612 18.211 -19.556 165 171 186
-7.001 24.084 -19.623 108 114 149
-7.627 18.230 -19.415 121 129 169
-7.751 17.137 -19.322 167 180 213
-7.891 15.887 -19.227 181 198 214
-7.113 23.393 -19.301 110 129 127
-6.087 33.288 -19.400 133 146 142
-8.523 10.090 -18.928 209 216 214
-7.490 20.057 -19.021 161 167 165
-7.091 23.974 -19.004 157 162 161
-7.406 21.042 -18.889 133 137 136
-5.789 36.681 -19.002 118 122 121
-6.579 29.179 -18.829 165 170 169
-8.233 13.327 -18.593 168 172 171
-8.365 12.129 -18.519 170 176 176
-8.581 10.116 -18.441 218 225 226
-8.538 10.606 -18.383 212 219 219
-8.219 13.779 -18.337 202 209 207
-8.353 12.550 -18.267 177 184 186
-7.619 19.767 -18.223 106 114 119
-7.057 25.327 -18.160 123 133 138
-7.584 20.285 -18.080 183 194 201
-6.412 31.825 -17.999 89 99 114
-7.361 22.738 -17.855 132 141 166
-6.918 27.174 -17.761 116 125 150
-7.925 14.231 -19.779 212 221 219
-8.139 12.315 -19.657 209 219 215
-7.478 18.554 -19.768 170 179 175
-7.688 16.674 -19.646 187 197 190
-6.782 25.235 -19.797 149 158 154
-7.089 22.449 -19.650 130 138 151
-7.481 18.860 -19.491 144 151 181
-8.167 12.500 -19.279 167 173 208
-7.708 16.893 -19.307 164 170 201
-6.693 26.546 -19.430 132 140 155
-8.283 11.784 -18.948 218 222 219
-8.390 10.843 -18.870 215 220 218
-8.468 10.180 -18.799 215 220 219
-8.613 8.875 -18.721 219 222 220
-7.259 21.830 -18.814 167 170 167
-5.943 34.454 -18.874 145 147 146
-7.822 16.637 -18.616 212 215 214
-8.474 10.487 -18.496 233 236 235
-8.537 9.963 -18.431 185 190 189
-8.086 14.356 -18.397 184 190 189
-8.346 11.941 -18.319 213 220 221
-8.310 12.358 -18.258 205 214 216
-8.045 14.983 -18.201 138 149 153
-7.551 19.818 -18.141 134 145 151
-7.922 16.327 -18.068 185 196 203
-7.289 22.528 -17.995 88 103 110
-6.678 28.527 -17.908 97 115 124
-7.191 23.653 -17.841 114 130 148
-5.862 36.644 -17.709 58 72 96
-7.984 13.079 -19.736 196 208 205
-7.551 17.154 -19.789 177 189 186
-8.099 12.174 -19.581 175 187 184
-8.053 12.670 -19.531 183 193 191
-7.939 13.803 -19.495 176 184 187
-7.195 20.775 -19.600 118 125 142
-7.288 20.002 -19.508 122 126 156
-7.552 17.630 -19.383 129 131 164
-6.277 29.577 -19.563 93 92 124
-7.160 21.709 -19.101 167 169 175
-8.599 8.307 -18.824 184 186 192
-7.488 18.807 -18.911 153 155 161
-8.381 10.494 -18.734 212 213 217
-8.208 12.198 -18.692 217 216 219
-8.291 11.497 -18.621 168 169 170
-8.121 13.168 -18.574 236 238 238
-8.304 11.515 -18.496 236 238 237
-7.879 15.611 -18.462 182 184 184
-8.145 13.169 -18.381 176 180 180
-8.292 11.856 -18.310 202 209 209
-8.046 14.271 -18.256 161 168 171
-8.386 11.115 -18.182 163 170 175
-7.528 19.355 -18.131 134 142 148
-7.193 22.644 -18.060 128 139 146
-7.246 22.221 -17.985 96 109 117
-6.748 27.075 -17.900 95 110 118
-7.091 23.888 -17.830 120 135 145
-6.903 25.785 -17.745 69 84 94
-5.903 35.486 -17.611 96 106 117
-7.477 17.115 -19.848 153 168 176
-7.205 19.674 -19.852 125 142 144
-7.157 20.199 -19.795 124 140 136
-7.481 17.318 -19.645 155 168 167
-7.395 18.191 -19.598 171 180 182
-7.785 14.691 -19.443 145 153 153
-7.960 13.163 -19.341 151 158 156
-7.157 20.626 -19.440 132 136 139
-5.905 32.244 -19.607 123 124 135
-6.076 30.769 -19.491 132 133 151
-8.081 12.496 -18.942 216 217 228
-7.230 20.465 -18.997 158 159 167
-6.537 26.978 -19.014 137 138 145
-7.825 15.100 -18.784 180 180 187
-8.092 12.694 -18.689 171 171 177
-7.927 14.308 -18.642 169 168 174
-8.077 12.986 -18.564 184 184 188
-8.574 8.414 -18.463 231 232 235
-7.526 18.296 -18.472 166 168 170
-7.600 17.681 -18.398 143 145 146
-7.947 14.501 -18.314 151 153 155
-8.041 13.695 -18.245 139 143 146
-7.760 16.416 -18.186 105 112 117
-6.377 29.537 -18.132 116 125 130
-6.944 24.287 -18.049 116 127 131
-7.538 18.757 -17.979 137 147 154
-7.518 19.033 -17.907 151 159 169
-6.854 25.411 -17.814 120 128 138
-5.606 37.453 -17.587 92 100 110
-7.128 19.638 -19.914 152 169 181
-5.781 31.891 -20.193 108 123 128
-7.343 17.867 -19.721 123 134 132
-7.747 14.286 -19.556 185 196 192
-6.376 26.792 -19.805 120 129 127
-6.754 23.458 -19.645 116 124 121
-7.917 12.972 -19.328 149 157 153
-7.895 13.240 -19.269 185 191 190
-8.038 12.018 -19.180 194 199 202
-7.193 19.801 -19.267 173 176 184
-7.930 13.220 -19.010 209 210 220
-7.892 13.650 -18.952 236 237 244
-8.361 9.419 -18.824 216 218 221
-7.039 21.636 -18.931 154 156 158
-7.804 14.686 -18.769 183 184 188
-7.916 13.724 -18.692 182 181 188
-7.842 14.481 -18.635 184 183 190
-7.144 21.007 -18.627 135 134 141
-8.483 8.706 -18.457 212 211 220
-8.377 9.758 -18.405 172 171 181
-7.551 17.491 -18.387 139 138 143
-6.642 26.016 -18.355 133 133 133
-7.976 13.704 -18.236 184 185 185
-8.185 11.835 -18.167 164 166 165
-5.738 34.720 -18.126 117 119 118
-6.510 27.614 -18.038 126 129 128
-6.934 23.749 -17.962 126 128 133
-7.301 20.399 -17.894 175 178 189
-6.981 23.483 -17.810 112 117 127
-5.704 35.672 -17.585 76 81 89
-6.110 28.087 -20.155 146 163 178
-6.675 23.127 -19.932 135 149 155
-7.911 12.159 -19.556 189 201 198
-7.701 14.108 -19.543 209 220 217
-6.018 29.287 -19.857 133 145 142
-6.448 25.514 -19.683 120 132 128
-7.632 14.959 -19.365 154 166 161
-7.648 14.885 -19.296 164 176 172
-7.856 13.092 -19.193 170 182 179
-6.821 22.509 -19.310 117 125 122
-7.069 20.433 -19.123 153 157 154
-8.331 9.076 -18.871 227 232 228
-8.478 7.812 -18.793 225 229 228
-8.741 5.490 -18.703 219 223 224
-8.018 12.133 -18.729 176 180 185
-7.749 14.662 -18.694 166 170 178
-8.095 11.573 -18.597 179 181 192
-8.496 7.984 -18.502 204 206 217
-7.758 14.801 -18.496 142 142 155
-7.633 16.027 -18.438 180 179 191
-8.442 8.682 -18.330 191 190 196
-6.573 25.921 -18.344 91 91 91
-6.450 27.145 -18.269 125 126 125
-7.345 18.997 -18.172 141 144 143
-6.648 25.509 -18.106 110 113 110
-7.867 14.335 -18.031 146 149 146
-7.745 15.540 -17.964 153 156 163
-8.181 11.576 -17.907 189 192 207
-7.333 19.518 -17.814 104 108 121
-6.211 30.022 -17.691 116 120 128
-5.510 36.635 -17.566 81 82 91
-5.782 34.207 -17.493 94 93 103
-7.283 17.082 -19.750 135 142 149
-7.820 12.403 -19.554 197 204 203
-7.515 15.174 -19.562 180 190 186
-5.220 35.637 -20.004 125 137 134
-7.761 13.140 -19.380 174 186 183
-7.769 13.143 -19.315 175 187 184
-7.649 14.283 -19.275 188 199 197
-7.169 18.644 -19.297 166 177 175
-7.192 18.520 -19.223 121 130 128
-6.653 23.513 -19.165 166 171 172
-8.071 10.877 -18.891 204 208 211
-7.006 20.514 -18.969 132 137 139
-7.257 18.336 -18.867 130 136 137
-7.973 11.973 -18.719 182 191 196
-7.734 14.196 -18.680 168 179 188
-7.826 13.441 -18.606 136 147 157
-7.842 13.374 -18.541 176 187 196
-7.996 12.054 -18.466 165 172 179
-7.475 16.843 -18.434 191 195 199
-8.251 9.875 -18.328 206 210 212
-8.400 8.596 -18.262 187 192 193
-7.692 15.105 -18.222 201 206 206
-7.758 14.578 -18.154 191 195 194
-7.443 17.536 -18.090 174 180 177
-7.792 14.419 -18.022 158 165 161
-8.246 10.342 -17.963 199 207 203
-8.357 9.393 -17.905 198 205 204
-7.375 18.476 -17.808 108 114 120
-6.088 30.387 -17.677 123 126 142
-5.242 34.153 -20.401 143 144 158
-5.174 34.844 -20.332 107 110 123
-6.562 22.787 -19.902 98 101 110
-7.217 17.127 -19.673 164 168 172
-7.508 14.650 -19.540 165 173 175
-5.891 28.946 -19.826 105 116 118
-7.942 10.979 -19.320 167 178 180
-6.974 19.583 -19.451 139 150 152
-8.132 9.441 -19.163 206 218 220
-7.998 10.697 -19.128 180 191 193
-7.825 12.299 -19.096 159 168 168
-7.107 18.725 -19.147 126 133 132
-7.851 12.212 -18.967 200 205 205
-7.841 12.367 -18.906 199 203 207
-6.481 24.535 -19.016 138 143 148
-7.189 18.316 -18.857 174 180 188
-7.876 12.272 -18.714 192 203 212
-7.746 13.504 -18.663 152 167 177
-7.372 16.918 -18.631 96 109 119
-7.097 19.460 -18.584 112 123 132
-8.301 8.749 -18.433 202 211 217
-8.206 9.674 -18.379 195 204 207
-8.157 10.176 -18.321 166 174 175
-8.423 7.851 -18.251 187 193 194
-7.740 14.071 -18.210 170 177 177
-7.677 14.718 -18.145 173 183 180
-7.792 13.755 -18.079 153 165 162
-7.831 13.478 -18.014 149 163 160
-8.012 11.907 -17.952 175 187 183
-7.471 16.892 -17.874 159 169 166
-6.944 21.757 -17.785 130 137 143
-6.170 28.878 -17.673 140 146 158
-4.857 36.714 -20.467 137 144 154
-4.849 36.886 -20.380 108 116 126
-4.774 37.639 -20.308 117 122 137
-6.654 21.415 -19.779 150 153 171
-6.662 21.430 -19.705 124 131 141
-6.988 18.677 -19.563 138 149 151
-7.801 11.666 -19.328 182 193 194
-6.182 25.868 -19.581 91 102 104
-7.889 11.044 -19.189 189 200 202
-7.795 11.935 -19.144 156 168 170
-8.123 9.131 -19.028 208 216 216
-7.531 14.388 -19.061 233 237 236
-8.296 7.748 -18.885 227 231 232
-7.833 11.877 -18.890 201 206 209
-7.358 16.130 -18.887 184 189 193
-7.909 11.355 -18.757 211 218 221
-7.831 12.108 -18.703 157 167 172
-6.725 21.961 -18.745 130 143 149
-6.720 22.082 -18.671 115 125 130
-6.202 26.763 -18.636 119 126 129
-7.862 12.121 -18.449 194 199 200
-8.132 9.789 -18.372 207 212 211
-8.345 7.967 -18.302 195 199 198
-7.756 13.275 -18.264 190 194 193
-7.595 14.787 -18.203 142 149 149
-7.797 13.055 -18.134 145 156 156
-8.261 8.976 -18.068 175 192 191
-8.020 11.201 -18.007 159 179 177
-8.222 9.459 -17.948 156 174 172
-7.686 14.340 -17.872 155 168 167
-7.439 16.641 -17.797 154 165 166
-6.277 27.172 -17.671 151 160 160
-6.751 22.993 -17.618 152 160 156
-6.430 25.973 -17.519 233 241 232
-5.533 30.142 -20.256 114 120 125
-5.942 26.729 -20.073 100 109 113
-6.161 24.931 -19.942 122 128 133
-6.599 21.252 -19.765 119 121 127
-6.217 24.624 -19.777 99 100 108
-5.009 35.116 -19.955 112 114 125
-7.391 14.666 -19.389 186 191 207
-6.450 22.870 -19.504 165 173 191
-7.770 11.535 -19.191 205 214 229
-7.968 9.884 -19.095 198 206 215
-7.870 10.806 -19.051 179 185 189
-8.182 8.161 -18.943 178 180 179
-7.977 10.011 -18.914 194 196 195
-7.664 12.803 -18.895 208 210 210
-7.930 10.558 -18.800 199 202 202
-7.170 17.254 -18.824 183 187 188
-7.351 15.751 -18.737 169 177 182
-8.288 7.630 -18.584 192 203 210
-8.234 8.164 -18.530 199 211 214
-8.093 9.472 -18.482 208 219 219
-8.055 9.865 -18.425 230 238 237
-8.287 7.893 -18.352 228 233 232
-8.246 8.323 -18.296 195 199 198
-8.200 8.792 -18.238 214 219 218
-7.833 12.098 -18.187 180 185 186
-7.605 14.184 -18.126 154 161 164
-7.607 14.245 -18.061 168 182 182
-7.529 15.009 -17.994 134 155 152
-6.980 19.950 -17.917 148 165 168
-6.966 20.157 -17.844 139 153 159
-7.373 16.619 -17.787 166 180 182
-7.129 18.868 -17.706 166 180 177
-7.079 19.397 -17.631 155 166 159
-7.521 15.529 -17.590 194 201 193
-5.923 29.891 -17.393 146 151 142
-5.116 33.052 -20.245 102 111 116
-5.302 31.566 -20.116 106 113 118
-6.224 23.819 -19.823 112 116 122
-6.328 23.012 -19.726 105 109 115
-7.071 16.834 -19.430 176 182 196
-7.461 13.573 -19.290 206 213 234
-6.468 22.144 -19.403 145 152 177
-7.404 14.203 -19.172 164 171 194
-7.862 10.341 -19.034 170 175 189
-6.822 19.354 -19.129 132 134 138
-7.820 10.843 -18.919 197 198 199
-8.020 9.180 -18.832 221 223 222
-7.658 12.377 -18.816 218 221 220
-8.245 7.367 -18.689 218 222 221
-7.793 11.344 -18.677 167 175 175
-7.873 10.720 -18.608 176 188 187
-7.940 10.204 -18.541 172 183 182
-7.998 9.775 -18.476 176 185 183
-8.393 6.405 -18.392 209 216 214
-8.089 9.111 -18.351 157 162 161
-7.271 16.313 -18.324 140 144 143
-8.189 8.368 -18.229 215 220 219
-8.031 9.813 -18.173 220 224 225
-7.656 13.170 -18.116 180 185 186
-7.770 12.243 -18.052 172 180 180
-7.012 18.959 -17.980 119 131 130
-6.958 19.512 -17.908 154 166 165
-7.102 18.328 -17.840 154 165 165
-7.602 13.995 -17.790 181 192 191
-7.318 16.579 -17.709 159 170 168
-6.478 24.069 -17.589 138 148 146
-7.334 16.584 -17.572 179 186 184
-5.880 29.533 -17.385 142 145 141
-4.529 37.252 -20.354 130 134 140
-5.353 30.418 -20.073 117 123 128
-4.958 33.836 -20.078 102 111 114
-7.845 9.707 -19.258 170 177 182
-6.698 19.484 -19.410 156 164 171
-5.337 31.106 -19.578 89 98 107
-6.151 24.288 -19.359 110 118 130
-7.545 12.519 -19.066 145 150 164
-6.725 19.564 -19.123 119 122 135
-8.015 8.652 -18.876 185 187 196
-7.788 10.654 -18.846 168 170 174
-5.639 29.084 -19.037 149 150 152
-7.386 14.229 -18.767 178 180 179
-7.779 10.931 -18.664 168 175 175
-7.954 9.495 -18.587 188 199 201
-7.838 10.557 -18.536 152 164 165
-7.882 10.249 -18.472 161 172 172
-8.319 6.553 -18.386 225 233 234
-7.589 12.910 -18.364 186 191 192
-7.659 12.372 -18.297 177 181 181
-8.117 8.488 -18.221 222 227 226
-8.370 6.359 -18.157 221 226 227
-7.601 13.087 -18.107 159 164 167
-8.106 8.774 -18.043 178 184 187
-7.138 17.251 -17.973 126 133 136
-7.458 14.544 -17.910 146 152 162
-7.493 14.310 -17.845 166 171 186
-7.196 16.969 -17.766 167 176 183
-6.861 19.972 -17.680 138 149 149
-6.354 24.482 -17.575 97 104 109
-5.037 36.091 -17.402 67 68 79
-4.554 36.273 -20.314 127 135 142
-5.212 30.981 -19.991 111 122 124
-4.349 38.380 -19.997 188 197 200
-7.399 12.935 -19.323 215 230 231
-8.063 7.429 -19.140 206 227 227
-5.278 30.887 -19.562 113 129 130
-5.979 25.168 -19.287 141 148 151
-8.244 6.151 -18.885 219 226 229
-7.159 15.376 -18.974 153 158 161
-7.143 15.578 -18.910 134 138 142
-6.446 21.556 -18.923 152 155 159
-7.607 11.863 -18.666 180 186 191
-7.974 8.816 -18.572 223 232 237
-7.778 10.543 -18.528 175 184 188
-7.496 13.015 -18.485 115 124 126
-8.096 7.967 -18.387 210 217 219
-7.921 9.527 -18.337 202 207 208
-8.321 6.175 -18.262 207 212 211
-7.893 9.892 -18.217 239 243 242
-8.033 8.759 -18.154 218 222 223
-7.704 11.647 -18.097 180 185 188
-7.832 10.621 -18.034 160 166 172
-6.961 18.177 -17.962 109 118 125
-7.513 13.494 -17.904 146 155 166
-6.737 20.256 -17.813 141 149 163
-5.987 26.815 -17.708 93 102 117
-6.770 20.131 -17.668 70 80 94
-5.080 34.834 -17.490 119 125 139
-4.723 38.030 -17.373 169 170 184
-4.743 37.952 -17.281 83 82 89
-4.289 37.708 -20.342 99 106 123
-5.226 30.161 -19.958 152 165 174
-5.953 24.232 -19.726 156 173 177
-6.424 20.405 -19.557 126 146 146
-6.798 17.380 -19.415 180 201 201
-7.799 9.145 -19.169 193 214 214
-5.693 26.721 -19.466 112 125 126
-5.015 32.455 -19.495 147 154 157
-7.248 13.928 -19.074 207 213 216
-7.440 12.398 -18.983 205 212 215
-7.665 10.584 -18.890 199 205 208
-7.203 14.518 -18.886 173 178 181
-8.076 7.267 -18.722 198 202 206
-6.757 18.399 -18.800 184 188 192
-7.776 9.918 -18.636 212 217 221
-8.102 7.237 -18.548 224 231 234
-8.117 7.174 -18.490 192 198 201
-7.169 15.224 -18.493 171 175 179
-6.419 21.631 -18.467 128 131 135
-6.868 17.919 -18.373 143 144 149
-7.914 9.142 -18.267 165 168 171
-7.761 10.499 -18.211 185 189 191
-8.106 7.641 -18.144 205 212 212
-8.103 7.724 -18.086 193 202 202
-7.664 11.527 -18.025 150 159 161
-7.505 12.948 -17.960 178 187 191
-7.647 11.799 -17.899 155 163 171
-6.851 18.665 -17.809 116 124 136
-7.120 16.444 -17.750 174 187 199
-6.179 24.574 -17.631 101 118 130
-6.686 20.306 -17.584 105 120 132
-7.091 16.915 -17.541 146 156 168
-4.581 34.557 -20.241 86 102 119
-4.812 32.853 -20.017 100 125 142
-5.289 29.035 -19.835 120 148 165
-5.041 31.159 -19.802 90 118 134
-6.939 15.649 -19.367 180 209 219
-5.146 30.475 -19.615 101 128 131
-6.387 20.346 -19.326 139 156 157
-6.816 16.878 -19.187 193 199 200
-7.235 13.496 -19.058 183 189 189
-7.667 9.990 -18.934 215 221 222
-7.709 9.708 -18.868 212 218 219
-7.744 9.483 -18.804 179 184 185
-7.780 9.246 -18.741 220 224 225
-7.770 9.391 -18.682 216 221 220
-7.976 7.744 -18.604 211 215 213
-7.877 8.626 -18.554 219 224 220
-8.195 6.043 -18.472 210 214 214
-7.351 13.146 -18.468 193 197 201
-7.013 16.042 -18.422 181 186 191
-7.630 10.951 -18.328 184 191 196
-6.994 16.344 -18.287 128 135 141
-7.300 13.853 -18.212 155 162 167
-7.592 11.466 -18.142 200 207 210
-8.124 7.060 -18.077 191 198 199
-7.786 9.967 -18.018 216 219 222
-7.868 9.343 -17.958 232 234 238
-7.902 9.119 -17.898 216 227 231
-7.027 16.577 -17.808 177 197 202
-7.377 13.687 -17.755 185 206 215
-5.634 28.533 -17.594 86 106 117
-5.793 27.269 -17.522 80 100 112
-5.727 24.887 -19.643 103 133 151
-5.811 24.285 -19.551 123 149 165
-7.284 12.426 -19.158 181 195 201
-7.857 7.809 -19.007 219 228 228
-7.676 9.350 -18.975 174 181 179
-7.567 10.307 -18.931 192 197 196
-7.302 12.547 -18.904 183 187 186
-7.765 8.813 -18.786 197 201 200
-7.719 9.250 -18.732 235 238 237
-7.727 9.249 -18.672 216 218 216
-8.027 6.842 -18.586 219 222 218
-7.961 7.447 -18.534 216 222 216
-7.939 7.692 -18.478 226 232 227
-7.323 12.847 -18.457 170 178 174
-7.231 13.679 -18.398 151 159 156
-7.067 15.103 -18.340 144 153 151
-5.756 26.059 -18.315 141 150 150
-6.824 17.267 -18.212 172 178 181
-7.254 13.763 -18.137 189 194 196
-7.035 15.650 -18.072 173 178 177
-7.515 11.718 -18.008 233 236 236
-7.470 12.164 -17.944 204 204 206
-7.192 14.553 -17.873 174 173 179
-7.122 15.213 -17.804 213 212 222
-6.198 23.025 -17.695 134 133 143
-5.679 27.547 -17.508 119 118 128
-7.358 11.314 -19.127 199 211 222
-7.203 12.630 -19.089 228 237 237
-7.287 12.016 -19.014 231 238 236
-6.461 18.786 -19.061 166 171 170
-7.136 13.376 -18.908 201 206 205
-7.867 7.499 -18.760 230 235 234
-7.468 10.811 -18.744 233 236 234
-7.296 12.277 -18.699 210 213 210
-7.968 6.852 -18.578 223 227 224
-7.596 9.956 -18.550 239 243 240
-7.908 7.467 -18.468 239 243 240
-8.048 6.379 -18.402 211 215 212
-7.405 11.715 -18.377 159 164 162
-5.214 29.769 -18.401 148 155 154
-7.554 10.618 -18.247 171 178 179
-7.380 12.120 -18.189 186 192 195
-7.312 12.741 -18.126 173 179 183
-7.022 15.199 -18.063 152 158 161
-7.683 9.810 -18.001 229 234 237
-7.452 11.788 -17.936 212 214 218
-7.478 11.640 -17.873 183 183 191
-7.207 13.954 -17.800 197 196 207
-4.220 38.815 -17.596 70 69 83
-5.316 26.670 -19.905 126 151 163
-4.176 36.105 -19.790 135 154 172
-4.136 36.525 -19.708 151 167 189
-4.512 33.604 -19.558 86 103 117
-6.362 18.857 -19.196 134 150 155
-7.646 8.625 -18.947 206 216 218
-7.442 10.325 -18.915 216 221 220
-7.103 13.116 -18.895 191 194 193
-7.988 6.056 -18.732 230 232 232
-7.603 9.219 -18.716 210 212 211
-7.187 12.639 -18.695 176 179 176
-7.926 6.732 -18.569 208 210 207
-7.903 6.972 -18.514 194 196 193
-7.712 8.581 -18.469 195 199 197
-7.574 9.765 -18.418 212 216 215
-7.679 8.976 -18.353 215 220 219
-7.592 9.742 -18.296 207 212 211
-7.389 11.463 -18.242 185 191 191
-6.905 15.474 -18.188 130 136 137
-7.001 14.760 -18.120 145 152 153
-6.832 16.213 -18.053 159 165 168
-7.145 13.716 -17.988 138 144 151
-6.932 15.534 -17.919 166 172 182
-7.269 12.835 -17.860 165 169 181
-6.906 15.884 -17.782 161 162 176
-6.143 22.228 -17.678 148 148 160
-4.621 34.933 -17.426 104 103 107
-4.287 34.139 -20.093 124 145 150
-4.026 36.292 -20.058 132 151 151
-5.775 22.647 -19.560 135 153 153
-6.484 17.109 -19.363 142 160 162
-6.806 14.631 -19.242 156 173 178
-4.443 33.454 -19.543 109 131 136
-4.402 33.957 -19.375 98 114 115
-7.171 11.994 -18.933 212 219 218
-6.678 15.986 -18.929 224 228 226
-6.331 18.830 -18.900 233 236 235
-7.113 12.655 -18.751 183 184 184
-6.888 14.520 -18.708 169 169 169
-7.216 11.960 -18.615 176 177 176
-7.394 10.594 -18.539 176 179 176
-7.548 9.420 -18.468 187 189 187
-7.299 11.488 -18.422 205 208 207
-7.500 9.931 -18.350 223 227 226
-6.746 16.073 -18.316 144 149 148
-7.021 13.923 -18.241 178 185 185
-6.509 18.129 -18.185 113 122 122
-5.250 28.379 -18.125 97 107 107
-5.682 24.972 -18.043 107 116 118
-7.136 13.259 -17.980 137 144 153
-7.335 11.716 -17.919 186 191 206
-6.903 15.291 -17.843 149 152 169
-5.747 24.767 -17.731 127 128 144
-4.895 31.783 -17.611 146 147 157
-5.010 27.881 -19.834 133 153 153
-4.997 28.062 -19.756 98 119 118
-5.198 26.576 -19.640 138 158 158
-5.565 23.773 -19.498 141 160 160
-4.871 29.301 -19.535 145 163 164
-6.920 13.277 -19.140 177 201 200
-6.630 15.624 -19.118 129 156 154
-4.552 32.072 -19.331 80 101 99
-6.410 17.568 -18.943 180 185 184
-7.476 9.204 -18.759 225 225 225
-6.830 14.385 -18.764 164 163 163
-5.288 26.677 -18.836 149 149 149
-7.020 13.013 -18.617 195 195 193
-7.244 11.295 -18.537 220 220 218
-7.470 9.563 -18.461 231 232 230
-6.903 14.137 -18.431 188 190 190
-6.865 14.511 -18.367 178 183 182
-6.559 17.019 -18.311 146 153 151
-6.594 16.810 -18.241 154 163 161
-6.698 16.051 -18.171 108 117 117
-6.359 18.837 -18.105 136 145 151
-7.027 13.550 -18.035 138 146 158
-6.989 13.924 -17.970 149 155 169
-7.230 12.052 -17.909 180 184 199
-6.441 18.464 -17.821 135 137 152
-5.126 29.136 -17.698 123 124 137
-6.905 14.871 -17.702 151 152 158
-5.548 25.901 -17.555 141 144 141
-4.998 27.335 -19.809 150 171 171
-5.644 22.410 -19.610 117 138 138
-3.611 38.274 -19.895 131 151 151
-4.159 34.105 -19.711 143 160 159
-6.397 16.772 -19.268 136 150 149
-6.956 12.485 -19.116 177 190 191
-6.813 13.667 -19.073 198 211 213
-6.974 12.475 -18.988 165 177 178
-5.699 22.514 -19.082 140 151 151
-5.845 21.444 -18.990 171 183 184
-7.541 8.222 -18.738 211 222 224
-6.641 15.350 -18.766 190 195 197
-6.336 17.814 -18.726 189 189 189
-6.667 15.276 -18.631 191 191 190
-7.404 9.541 -18.513 231 234 231
-7.339 10.118 -18.457 239 242 239
-7.275 10.686 -18.399 179 181 178
-6.160 19.558 -18.384 143 148 145
-6.731 15.115 -18.294 164 173 171
-6.807 14.578 -18.225 151 166 166
-6.014 20.936 -18.170 112 132 134
-6.352 18.325 -18.095 137 154 157
-6.492 17.280 -18.025 130 141 145
-5.958 21.603 -17.948 109 117 127
-6.566 16.831 -17.887 154 160 172
-6.962 13.745 -17.830 142 146 153
-5.007 29.429 -17.685 125 127 127
-3.972 37.879 -17.456 54 57 50
-3.974 34.664 -19.891 124 144 145
-6.447 15.854 -19.240 178 191 193
-6.667 14.223 -19.141 173 185 189
-5.747 21.404 -19.203 142 153 160
-6.741 13.780 -19.001 141 152 159
-7.015 11.728 -18.903 180 190 197
-5.959 19.984 -18.959 153 161 166
-4.576 30.796 -19.030 138 143 146
-6.925 12.616 -18.724 185 188 189
-6.881 13.018 -18.664 201 203 203
-7.550 7.872 -18.549 220 222 221
-7.800 5.979 -18.474 229 231 231
-7.773 6.244 -18.419 223 228 227
-6.652 15.069 -18.418 148 157 155
-6.426 16.912 -18.361 136 147 146
-7.304 10.094 -18.264 165 176 180
-6.429 17.024 -18.223 140 153 167
-5.962 20.764 -18.160 118 132 154
-7.007 12.611 -18.082 140 153 171
-6.291 18.322 -18.014 147 157 169
-6.773 14.652 -17.884 102 111 120
-5.889 21.713 -17.788 128 137 140
-5.676 23.468 -17.705 108 117 115
-3.411 38.455 -19.779 94 103 106
-5.539 22.276 -19.360 136 145 145
-5.497 22.675 -19.292 161 169 172
-4.279 32.078 -19.383 99 106 111
-4.450 31.025 -19.107 180 182 186
-6.185 17.961 -18.638 152 157 156
-6.162 18.205 -18.570 147 151 150
-6.540 15.353 -18.478 176 182 179
-6.919 12.483 -18.393 134 141 140
-7.110 11.062 -18.322 142 147 158
-6.971 12.202 -18.264 170 172 197
-6.560 15.462 -18.209 158 164 189
-4.851 28.844 -18.162 120 130 152
-5.329 25.193 -18.078 139 148 170
-5.905 20.776 -18.002 159 166 188
-4.683 30.486 -17.825 62 69 83
-5.606 21.267 -19.255 181 186 191
-5.837 19.587 -19.151 208 209 218
-3.908 34.327 -19.321 111 113 122
-5.709 20.778 -18.951 184 185 192
-5.372 23.416 -18.911 154 153 158
-4.028 33.763 -18.956 115 115 118
-6.475 15.204 -18.602 185 188 187
-7.077 10.655 -18.497 178 183 180
-7.213 9.666 -18.428 172 179 173
-7.406 8.245 -18.359 177 185 181
-6.109 18.284 -18.348 141 145 153
-7.029 11.269 -18.252 152 152 173
-6.590 14.709 -18.198 151 154 177
-4.876 28.008 -18.149 134 139 163
-5.848 20.577 -18.066 144 147 171
-6.369 16.622 -17.996 154 154 177
-5.320 22.936 -19.200 166 181 184
-4.048 32.678 -19.194 112 113 127
-5.535 21.534 -18.951 124 124 134
-5.771 19.819 -18.854 161 160 165
-7.249 8.702 -18.652 201 201 204
-6.991 10.710 -18.613 219 222 223
-7.195 9.223 -18.538 231 235 234
-6.323 15.910 -18.532 234 239 235
-7.314 8.437 -18.411 220 226 221
-7.062 10.414 -18.363 208 215 211
-5.783 20.223 -18.348 154 160 168
-3.546 37.368 -18.335 71 77 96
-4.716 28.523 -18.221 76 80 101
-5.751 20.682 -18.129 186 189 209
-6.524 14.838 -18.055 147 147 169
-6.150 17.771 -17.985 109 107 131
-4.729 26.851 -19.176 104 117 135
-5.239 23.111 -19.039 133 142 170
-5.421 21.823 -18.945 113 116 146
-3.820 33.903 -19.023 165 163 191
-6.126 16.675 -18.736 207 206 223
-6.347 15.084 -18.650 183 185 191
-7.524 6.294 -18.502 208 210 212
-6.883 11.177 -18.485 154 156 158
-6.003 17.873 -18.468 131 136 137
-6.508 14.132 -18.376 169 176 179
-5.844 19.211 -18.333 112 118 128
-3.714 35.395 -18.316 77 83 100
-3.814 34.725 -18.224 95 98 117
-4.135 32.377 -18.131 136 136 154
-4.553 27.711 -19.015 132 139 169
-5.814 18.415 -18.817 168 169 199
-5.532 20.584 -18.771 141 141 171
-5.740 19.103 -18.682 153 153 180
-6.363 14.530 -18.569 219 219 235
-5.643 19.966 -18.545 152 154 158
-5.343 22.278 -18.488 112 121 123
-5.854 18.531 -18.391 103 118 122
-5.445 21.662 -18.334 77 94 98
-4.553 28.422 -18.281 60 75 81
-3.487 36.506 -18.215 72 81 88
-5.387 21.105 -18.766 139 139 168
-5.607 19.552 -18.677 117 117 144
-6.566 12.534 -18.542 195 200 217
-4.093 30.979 -18.534 58 73 77
-3.807 33.182 -18.460 56 73 78
-3.227 37.572 -18.391 65 84 89
4.856 33.244 -7.991 130 147 163
5.621 35.941 -7.619 119 141 156
5.343 34.875 -7.670 123 137 154
5.029 33.671 -7.743 130 138 156
4.459 31.624 -7.590 134 156 190
5.631 36.496 -6.632 90 115 148
5.121 33.517 -8.013 112 136 141
4.057 29.326 -8.480 122 143 159
4.760 32.177 -8.016 132 148 166
4.182 29.920 -8.234 147 157 175
4.701 32.039 -7.862 145 153 172
5.634 35.814 -7.258 131 140 161
3.333 26.667 -8.433 128 141 167
5.711 36.225 -7.019 149 167 199
5.015 33.493 -7.312 145 166 199
3.625 27.974 -8.007 147 172 203
0.834 16.830 -9.519 152 177 207
4.546 31.759 -7.299 110 135 163
4.632 32.155 -7.156 111 135 159
1.623 20.115 -8.832 125 148 165
5.582 36.067 -6.406 106 130 138
5.887 36.136 -7.744 127 140 142
1.870 20.266 -9.742 130 145 150
1.504 18.855 -9.856 178 193 204
2.785 23.980 -9.099 126 139 154
3.240 25.830 -8.772 134 146 163
2.037 21.092 -9.338 141 152 172
4.911 32.563 -7.689 139 151 171
3.978 28.899 -8.110 128 147 167
1.920 20.836 -9.007 157 181 212
1.044 17.382 -9.428 163 187 215
3.165 25.885 -8.132 135 158 180
5.952 37.061 -6.427 106 130 143
3.214 26.170 -7.932 117 139 146
2.536 23.506 -8.246 137 152 158
4.916 33.073 -6.746 123 132 139
2.067 20.701 -9.745 128 138 154
3.031 24.542 -9.166 119 131 146
0.831 15.902 -10.237 188 201 214
3.414 26.143 -8.796 126 138 152
0.873 16.183 -9.996 135 147 164
2.608 23.089 -8.977 142 156 176
2.103 21.129 -9.173 166 185 211
2.182 21.485 -9.050 144 168 199
2.913 24.469 -8.478 111 136 167
1.492 18.869 -9.203 121 144 169
0.883 16.493 -9.475 136 155 174
5.938 36.624 -6.475 140 153 166
1.730 19.937 -8.833 148 156 165
1.772 20.144 -8.730 168 176 185
0.231 14.047 -9.567 164 172 182
1.652 19.749 -8.645 140 148 155
3.157 25.789 -7.659 118 124 130
0.840 15.583 -10.403 136 150 172
4.277 29.160 -8.460 145 159 174
2.286 21.381 -9.422 127 136 149
1.440 18.133 -9.717 168 177 187
1.332 17.749 -9.700 157 172 183
2.562 22.635 -8.951 139 159 178
1.438 18.245 -9.491 150 174 203
3.866 27.862 -8.062 137 163 194
2.115 21.076 -8.800 133 144 150
4.093 28.942 -7.579 135 144 149
5.674 35.248 -6.570 128 136 144
3.312 25.942 -7.859 140 148 156
5.156 33.297 -6.682 102 108 118
5.233 33.650 -6.541 116 120 130
3.462 26.673 -7.511 133 135 144
1.427 18.632 -8.659 135 136 144
0.225 12.905 -10.742 148 162 184
3.550 25.976 -8.870 140 147 164
1.156 16.653 -10.045 153 159 170
1.032 16.247 -9.963 197 205 208
1.430 17.844 -9.675 189 200 204
3.080 24.352 -8.700 137 155 172
2.825 23.398 -8.756 121 145 174
1.575 18.531 -9.368 121 146 178
4.994 32.054 -7.283 118 144 159
2.259 21.338 -8.750 142 167 168
0.734 15.377 -9.546 155 172 173
0.121 12.999 -9.829 163 171 176
2.400 22.019 -8.427 135 142 148
5.875 35.767 -6.297 117 123 131
5.029 32.478 -6.702 128 132 140
3.892 28.035 -7.290 145 146 155
0.967 16.524 -8.969 173 173 182
1.609 19.099 -8.504 142 141 150
-0.191 11.027 -10.978 168 185 206
3.526 25.511 -8.998 142 159 182
2.869 23.000 -9.254 150 166 187
2.772 22.665 -9.223 166 180 193
3.377 25.108 -8.738 142 155 157
1.400 17.439 -9.719 174 188 191
1.122 16.392 -9.795 165 179 188
1.648 18.483 -9.433 161 179 191
0.771 15.095 -9.843 136 159 167
1.620 18.453 -9.296 129 156 159
3.526 25.952 -8.146 140 163 167
2.827 23.260 -8.458 139 157 162
2.523 22.110 -8.550 116 130 134
3.338 25.347 -7.998 109 120 124
2.026 20.282 -8.599 110 121 127
2.499 22.181 -8.240 130 139 146
4.112 28.563 -7.196 151 157 164
4.368 29.617 -6.952 155 161 170
2.948 24.073 -7.724 145 151 159
0.384 12.994 -10.709 138 152 171
5.942 34.592 -7.691 128 143 156
4.126 27.604 -8.544 154 169 180
5.095 31.405 -7.946 159 174 184
0.513 13.675 -10.293 142 158 165
3.606 25.720 -8.561 97 112 118
0.948 15.436 -9.917 174 190 199
-0.381 10.310 -10.571 185 202 214
0.070 12.097 -10.256 179 196 210
0.373 13.311 -10.019 200 217 231
0.023 11.984 -10.146 185 202 212
-0.098 11.548 -10.146 205 221 226
1.289 16.991 -9.287 170 181 186
2.495 21.733 -8.518 149 156 161
1.779 18.979 -8.853 177 183 187
-1.408 6.566 -10.643 218 225 228
1.091 16.369 -9.105 174 180 186
2.167 20.618 -8.391 127 133 141
2.864 23.387 -7.893 125 131 139
1.374 17.592 -8.712 189 195 203
6.389 37.286 -5.578 113 121 128
4.184 27.362 -8.806 150 166 174
3.159 23.458 -9.244 156 171 182
0.251 12.293 -10.663 149 164 177
1.186 15.934 -10.107 156 171 184
0.449 13.128 -10.422 162 177 189
0.058 11.652 -10.560 140 155 166
2.208 19.997 -9.341 104 119 129
1.608 17.715 -9.587 135 150 161
0.724 14.334 -9.994 187 202 212
0.548 13.690 -10.019 168 177 186
1.155 16.076 -9.612 189 192 201
-0.317 10.407 -10.363 200 203 211
-0.674 9.055 -10.498 184 188 196
-1.389 6.315 -10.840 218 222 226
1.993 19.479 -8.838 169 173 174
-0.192 11.028 -10.025 193 199 200
-0.106 11.399 -9.907 207 213 214
-0.806 8.708 -10.252 204 211 211
-0.219 11.027 -9.839 193 199 200
0.633 14.379 -9.263 182 188 193
-0.639 9.458 -9.958 193 199 206
5.376 32.955 -6.236 123 130 138
0.358 12.410 -10.700 180 194 196
0.651 13.571 -10.480 134 147 155
1.704 17.650 -9.863 115 129 139
2.105 19.226 -9.578 135 150 161
0.798 14.241 -10.193 149 161 172
1.860 18.363 -9.555 133 143 155
1.893 18.528 -9.461 123 136 147
0.604 13.604 -10.085 196 211 221
1.044 15.336 -9.774 178 188 197
0.684 13.986 -9.900 157 161 169
-0.089 11.038 -10.261 210 213 219
-0.454 9.664 -10.399 226 230 234
-1.454 5.832 -10.901 229 234 235
1.833 18.569 -8.960 163 168 166
2.144 19.810 -8.704 161 167 166
0.725 14.359 -9.452 162 169 170
-0.461 9.801 -10.076 199 206 207
-0.360 10.228 -9.950 197 204 205
0.753 14.577 -9.221 208 214 216
0.843 14.963 -9.095 190 197 200
2.542 21.596 -7.994 151 162 162
-1.180 6.285 -11.505 204 212 214
-1.376 5.569 -11.544 210 221 225
0.046 11.032 -10.748 175 186 193
0.900 14.331 -10.235 142 153 162
2.915 22.076 -9.102 134 145 154
1.369 16.199 -9.844 139 149 158
1.590 17.083 -9.651 124 131 140
0.665 13.574 -10.078 198 202 210
0.989 14.852 -9.831 168 172 176
1.036 15.071 -9.733 171 175 177
0.088 11.467 -10.188 176 180 180
-0.459 9.398 -10.427 239 243 242
0.060 11.427 -10.069 208 213 212
1.598 17.380 -9.124 194 201 199
0.593 13.548 -9.627 179 188 187
2.114 19.441 -8.675 141 153 152
0.735 14.166 -9.404 182 192 192
-0.330 10.093 -9.960 162 169 170
1.357 16.638 -8.892 185 191 192
3.649 25.528 -7.445 145 152 152
3.832 26.280 -7.249 142 149 150
-0.562 8.407 -11.212 195 202 200
-0.505 8.653 -11.120 184 193 191
-0.444 8.920 -11.024 174 185 183
2.497 20.143 -9.428 113 125 122
4.442 27.591 -8.328 97 107 106
5.665 32.295 -7.592 102 109 109
4.264 26.999 -8.248 112 117 119
0.386 12.250 -10.254 184 188 190
-0.854 7.548 -10.861 185 190 190
0.044 11.013 -10.305 207 212 211
0.351 12.221 -10.068 169 173 172
-1.167 6.448 -10.848 221 226 225
2.301 19.750 -8.832 165 174 173
1.288 15.910 -9.330 192 206 205
0.404 12.561 -9.763 172 187 187
2.001 18.720 -8.771 146 162 163
1.992 18.723 -8.700 164 177 178
4.387 27.958 -7.216 148 157 157
4.584 28.805 -6.922 123 128 129
5.528 32.479 -6.265 140 145 148
6.028 34.452 -5.867 127 134 137
-0.732 7.559 -11.257 202 212 210
-1.141 6.040 -11.405 219 229 227
-0.142 9.858 -10.826 219 231 228
-0.254 9.465 -10.819 180 190 187
4.491 27.493 -8.246 166 173 171
4.185 26.378 -8.322 136 147 144
-0.233 9.643 -10.613 188 202 199
0.406 12.106 -10.200 180 190 187
0.524 12.589 -10.067 187 192 191
0.932 14.174 -9.773 169 175 175
-0.800 7.615 -10.667 214 223 225
2.246 19.251 -8.893 185 197 200
1.968 18.231 -8.974 165 178 182
1.207 15.366 -9.332 179 192 198
0.728 13.576 -9.535 166 179 185
0.449 12.545 -9.627 179 191 195
4.212 26.960 -7.355 168 179 181
3.782 25.403 -7.437 129 135 138
4.799 29.339 -6.741 142 149 152
-1.140 5.792 -11.486 211 223 220
-0.095 9.760 -10.889 218 231 228
0.015 10.207 -10.767 213 227 224
-0.480 8.371 -10.960 178 192 189
3.047 21.719 -9.038 173 187 184
2.408 19.345 -9.297 159 178 173
0.179 10.960 -10.415 168 189 184
2.781 20.835 -8.941 157 169 166
1.936 17.677 -9.323 162 166 165
1.655 16.651 -9.402 160 168 168
0.096 10.779 -10.194 174 188 189
1.230 15.115 -9.492 186 199 202
4.290 26.759 -7.692 139 150 154
0.383 11.969 -9.830 177 188 195
0.926 14.069 -9.450 176 187 196
1.086 14.710 -9.286 182 191 202
2.602 20.513 -8.330 194 199 212
3.984 25.815 -7.438 164 167 182
3.796 25.142 -7.463 121 124 139
5.554 31.977 -6.141 119 133 138
1.211 14.381 -10.315 146 160 159
2.593 19.601 -9.538 141 154 153
0.902 13.292 -10.333 159 173 170
0.625 12.289 -10.407 159 173 170
4.772 27.906 -8.160 130 144 141
0.461 11.738 -10.357 191 208 203
-0.534 8.028 -10.821 198 216 210
2.298 18.725 -9.230 168 184 179
3.444 23.082 -8.530 169 182 179
0.209 10.924 -10.224 190 203 201
-0.127 9.694 -10.342 205 218 217
2.285 18.829 -8.931 177 190 191
4.460 27.084 -7.630 155 168 170
3.954 25.216 -7.830 159 171 174
1.677 16.646 -9.048 188 199 203
1.260 15.106 -9.214 190 199 207
1.330 15.406 -9.102 199 207 219
1.299 15.326 -9.047 189 196 215
5.872 32.697 -6.272 123 130 156
4.917 29.166 -6.656 134 145 170
4.296 26.854 -6.942 108 120 133
0.541 11.621 -10.677 179 193 194
2.698 19.708 -9.511 154 167 168
-0.270 8.657 -10.960 206 220 219
0.472 11.466 -10.510 198 213 210
1.946 17.011 -9.671 180 196 192
-0.005 9.748 -10.627 189 207 202
0.751 12.610 -10.159 154 173 169
1.170 14.216 -9.865 180 197 193
2.157 17.952 -9.259 164 181 177
0.986 13.595 -9.824 153 172 169
1.693 16.287 -9.363 168 189 186
1.523 15.685 -9.384 170 191 189
3.620 23.605 -8.135 163 184 184
6.283 33.664 -6.546 138 159 160
1.594 16.096 -9.052 174 189 197
1.836 17.045 -8.838 172 180 194
4.014 25.299 -7.490 146 149 164
4.072 25.601 -7.285 143 148 166
1.902 17.443 -8.499 148 158 178
0.808 12.366 -10.566 164 177 179
1.589 15.303 -10.100 180 192 194
0.936 12.910 -10.363 171 183 185
-0.818 6.415 -11.201 211 224 224
0.132 9.984 -10.644 199 215 214
0.868 12.761 -10.191 179 196 193
2.328 18.237 -9.346 135 151 150
3.890 24.103 -8.433 124 139 143
4.108 24.961 -8.232 124 139 149
1.449 15.068 -9.597 135 150 167
3.876 24.178 -8.191 124 138 159
0.945 13.255 -9.733 156 170 189
0.524 11.714 -9.898 161 176 188
0.672 12.303 -9.746 149 166 175
1.701 16.194 -9.093 141 161 168
3.785 24.043 -7.825 120 143 151
1.923 17.097 -8.818 146 170 180
0.838 13.062 -9.375 177 194 205
4.241 25.965 -7.135 139 140 160
0.614 11.431 -10.619 160 175 177
2.147 17.141 -9.768 149 161 163
-0.750 6.447 -11.187 205 219 222
-0.730 6.551 -11.116 213 231 233
0.151 9.849 -10.592 184 202 202
0.309 10.467 -10.443 184 200 201
0.551 11.399 -10.247 161 176 187
1.337 14.353 -9.756 176 190 212
1.184 13.822 -9.768 191 205 233
3.615 22.903 -8.365 127 140 171
2.258 17.890 -9.033 158 171 201
-0.293 8.424 -10.379 159 172 199
0.394 11.016 -9.929 156 172 191
1.715 15.978 -9.114 155 174 186
2.335 18.326 -8.686 151 171 180
2.522 19.063 -8.502 145 164 171
0.248 10.604 -9.745 169 189 194
1.884 16.753 -8.721 152 170 175
5.806 31.511 -6.240 136 139 157
0.226 9.759 -10.837 179 198 201
3.068 20.266 -9.324 142 160 162
2.322 17.555 -9.629 139 157 160
2.446 18.051 -9.489 128 146 148
2.643 18.812 -9.311 159 176 177
0.117 9.518 -10.568 210 226 227
0.356 10.433 -10.376 203 217 224
0.745 11.905 -10.100 206 218 233
0.648 11.581 -10.084 188 200 222
4.355 25.344 -7.992 131 144 171
3.675 22.868 -8.281 154 167 198
1.595 15.195 -9.355 153 166 197
0.571 11.428 -9.856 167 181 202
2.456 18.464 -8.724 166 181 191
2.474 18.565 -8.637 166 184 189
1.471 14.874 -9.137 152 172 174
0.386 10.874 -9.692 167 187 187
1.618 15.494 -8.906 177 195 193
6.535 33.843 -5.942 151 163 163
5.591 30.374 -6.406 136 141 142
0.316 9.854 -10.814 208 223 229
1.573 14.498 -10.110 150 166 174
6.555 32.826 -7.485 125 140 146
4.336 24.721 -8.538 162 178 181
0.691 11.360 -10.356 205 221 222
0.296 9.940 -10.497 209 225 225
0.043 9.044 -10.565 190 204 211
0.379 10.312 -10.321 195 208 223
0.588 11.115 -10.142 192 205 225
4.177 24.383 -8.120 135 149 173
2.182 17.064 -9.132 183 196 226
1.310 13.880 -9.540 168 181 214
1.197 13.498 -9.533 178 193 224
4.419 25.444 -7.648 120 138 162
6.968 34.960 -6.019 118 138 136
3.399 21.790 -7.981 153 174 168
1.112 13.355 -9.230 153 172 168
6.636 33.872 -5.922 152 163 161
4.487 25.945 -7.096 180 182 182
0.778 11.338 -10.537 178 191 201
1.976 15.750 -9.857 148 159 169
0.895 11.834 -10.342 213 224 233
0.091 8.924 -10.692 222 236 244
1.489 14.074 -9.894 170 187 195
1.705 14.902 -9.709 153 170 183
0.951 12.173 -10.039 182 199 218
0.155 9.284 -10.400 204 224 245
2.351 17.378 -9.143 168 191 213
4.513 25.355 -7.884 128 151 176
3.850 22.963 -8.165 115 138 165
3.244 20.772 -8.420 153 174 198
2.307 17.363 -8.867 159 177 198
5.650 29.709 -6.900 137 153 174
6.373 32.604 -6.020 117 119 119
4.718 25.427 -8.570 112 118 174
4.293 23.920 -8.702 126 134 169
3.530 21.182 -9.011 138 148 157
-0.694 5.832 -11.122 224 238 242
0.240 9.269 -10.572 208 226 233
1.375 13.440 -9.909 146 163 176
0.991 12.072 -10.043 173 190 209
0.435 10.076 -10.273 209 229 250
1.686 14.681 -9.530 120 143 165
4.373 24.541 -7.992 88 112 134
5.687 29.391 -7.185 91 114 136
3.082 19.895 -8.540 148 170 188
1.784 15.178 -9.188 146 165 179
2.418 17.538 -8.758 157 172 187
7.173 34.061 -7.267 93 99 134
3.551 20.975 -9.027 114 122 132
0.764 10.904 -10.389 186 198 201
-0.335 6.948 -10.895 214 230 233
1.022 11.908 -10.119 151 167 171
2.647 17.848 -9.189 129 147 152
0.134 8.746 -10.458 189 210 214
2.250 16.475 -9.252 140 165 168
2.699 18.148 -8.934 123 148 156
1.749 14.724 -9.379 144 168 181
2.562 17.720 -8.858 147 167 176
1.071 12.320 -9.613 168 183 189
2.517 17.631 -8.732 163 177 186
3.486 20.423 -9.166 190 200 214
0.788 10.723 -10.466 201 212 216
-0.124 7.461 -10.870 187 198 201
1.312 12.680 -10.061 219 230 235
2.385 16.593 -9.429 159 172 177
4.485 24.229 -8.244 127 143 148
5.125 26.585 -7.819 106 123 129
5.920 29.506 -7.305 91 111 118
2.934 18.728 -8.835 139 162 175
1.381 13.132 -9.607 144 170 186
3.941 22.458 -8.125 109 131 142
2.546 17.432 -8.820 165 183 188
3.814 22.074 -8.034 143 160 168
4.726 25.429 -7.438 132 149 161
2.376 16.192 -9.680 203 214 218
1.045 11.443 -10.290 180 191 195
1.245 12.194 -10.120 173 184 188
2.320 16.098 -9.489 151 164 169
3.816 21.521 -8.627 133 148 156
3.976 22.137 -8.462 134 148 167
3.519 20.531 -8.625 109 122 151
4.625 24.558 -7.949 144 159 190
5.000 25.952 -7.660 138 156 183
5.987 29.560 -7.032 110 127 147
5.794 28.908 -7.048 138 152 165
5.634 28.372 -7.048 134 150 163
5.739 28.794 -6.900 141 158 170
2.956 18.008 -9.411 206 217 222
2.772 17.385 -9.429 188 199 202
3.550 20.210 -8.952 185 196 201
4.559 23.864 -8.348 149 163 174
4.167 22.497 -8.471 114 130 149
4.595 24.075 -8.162 120 137 161
7.142 33.305 -6.622 89 106 134
4.575 24.124 -7.923 101 120 145
5.557 27.695 -7.301 103 120 141
5.769 28.503 -7.096 126 140 158
7.074 33.243 -6.280 109 119 132
7.590 35.148 -5.895 95 101 111
4.336 22.699 -8.656 205 216 224
2.173 15.022 -9.689 207 220 228
3.030 18.116 -9.171 174 188 202
4.337 22.821 -8.410 97 114 133
5.712 27.772 -7.602 102 118 140
4.902 24.959 -7.861 89 106 125
4.611 23.961 -7.934 108 125 141
5.681 27.830 -7.266 135 147 165
3.817 21.195 -8.205 158 163 182
2.497 15.923 -9.547 192 203 210
3.399 19.163 -9.006 151 166 172
3.553 19.748 -8.849 81 99 106
6.291 29.524 -7.328 77 95 108
7.750 34.808 -6.366 76 87 106
6.028 28.715 -7.199 80 85 102
12.516 35.457 -16.249 121 125 129
11.970 33.935 -15.439 161 165 185
10.395 29.444 -15.245 151 170 182
11.528 32.269 -15.663 137 142 159
11.319 31.693 -15.592 137 142 161
9.103 25.222 -15.723 149 158 178
9.601 26.722 -15.589 124 136 156
10.004 27.983 -15.374 146 159 174
5.546 14.890 -15.800 194 210 221
8.746 24.353 -15.350 169 189 196
12.513 34.747 -15.850 120 126 152
12.207 33.895 -15.782 135 142 168
12.370 34.413 -15.674 136 143 169
9.984 27.474 -15.803 134 142 165
10.978 30.420 -15.621 135 145 165
10.851 30.087 -15.544 128 139 160
11.165 31.087 -15.332 174 185 198
7.406 20.101 -15.661 181 192 196
4.168 10.630 -15.956 219 233 236
5.655 15.027 -15.714 205 223 225
11.454 32.095 -14.935 132 155 157
12.394 34.198 -15.667 118 131 160
9.611 26.127 -15.834 128 142 169
9.278 25.192 -15.782 132 146 170
8.235 22.256 -15.645 206 219 223
4.612 11.703 -15.970 226 235 235
3.854 9.514 -15.990 222 230 230
3.754 9.251 -15.938 208 217 217
10.050 27.709 -15.105 122 140 139
10.174 28.110 -15.003 115 142 140
9.877 27.276 -14.955 151 181 182
6.268 16.766 -15.276 169 187 196
11.672 32.656 -14.446 149 157 169
10.403 28.134 -15.842 133 154 181
7.618 20.085 -16.017 128 150 170
9.836 26.564 -15.724 97 121 131
6.446 16.810 -15.836 209 225 223
3.718 8.899 -16.067 235 244 242
3.117 7.175 -16.073 219 226 225
3.226 7.519 -15.999 194 203 204
9.461 25.730 -15.175 120 135 133
10.021 27.402 -15.021 99 120 117
7.875 21.173 -15.213 160 183 183
5.710 14.884 -15.422 164 186 190
5.144 13.261 -15.429 155 173 182
5.280 13.687 -15.341 136 148 161
10.121 26.912 -16.203 133 156 162
6.421 16.267 -16.414 162 189 194
9.970 26.550 -16.046 128 157 162
10.021 26.771 -15.872 149 171 179
5.018 12.332 -16.257 157 179 186
7.809 20.442 -15.918 129 151 155
11.095 30.069 -15.330 167 178 179
3.066 6.817 -16.138 226 235 235
4.713 11.625 -15.888 188 196 196
5.917 15.148 -15.678 157 166 166
6.879 18.008 -15.415 163 184 181
7.334 19.364 -15.282 163 185 188
6.428 16.761 -15.326 149 171 179
7.259 19.212 -15.140 135 156 167
5.135 13.057 -15.361 133 152 164
7.693 20.543 -14.925 136 154 170
9.149 24.823 -14.633 141 157 176
11.425 30.406 -16.097 129 151 155
5.066 12.152 -16.518 192 216 215
5.201 12.569 -16.440 196 219 216
11.833 31.696 -15.794 160 177 178
9.438 24.835 -15.920 168 179 185
4.834 11.599 -16.271 163 174 181
6.343 15.980 -16.057 174 187 194
8.818 23.156 -15.735 174 186 190
4.745 11.489 -15.949 208 222 221
4.652 11.247 -15.893 172 186 184
5.837 14.704 -15.686 164 178 177
6.132 15.621 -15.508 164 184 189
5.896 14.968 -15.467 156 178 184
7.255 18.939 -15.215 140 162 171
8.844 23.582 -14.923 133 154 164
6.857 17.849 -15.120 133 152 164
7.241 18.996 -14.990 143 161 174
8.864 23.747 -14.676 141 157 172
8.897 23.878 -14.589 154 171 186
6.338 15.599 -16.412 178 187 190
5.725 13.872 -16.392 190 199 199
9.100 23.583 -16.028 167 177 180
7.681 19.547 -16.075 161 172 178
4.846 11.437 -16.267 165 177 183
5.681 13.866 -16.119 177 190 196
5.863 14.418 -16.031 158 170 176
4.957 11.900 -15.923 209 223 224
3.859 8.765 -15.983 162 175 176
4.929 11.876 -15.792 163 176 178
10.517 28.024 -15.041 147 164 169
5.951 14.885 -15.529 168 187 197
6.697 17.071 -15.362 146 167 176
8.922 23.528 -14.993 135 157 165
10.145 27.100 -14.744 147 168 178
12.735 34.627 -14.296 117 136 148
7.878 20.615 -14.899 134 152 164
8.438 22.269 -14.739 123 140 152
10.781 29.130 -14.217 136 151 164
12.248 32.106 -16.296 162 168 180
12.676 33.367 -16.175 197 203 215
7.258 17.950 -16.481 205 211 221
6.440 15.646 -16.470 215 221 228
6.559 16.018 -16.389 159 163 171
5.387 12.699 -16.416 180 184 192
5.447 12.899 -16.343 182 186 196
5.044 11.777 -16.312 190 196 206
4.755 10.978 -16.272 197 209 218
6.230 15.230 -16.062 180 198 205
6.629 16.403 -15.951 147 165 172
3.439 7.346 -16.091 201 219 217
4.155 9.427 -15.947 134 152 149
6.222 15.392 -15.637 150 168 166
6.516 16.268 -15.529 168 187 188
6.355 15.837 -15.477 176 196 201
7.695 19.723 -15.232 149 169 176
9.122 23.862 -14.965 159 178 187
7.754 19.958 -15.071 158 178 188
12.763 34.425 -14.291 106 126 135
7.342 18.837 -14.976 175 191 200
8.371 21.839 -14.749 164 177 185
11.324 29.022 -16.789 127 133 150
13.619 35.605 -16.484 172 172 192
12.282 31.853 -16.469 172 172 190
13.351 34.927 -16.310 147 148 162
12.225 31.771 -16.291 163 165 175
11.646 30.164 -16.241 171 175 183
4.987 11.275 -16.644 201 205 213
4.319 9.403 -16.630 239 242 251
5.967 14.119 -16.433 195 198 207
8.894 22.484 -16.116 134 137 148
10.102 25.958 -15.931 159 164 179
7.503 18.587 -16.084 184 191 210
5.228 12.131 -16.224 178 191 209
6.649 16.215 -16.018 164 183 199
6.764 16.575 -15.934 150 170 185
11.955 31.432 -15.315 118 137 151
3.755 8.067 -16.053 206 227 224
5.374 12.724 -15.804 136 156 152
11.515 30.329 -15.004 115 133 131
6.253 15.300 -15.560 150 169 173
5.612 13.494 -15.570 168 187 197
8.435 21.617 -15.135 151 171 181
7.196 18.097 -15.221 159 178 187
5.823 14.189 -15.334 178 195 204
6.807 17.045 -15.126 170 183 191
4.705 11.038 -15.355 216 226 234
6.875 17.303 -14.969 193 202 209
8.059 20.741 -14.717 123 130 138
8.739 22.729 -14.534 154 160 168
12.239 32.840 -13.901 147 152 160
9.144 22.580 -16.970 129 136 146
9.773 24.387 -16.859 114 118 128
9.361 23.259 -16.799 123 125 141
12.811 33.040 -16.522 144 147 167
11.598 29.653 -16.503 156 159 177
11.103 28.289 -16.446 151 154 170
8.000 19.547 -16.568 173 177 192
6.856 16.342 -16.573 176 179 194
5.661 12.988 -16.589 170 175 187
5.215 11.753 -16.556 237 243 253
4.163 8.800 -16.575 226 231 240
10.470 26.717 -15.979 158 162 172
13.335 34.886 -15.642 134 138 153
9.503 24.045 -15.897 170 177 196
7.215 17.579 -16.033 152 167 190
4.504 9.905 -16.225 185 205 230
6.601 15.897 -15.947 148 162 184
7.327 17.993 -15.799 110 118 135
10.238 26.315 -15.408 135 147 161
5.959 14.162 -15.804 205 222 234
9.149 23.284 -15.365 149 167 175
6.576 16.013 -15.519 142 161 169
5.111 11.860 -15.632 160 179 191
6.169 14.912 -15.428 152 172 183
5.885 14.129 -15.395 150 170 179
4.461 10.088 -15.520 171 188 198
4.552 10.376 -15.442 186 199 209
5.499 13.115 -15.241 203 213 222
5.534 13.246 -15.167 211 219 226
7.332 18.427 -14.827 122 128 135
5.294 12.617 -15.066 145 149 157
5.866 14.285 -14.908 145 149 158
12.374 32.994 -13.788 111 114 123
6.919 16.092 -17.067 161 167 178
6.961 16.242 -16.993 156 164 174
5.796 12.993 -16.984 137 143 152
10.458 26.147 -16.649 130 134 144
11.527 29.192 -16.500 135 140 152
11.679 29.657 -16.402 160 168 182
7.776 18.692 -16.578 184 193 211
7.804 18.805 -16.501 173 182 203
7.195 17.116 -16.471 148 158 175
5.244 11.639 -16.549 185 196 209
4.483 9.520 -16.545 215 224 241
3.456 6.642 -16.568 225 232 253
6.117 14.193 -16.273 148 155 174
8.263 20.296 -16.007 160 168 185
7.737 18.841 -15.979 150 162 182
3.831 7.809 -16.289 204 218 242
4.175 8.810 -16.192 188 199 219
7.450 18.123 -15.783 126 133 148
9.081 22.782 -15.531 122 130 144
8.485 21.126 -15.518 204 214 228
9.212 23.223 -15.355 193 204 216
13.006 34.039 -14.822 128 140 151
6.702 16.157 -15.502 144 160 172
6.961 16.924 -15.397 163 180 194
5.936 14.039 -15.457 168 184 199
4.933 11.213 -15.521 156 171 186
4.871 11.065 -15.463 171 185 195
5.342 12.437 -15.331 181 194 201
4.444 9.904 -15.392 205 216 222
5.455 12.817 -15.179 205 213 220
6.829 16.768 -14.903 123 131 141
8.179 20.657 -14.622 126 134 145
6.068 14.656 -14.877 145 151 163
7.389 18.465 -14.594 135 138 151
7.110 16.418 -17.051 149 166 174
5.750 12.638 -17.048 168 183 191
7.068 16.361 -16.909 167 179 186
7.885 18.682 -16.790 156 164 171
9.332 22.775 -16.627 134 143 153
13.436 34.331 -16.282 130 140 153
9.660 23.766 -16.444 138 148 165
7.504 17.741 -16.516 149 159 179
8.774 21.344 -16.348 139 147 165
7.596 18.062 -16.361 157 165 179
5.214 11.390 -16.481 220 228 240
4.845 10.378 -16.446 230 239 248
4.457 9.313 -16.416 171 178 185
10.114 25.289 -15.833 136 142 147
8.578 20.991 -15.896 148 159 166
4.561 9.689 -16.214 182 197 205
3.073 5.513 -16.302 216 228 235
4.319 9.059 -16.111 180 186 191
7.216 17.274 -15.732 131 136 141
11.123 28.357 -15.219 183 187 193
6.603 15.603 -15.656 217 224 234
10.220 25.874 -15.152 140 150 164
7.136 17.174 -15.447 141 153 167
7.011 16.853 -15.389 145 158 171
6.339 14.979 -15.403 144 157 171
6.439 15.290 -15.319 152 164 180
4.278 9.188 -15.544 176 188 204
4.844 10.822 -15.401 216 228 246
3.607 7.336 -15.513 204 216 233
6.629 15.955 -15.006 165 177 193
6.665 16.087 -14.929 129 143 155
10.683 27.553 -14.237 123 138 148
8.017 19.999 -14.571 146 159 172
8.052 20.132 -14.488 151 160 176
12.659 33.298 -13.652 130 137 150
7.677 19.129 -14.396 131 135 146
7.483 17.247 -17.026 133 143 157
6.187 13.661 -17.019 171 182 195
4.764 9.715 -17.028 185 196 206
5.278 11.178 -16.934 181 192 198
5.642 12.223 -16.846 167 178 183
7.706 18.027 -16.645 160 171 177
7.243 16.761 -16.603 146 159 170
7.626 17.866 -16.503 152 166 181
8.558 20.510 -16.359 144 155 169
8.831 21.309 -16.260 151 156 169
5.086 10.835 -16.488 216 222 232
4.753 9.929 -16.450 236 242 249
3.694 6.985 -16.480 213 219 223
8.543 20.633 -15.973 149 153 155
8.597 20.818 -15.890 171 176 176
3.730 7.163 -16.293 225 229 230
3.661 6.996 -16.239 232 236 238
2.641 4.150 -16.286 223 228 231
5.959 13.521 -15.866 148 152 155
10.857 27.353 -15.246 163 167 171
5.212 11.474 -15.815 218 224 233
6.721 15.757 -15.568 159 167 181
7.533 18.080 -15.397 164 175 189
8.310 20.306 -15.224 166 179 192
5.283 11.786 -15.540 156 170 183
4.666 10.072 -15.555 159 173 188
4.308 9.087 -15.539 154 167 183
4.321 9.151 -15.474 163 175 192
3.758 7.582 -15.491 165 177 195
5.222 11.758 -15.213 150 162 180
6.455 15.279 -14.961 155 171 184
8.474 21.038 -14.578 148 168 177
11.220 28.861 -14.067 136 156 167
10.085 25.678 -14.162 138 157 171
12.111 31.466 -13.744 126 144 156
6.860 16.584 -14.535 124 139 149
13.507 35.516 -13.322 89 98 106
7.089 15.968 -16.967 194 203 226
4.473 8.719 -17.038 206 217 231
5.055 10.365 -16.941 188 199 205
5.615 11.954 -16.842 175 183 189
7.047 15.972 -16.682 175 181 189
6.665 14.939 -16.637 173 180 191
8.904 21.217 -16.406 172 180 194
7.578 17.548 -16.427 166 171 186
9.053 21.699 -16.238 154 157 170
5.543 11.922 -16.446 206 210 216
5.015 10.475 -16.424 237 242 241
5.245 11.145 -16.339 235 240 238
6.031 13.374 -16.200 168 172 171
7.702 18.084 -15.972 170 175 173
4.493 9.122 -16.215 226 230 229
3.081 5.193 -16.296 235 240 241
3.567 6.580 -16.186 232 236 239
4.589 9.474 -16.014 176 178 182
9.820 24.190 -15.360 172 174 178
4.912 10.436 -15.848 229 232 239
4.850 10.289 -15.790 194 198 208
4.184 8.443 -15.807 186 190 200
9.080 22.248 -15.125 144 150 160
7.116 16.753 -15.301 177 189 199
5.234 11.483 -15.479 178 198 209
5.810 13.133 -15.333 143 162 180
7.228 17.161 -15.066 124 142 165
6.794 15.967 -15.054 127 145 170
5.998 13.752 -15.099 164 183 206
5.938 13.612 -15.039 162 181 199
6.229 14.465 -14.925 172 192 206
8.958 22.209 -14.424 139 158 170
12.330 31.780 -13.802 124 143 155
10.303 26.084 -14.043 128 146 158
5.313 11.991 -14.797 128 145 157
9.922 25.077 -13.939 96 109 118
8.488 19.639 -16.888 159 167 197
5.446 11.234 -16.979 199 206 224
6.541 14.302 -16.849 197 204 209
7.396 16.703 -16.727 173 178 181
7.325 16.538 -16.659 182 186 191
7.886 18.129 -16.548 173 177 186
10.048 24.170 -16.318 170 176 188
4.607 9.069 -16.646 174 180 193
5.794 12.400 -16.489 166 171 184
5.774 12.371 -16.423 181 186 191
6.448 14.279 -16.298 197 201 200
4.027 7.557 -16.444 207 212 210
5.297 11.127 -16.265 199 204 203
7.557 17.462 -15.982 164 169 167
7.261 16.668 -15.938 201 206 205
4.063 7.765 -16.193 233 237 238
4.173 8.096 -16.120 201 206 209
4.481 8.985 -16.024 188 191 195
6.194 13.806 -15.767 188 190 194
4.725 9.722 -15.868 223 226 233
4.553 9.268 -15.824 182 185 196
4.786 9.948 -15.732 189 193 204
9.519 23.247 -15.068 132 138 148
7.826 18.530 -15.207 159 169 178
5.868 13.069 -15.393 156 171 181
6.231 14.117 -15.275 128 143 161
8.547 20.653 -14.880 103 116 143
6.900 16.118 -14.895 137 150 171
6.192 14.156 -14.931 162 174 189
10.762 27.059 -14.141 135 147 158
12.261 31.322 -13.814 107 120 126
10.627 26.750 -13.992 121 137 142
6.008 13.754 -14.682 127 144 149
9.047 20.964 -16.852 127 139 154
7.933 17.917 -16.836 152 163 178
4.554 8.606 -16.960 211 221 235
5.300 10.697 -16.851 219 225 239
6.907 15.172 -16.680 198 201 216
6.727 14.702 -16.622 164 172 187
8.611 19.954 -16.416 173 185 201
4.421 8.368 -16.656 183 198 213
4.637 8.994 -16.576 183 198 212
5.715 12.013 -16.424 177 187 202
7.605 17.289 -16.195 174 180 192
5.210 10.667 -16.335 205 210 217
3.783 6.728 -16.401 217 224 224
4.998 10.134 -16.224 202 207 206
7.639 17.508 -15.897 196 200 199
5.137 10.575 -16.080 216 221 222
4.003 7.445 -16.135 202 207 210
3.628 6.425 -16.115 183 185 192
4.833 9.810 -15.918 184 186 195
3.903 7.242 -15.962 210 215 224
6.996 15.902 -15.530 163 171 181
8.311 19.605 -15.296 137 144 153
7.435 17.190 -15.331 176 182 190
6.242 13.886 -15.412 162 171 179
6.773 15.401 -15.272 142 155 163
4.526 9.144 -15.508 180 194 209
4.845 10.062 -15.399 188 202 223
11.476 28.666 -14.381 113 127 150
13.681 34.922 -13.874 133 144 168
6.070 13.610 -14.951 143 150 173
7.289 17.061 -14.689 145 152 166
8.463 20.389 -14.427 147 155 160
9.527 23.412 -14.174 139 148 153
6.648 15.352 -14.576 126 137 144
11.373 28.673 -13.695 122 132 138
10.262 24.084 -16.781 110 123 134
8.927 20.440 -16.774 110 123 131
5.281 10.427 -16.912 155 168 172
3.326 5.066 -16.968 210 223 225
5.370 10.727 -16.776 215 228 232
7.498 16.627 -16.564 137 153 161
10.807 25.794 -16.251 136 156 167
10.083 23.831 -16.222 153 173 187
7.908 17.854 -16.313 159 178 192
6.825 14.889 -16.328 161 179 191
6.182 13.140 -16.313 174 189 199
5.035 9.993 -16.347 196 208 213
5.352 10.898 -16.253 194 203 204
3.309 5.265 -16.383 218 225 224
3.910 6.955 -16.265 233 237 236
3.045 4.582 -16.293 229 234 233
4.581 8.871 -16.072 226 230 231
4.987 10.025 -15.964 175 178 185
6.367 13.886 -15.743 161 164 175
5.004 10.128 -15.832 171 177 188
7.853 18.077 -15.426 140 148 157
14.122 35.554 -14.579 107 114 120
8.212 19.141 -15.231 169 176 179
7.905 18.316 -15.195 167 177 178
8.670 20.480 -15.018 137 151 152
6.442 14.302 -15.245 170 184 190
4.918 10.078 -15.389 181 196 206
6.335 14.062 -15.120 143 158 171
8.255 19.452 -14.768 132 146 161
10.143 24.761 -14.407 138 149 169
8.345 19.770 -14.601 141 148 171
6.250 13.942 -14.854 153 160 175
4.804 9.925 -15.017 159 168 173
5.919 13.076 -14.769 147 155 159
6.986 16.092 -14.521 128 137 141
8.703 20.937 -14.155 129 138 143
10.650 24.949 -16.671 100 113 118
5.931 12.025 -16.868 148 161 165
4.175 7.230 -16.911 167 181 184
4.093 7.030 -16.855 197 213 216
6.234 12.945 -16.646 188 209 215
7.098 15.350 -16.515 123 149 159
12.544 30.372 -16.030 146 174 185
10.718 25.381 -16.085 152 178 190
8.969 20.594 -16.147 162 183 195
6.652 14.240 -16.269 180 195 205
6.817 14.723 -16.184 183 197 202
6.211 13.082 -16.170 199 213 212
3.598 5.894 -16.353 210 220 218
2.910 4.019 -16.362 219 226 225
3.111 4.599 -16.284 216 223 222
4.273 7.836 -16.102 213 220 221
5.100 10.150 -15.949 174 182 187
5.604 11.574 -15.827 151 159 169
8.762 20.350 -15.393 128 136 147
11.844 28.924 -14.946 124 133 142
14.254 35.642 -14.560 120 127 133
14.016 35.064 -14.399 125 132 134
11.689 28.642 -14.614 133 141 144
7.439 16.868 -15.108 157 171 177
5.672 11.988 -15.283 164 184 193
4.812 9.624 -15.339 149 170 182
5.427 11.364 -15.184 147 166 180
7.707 17.740 -14.774 139 152 170
10.819 26.441 -14.221 138 146 167
7.296 16.657 -14.690 139 146 159
5.280 11.066 -14.941 172 181 186
4.605 9.212 -14.986 163 171 178
8.711 20.699 -14.233 121 129 139
11.238 27.790 -13.723 122 130 140
11.529 27.115 -16.614 106 117 121
4.867 8.921 -16.925 202 213 215
4.759 8.654 -16.869 197 210 211
5.570 10.902 -16.752 210 226 227
5.624 11.078 -16.683 192 214 217
7.119 15.204 -16.508 135 161 167
6.583 13.762 -16.478 154 182 189
5.713 11.405 -16.478 175 202 209
6.792 14.395 -16.322 176 196 203
6.920 14.777 -16.241 188 201 208
5.995 12.262 -16.254 190 203 206
4.501 8.182 -16.325 196 210 211
3.216 4.671 -16.387 208 222 222
3.963 6.755 -16.254 187 201 200
5.409 10.762 -16.044 167 178 178
5.777 11.805 -15.939 160 169 172
4.761 9.031 -15.984 179 194 199
4.403 8.070 -15.961 204 224 231
8.063 18.199 -15.472 155 171 173
12.083 29.333 -14.915 131 141 139
12.200 29.693 -14.812 112 118 117
8.268 18.890 -15.146 167 172 173
6.448 13.887 -15.313 173 182 183
6.127 13.026 -15.287 169 183 185
7.213 16.065 -15.066 174 194 198
9.204 21.613 -14.708 134 155 162
11.606 28.308 -14.275 131 150 159
8.345 19.295 -14.679 139 155 168
12.289 30.275 -13.995 125 138 153
13.003 32.299 -13.793 133 145 153
6.881 15.326 -14.685 156 169 169
8.192 18.999 -14.398 144 155 156
13.041 32.597 -13.324 117 126 131
11.599 27.063 -16.603 92 97 102
4.927 8.907 -16.917 203 210 208
3.818 5.908 -16.923 208 218 214
7.802 16.807 -16.599 166 180 177
5.810 11.398 -16.665 175 195 194
6.718 13.905 -16.533 114 139 140
6.559 13.499 -16.475 154 180 183
5.518 10.683 -16.490 183 208 211
4.969 9.206 -16.470 180 199 203
5.977 11.994 -16.319 176 189 193
5.081 9.566 -16.332 217 230 232
5.962 12.009 -16.186 178 191 193
4.962 9.295 -16.216 169 182 183
6.331 13.075 -16.015 156 169 171
6.907 14.687 -15.887 153 167 169
6.788 14.388 -15.829 160 174 175
5.242 10.172 -15.929 188 199 199
3.713 5.995 -16.037 219 228 226
3.215 4.649 -16.036 215 224 222
5.943 12.182 -15.650 211 220 218
12.015 28.927 -14.833 134 143 141
9.455 21.912 -15.070 173 183 180
5.399 10.768 -15.518 194 203 202
4.710 8.894 -15.544 181 191 191
5.265 10.453 -15.405 176 186 186
6.753 14.587 -15.131 198 210 209
7.643 17.136 -14.785 137 156 151
6.519 14.059 -14.884 162 176 172
13.831 34.324 -13.664 128 142 138
9.239 21.650 -14.307 136 150 147
10.596 25.443 -14.005 113 131 130
12.081 28.131 -16.568 100 101 110
8.239 17.726 -16.712 137 141 147
3.866 5.867 -16.916 198 206 211
7.098 14.685 -16.641 179 192 196
6.257 12.426 -16.629 157 173 178
9.090 20.166 -16.354 94 111 119
8.304 18.058 -16.337 147 165 173
6.524 13.238 -16.405 173 191 198
6.085 12.069 -16.373 190 208 216
5.300 9.955 -16.374 164 181 189
5.949 11.753 -16.251 177 193 198
4.959 9.076 -16.276 177 190 194
7.131 15.040 -16.003 183 196 198
4.818 8.746 -16.163 189 203 204
4.945 9.120 -16.087 184 198 200
6.386 13.088 -15.870 178 191 193
6.521 13.488 -15.786 174 184 186
4.960 9.240 -15.894 204 211 214
4.412 7.764 -15.894 205 211 212
4.400 7.758 -15.834 198 205 204
7.393 15.995 -15.402 156 164 160
9.349 21.395 -15.082 163 172 168
5.489 10.827 -15.506 185 196 192
5.578 11.099 -15.428 169 181 178
4.590 8.412 -15.497 170 182 178
4.476 8.124 -15.450 201 212 207
9.104 20.886 -14.722 162 174 170
8.400 19.013 -14.671 142 154 150
7.342 16.129 -14.758 166 178 173
11.543 27.743 -14.025 151 162 158
9.567 22.329 -14.256 144 155 153
6.655 14.323 -14.653 163 179 177
11.081 25.212 -16.535 108 116 126
6.608 13.127 -16.736 131 142 159
5.850 11.102 -16.719 196 208 233
6.868 13.889 -16.581 163 172 201
7.338 15.195 -16.477 144 152 182
7.498 15.658 -16.394 135 148 172
11.159 25.632 -16.029 100 116 135
10.375 23.538 -16.011 141 157 179
5.465 10.221 -16.356 176 190 214
7.636 16.154 -16.095 156 169 184
10.436 23.803 -15.761 145 159 162
9.122 20.259 -15.807 156 169 171
5.813 11.276 -16.061 185 198 200
4.500 7.725 -16.131 184 198 200
6.385 12.893 -15.867 173 187 188
6.913 14.361 -15.741 169 179 182
6.446 13.116 -15.724 188 194 200
5.824 11.446 -15.728 199 204 210
6.113 12.264 -15.626 191 198 203
7.073 14.915 -15.440 171 183 185
8.349 18.436 -15.207 164 180 179
6.588 13.648 -15.362 171 188 186
6.415 13.202 -15.315 178 194 193
4.831 8.891 -15.464 170 187 183
4.672 8.481 -15.422 190 207 200
5.269 10.147 -15.273 174 189 183
12.453 29.885 -14.151 168 180 175
8.624 19.412 -14.638 138 148 143
7.222 15.594 -14.777 164 173 169
5.648 11.297 -14.953 224 234 229
6.955 14.917 -14.677 210 222 217
5.902 12.051 -14.778 166 180 176
6.851 14.692 -14.552 150 167 163
7.599 15.610 -16.668 145 157 184
6.726 13.284 -16.655 160 176 202
6.218 11.939 -16.622 164 177 204
6.398 12.452 -16.542 192 201 229
7.885 16.503 -16.360 158 167 191
12.045 27.793 -15.952 118 127 148
14.591 34.725 -15.653 119 129 149
8.441 18.100 -16.093 208 217 238
7.102 14.500 -16.140 182 190 207
7.667 16.063 -16.016 176 184 195
8.153 17.412 -15.897 151 162 173
8.876 19.407 -15.751 142 154 165
5.548 10.398 -16.019 169 178 188
5.711 10.867 -15.937 184 191 198
5.480 10.267 -15.896 187 191 198
4.965 8.893 -15.890 200 204 210
5.486 10.338 -15.765 197 202 208
5.006 9.058 -15.758 203 209 215
7.070 14.707 -15.439 185 197 198
8.651 19.048 -15.168 176 192 189
9.758 22.097 -14.947 172 189 185
10.718 24.751 -14.739 170 187 183
7.821 16.876 -15.053 170 185 182
7.334 15.576 -15.048 146 160 157
11.598 27.260 -14.364 131 144 140
9.240 20.881 -14.546 130 138 134
5.327 10.202 -15.070 199 204 200
4.550 8.101 -15.127 236 240 236
4.586 8.226 -15.058 239 243 240
6.034 12.222 -14.758 173 183 179
6.236 12.804 -14.656 137 151 148
10.697 25.076 -13.826 157 172 170
8.104 16.769 -16.630 132 141 169
8.402 17.602 -16.537 131 142 170
7.289 14.634 -16.541 151 162 189
7.802 16.047 -16.433 167 179 203
7.272 14.647 -16.402 175 186 206
7.394 15.004 -16.322 154 164 180
9.207 19.927 -16.099 151 160 177
11.615 26.461 -15.812 184 194 212
5.958 11.212 -16.239 198 207 221
7.573 15.605 -16.022 174 182 194
9.117 19.810 -15.800 138 146 164
10.694 24.109 -15.565 121 128 151
7.869 16.495 -15.776 164 170 189
5.845 11.044 -15.920 173 178 191
5.468 10.050 -15.896 197 203 212
4.508 7.474 -15.940 215 221 226
4.999 8.832 -15.821 205 212 213
4.982 8.812 -15.759 213 220 219
6.797 13.766 -15.471 186 194 192
7.158 14.777 -15.356 172 181 179
5.408 10.048 -15.514 180 191 189
10.343 23.496 -14.789 170 184 180
10.521 24.016 -14.683 169 184 180
6.643 13.491 -15.145 176 189 186
8.391 18.281 -14.825 193 205 204
9.077 20.181 -14.649 207 216 216
6.256 12.523 -14.995 176 182 182
7.289 15.370 -14.768 165 167 166
5.486 10.479 -14.980 235 237 236
6.007 11.928 -14.831 240 243 242
8.654 19.188 -14.330 188 193 192
9.709 22.105 -14.077 128 137 135
5.784 11.401 -14.667 209 219 218
7.951 17.359 -14.223 205 214 214
6.090 11.164 -16.754 151 161 173
5.778 10.355 -16.709 198 210 227
6.048 11.106 -16.624 189 205 222
6.395 12.065 -16.533 180 197 211
6.941 13.560 -16.423 168 183 194
7.222 14.344 -16.331 133 144 153
7.992 16.442 -16.197 170 179 188
7.826 16.027 -16.139 170 178 188
10.011 21.940 -15.868 151 159 168
11.085 24.864 -15.688 134 142 151
10.504 23.333 -15.662 127 134 151
11.038 24.805 -15.527 115 122 145
10.281 22.800 -15.523 144 151 177
8.229 17.293 -15.662 156 163 186
5.970 11.224 -15.838 198 204 218
6.436 12.510 -15.719 203 210 213
5.838 10.923 -15.721 201 209 208
5.337 9.594 -15.715 213 222 220
6.878 13.791 -15.460 183 193 191
5.331 9.630 -15.587 175 187 184
4.770 8.139 -15.596 188 199 197
6.356 12.461 -15.321 184 196 193
9.722 21.617 -14.792 158 169 166
6.862 13.892 -15.114 177 186 184
5.177 9.346 -15.287 180 185 185
6.961 14.217 -14.960 187 189 191
7.058 14.511 -14.875 170 171 172
9.624 21.516 -14.410 132 134 134
8.012 17.164 -14.584 164 166 166
8.746 19.191 -14.393 198 201 202
9.989 22.608 -14.113 177 181 182
6.855 14.104 -14.556 169 176 175
5.135 9.447 -14.779 205 214 212
8.348 18.233 -14.156 205 214 212
6.189 11.271 -16.676 208 221 227
7.577 15.010 -16.511 179 194 198
7.699 15.368 -16.431 178 191 195
6.128 11.189 -16.482 202 213 217
7.593 15.142 -16.297 142 151 155
7.936 16.091 -16.197 168 176 180
5.276 8.986 -16.358 208 217 220
7.918 16.102 -16.054 168 176 177
8.195 16.874 -15.956 185 194 194
5.661 10.101 -16.130 204 214 217
8.427 17.557 -15.786 139 150 156
9.144 19.516 -15.638 184 195 207
7.527 15.199 -15.735 175 185 201
9.395 20.256 -15.457 150 160 169
9.788 21.345 -15.335 146 157 159
6.427 12.323 -15.650 191 204 205
5.823 10.723 -15.655 180 195 196
6.452 12.447 -15.511 155 171 170
7.715 15.882 -15.283 140 156 153
5.473 9.860 -15.503 154 167 165
6.328 12.196 -15.324 184 193 193
7.869 16.389 -15.045 163 170 171
6.485 12.676 -15.167 148 155 156
7.242 14.754 -14.990 162 166 172
7.475 15.412 -14.885 164 165 176
6.685 13.303 -14.932 170 171 178
10.656 24.090 -14.252 134 137 138
9.982 22.297 -14.276 127 130 131
12.067 27.983 -13.861 141 144 145
8.780 19.102 -14.312 173 175 176
3.970 6.076 -15.039 222 224 224
5.355 9.862 -14.743 217 220 218
9.150 19.006 -16.393 167 176 182
9.087 18.869 -16.322 194 203 208
6.585 12.226 -16.442 198 207 210
7.318 14.210 -16.315 169 178 180
10.307 22.221 -15.993 157 166 167
5.487 9.374 -16.336 193 202 202
6.721 12.699 -16.160 200 211 210
5.555 9.660 -16.073 197 209 208
8.770 18.302 -15.674 182 193 194
7.750 15.598 -15.708 178 190 192
9.589 20.559 -15.433 157 170 171
10.910 24.136 -15.204 129 145 146
7.751 15.690 -15.493 168 189 195
6.181 11.501 -15.610 157 183 193
5.933 10.862 -15.574 150 175 180
6.223 11.671 -15.471 147 167 167
6.080 11.314 -15.423 149 166 171
7.194 14.339 -15.207 177 189 200
8.638 18.256 -14.939 173 180 190
10.659 23.731 -14.580 125 127 135
10.793 24.127 -14.479 143 142 153
8.319 17.487 -14.761 154 153 164
6.190 11.775 -15.007 192 193 200
6.796 13.438 -14.846 198 201 202
10.977 24.760 -14.120 150 152 152
11.421 25.993 -13.966 123 123 123
7.314 14.924 -14.553 180 181 180
4.113 6.295 -15.017 225 228 227
7.058 13.267 -16.469 216 225 232
7.533 14.558 -16.363 200 207 213
5.780 9.923 -16.436 193 199 202
7.757 15.214 -16.204 175 183 185
5.456 9.113 -16.335 185 194 194
7.463 14.604 -15.807 194 203 204
7.246 14.052 -15.760 185 197 199
8.305 16.910 -15.573 171 190 191
9.616 20.446 -15.350 141 169 169
10.936 24.012 -15.117 131 159 167
8.988 18.831 -15.270 136 162 176
8.038 16.317 -15.312 136 154 169
6.112 11.185 -15.485 162 172 186
6.466 12.161 -15.372 176 182 193
6.761 12.981 -15.265 184 188 196
10.105 21.982 -14.738 154 159 163
7.578 15.232 -15.013 146 153 153
9.519 20.475 -14.662 137 143 144
8.836 18.670 -14.685 150 155 156
5.972 11.002 -15.040 191 194 194
5.225 9.019 -15.088 217 219 219
10.384 22.930 -14.215 195 196 195
9.992 21.910 -14.196 173 173 173
10.402 23.048 -14.049 143 143 143
7.865 16.240 -14.392 142 142 142
6.472 11.578 -16.375 181 190 193
7.406 14.085 -16.229 191 201 203
7.922 15.657 -15.685 165 174 179
8.357 16.847 -15.564 144 162 167
13.818 31.430 -14.867 107 133 139
12.492 27.968 -14.845 131 157 167
9.300 19.484 -15.154 124 138 152
8.042 16.157 -15.238 138 142 157
6.422 11.857 -15.377 166 168 181
5.628 9.763 -15.416 184 188 196
10.368 22.466 -14.701 145 150 154
7.443 14.672 -15.031 147 154 155
6.178 11.314 -15.143 170 180 182
8.122 16.550 -14.790 181 195 198
6.948 13.432 -14.893 181 190 193
8.679 18.102 -14.558 189 193 194
7.294 14.418 -14.700 200 202 203
6.485 12.274 -14.760 204 204 206
9.306 19.879 -14.230 169 170 171
13.745 31.835 -13.412 116 118 118
6.965 12.947 -15.717 170 181 187
9.186 18.876 -15.394 183 195 204
9.567 19.918 -15.274 153 163 175
10.851 23.363 -15.041 140 147 161
10.959 23.684 -14.947 113 120 136
10.536 22.592 -14.919 103 111 125
8.988 18.503 -15.041 123 132 141
7.376 14.240 -15.181 164 173 177
11.413 25.029 -14.557 129 136 141
11.303 24.771 -14.489 102 108 113
7.375 14.324 -14.970 145 152 160
9.570 20.213 -14.577 177 185 195
13.610 31.033 -13.892 121 128 136
14.527 33.521 -13.660 129 135 140
8.224 16.710 -14.555 159 167 172
7.245 14.121 -14.639 201 210 215
8.126 16.506 -14.425 189 199 201
13.690 31.433 -13.424 99 108 108
7.324 13.739 -15.605 182 197 205
8.161 15.984 -15.437 147 160 170
9.560 19.718 -15.196 135 146 157
7.840 15.190 -15.332 109 119 129
8.985 18.257 -15.115 90 101 110
15.048 34.377 -14.248 62 71 80
14.921 34.116 -14.075 92 99 108
10.612 22.704 -14.586 95 101 111
9.838 20.680 -14.616 120 126 138
9.652 20.215 -14.565 143 151 165
14.598 33.411 -13.744 127 139 153
10.920 23.689 -14.133 124 140 149
7.943 15.786 -14.528 181 196 202
8.509 17.326 -14.363 191 204 209
12.404 27.748 -13.640 119 127 132
10.761 22.580 -15.290 146 167 175
6.667 11.813 -15.678 174 198 206
7.845 14.950 -15.472 123 143 153
11.430 24.445 -14.968 127 142 152
8.179 15.892 -15.289 122 136 146
7.258 13.486 -15.334 116 129 137
10.080 21.072 -14.660 96 102 112
12.807 28.331 -14.189 113 119 133
10.477 22.190 -14.444 129 137 153
14.187 32.062 -13.807 119 128 143
14.281 32.351 -13.700 98 108 122
14.153 32.047 -13.627 84 95 107
12.696 28.215 -13.768 123 133 142
8.951 18.296 -14.293 172 183 182
9.892 20.077 -15.384 130 158 166
7.177 12.970 -15.618 142 171 178
7.150 12.927 -15.553 136 164 171
8.583 16.728 -15.310 127 151 159
8.797 17.321 -15.211 112 132 141
8.233 15.866 -15.208 123 138 148
11.594 24.751 -14.697 130 141 153
12.891 28.314 -14.177 118 125 136
8.885 17.764 -14.679 138 146 162
10.246 21.393 -14.399 120 129 141
11.628 25.080 -14.108 114 125 130
11.850 25.701 -13.990 114 124 126
15.017 34.119 -13.398 126 135 135
11.436 24.672 -13.888 160 166 162
8.029 14.987 -15.589 144 169 178
6.696 11.522 -15.671 130 159 166
6.630 11.378 -15.612 129 160 167
8.262 15.685 -15.348 111 139 149
9.564 19.132 -15.114 102 127 136
8.952 17.554 -15.116 105 125 134
11.291 23.730 -14.735 129 142 153
10.123 20.788 -14.575 120 130 132
7.775 14.636 -14.842 162 170 175
8.179 15.729 -14.710 147 157 159
10.111 20.852 -14.342 153 164 164
9.162 18.380 -14.412 150 159 160
9.925 20.423 -14.214 166 171 172
14.668 32.978 -13.362 158 159 155
6.689 11.324 -15.670 143 174 178
6.707 11.398 -15.601 112 145 151
8.934 17.247 -15.264 103 134 141
12.741 27.233 -14.717 95 123 127
10.237 20.715 -14.950 94 119 120
12.913 27.752 -14.522 107 127 133
13.338 29.009 -14.113 83 93 104
7.902 14.776 -14.823 158 167 183
9.003 17.697 -14.587 154 165 173
13.442 29.389 -13.831 125 136 136
11.055 22.570 -15.006 101 127 135
10.162 20.276 -15.036 95 125 129
11.325 23.342 -14.810 104 133 135
10.361 20.859 -14.855 105 131 137
16.614 32.438 -21.427 149 170 186
13.512 24.853 -21.003 156 177 192
13.589 25.076 -20.930 165 186 202
17.234 33.607 -21.748 136 160 175
16.285 31.322 -21.547 155 179 194
16.230 31.223 -21.451 153 175 188
12.009 20.930 -20.900 171 191 202
9.268 14.248 -20.532 195 214 226
10.498 17.286 -20.590 169 188 202
13.086 23.657 -20.777 164 184 197
15.092 28.609 -20.892 160 179 193
14.743 27.785 -20.772 165 185 200
13.978 25.940 -20.617 164 183 199
16.494 32.151 -20.756 150 165 180
16.415 31.991 -20.658 138 151 164
16.471 31.264 -22.261 157 175 180
16.960 32.486 -22.238 147 168 174
17.014 32.688 -22.063 151 176 185
16.563 31.627 -21.915 156 180 193
16.394 31.249 -21.804 161 185 199
14.439 26.525 -21.480 163 187 202
12.952 22.936 -21.221 159 181 194
11.255 18.830 -20.948 181 200 212
10.563 17.172 -20.796 204 220 230
7.798 10.453 -20.423 214 227 235
6.594 7.540 -20.232 220 233 241
7.350 9.412 -20.248 205 218 226
9.369 14.368 -20.386 189 204 214
11.802 20.340 -20.552 170 187 199
13.610 24.791 -20.645 172 190 204
14.555 27.134 -20.649 175 194 208
14.318 26.587 -20.544 167 182 191
13.308 24.147 -20.374 163 174 179
12.423 22.010 -20.220 172 182 189
13.723 25.226 -20.244 162 173 184
16.739 31.644 -22.362 166 180 182
12.626 21.724 -21.709 184 200 203
13.348 23.504 -21.728 180 198 201
13.793 24.613 -21.706 176 196 201
14.434 26.198 -21.707 165 185 194
14.311 25.931 -21.608 165 185 199
16.315 30.826 -21.770 171 189 204
13.589 24.242 -21.356 174 191 206
10.628 17.085 -20.929 187 203 215
9.469 14.297 -20.725 202 215 224
8.121 11.045 -20.507 217 226 231
7.250 8.954 -20.348 232 239 240
6.509 7.175 -20.208 218 225 225
6.393 6.917 -20.135 220 227 228
6.528 7.268 -20.088 224 231 231
7.783 10.350 -20.148 213 220 221
9.734 15.129 -20.265 221 227 229
11.249 18.852 -20.331 213 220 223
11.534 19.575 -20.282 195 203 206
12.016 20.780 -20.246 191 200 202
11.211 18.844 -20.104 179 189 193
10.781 17.824 -19.995 185 196 201
14.977 28.108 -20.238 154 165 169
13.586 23.808 -21.898 192 205 208
12.747 21.814 -21.703 183 199 202
13.567 23.823 -21.734 175 190 195
13.173 22.902 -21.602 175 190 196
12.666 21.707 -21.458 172 188 195
13.044 22.652 -21.428 174 192 199
17.167 32.653 -21.850 162 179 186
13.997 25.020 -21.382 169 185 190
8.117 10.817 -20.619 223 232 235
7.734 9.915 -20.511 232 235 234
7.092 8.383 -20.377 230 231 230
6.001 5.762 -20.198 237 239 239
6.001 5.786 -20.139 231 235 235
6.443 6.882 -20.125 225 229 230
6.286 6.523 -20.050 221 227 228
7.246 8.877 -20.081 213 220 221
8.367 11.625 -20.122 216 221 222
8.325 11.550 -20.052 228 233 234
9.239 13.796 -20.066 216 221 223
10.632 17.212 -20.113 188 194 197
9.309 14.020 -19.934 183 191 195
9.221 13.832 -19.858 180 189 194
13.431 24.117 -20.103 158 168 174
17.532 33.084 -22.420 164 177 180
15.425 28.053 -22.043 168 186 191
13.689 23.909 -21.728 173 191 196
12.995 22.269 -21.557 173 191 196
11.841 19.519 -21.333 173 191 197
12.714 21.652 -21.365 170 187 195
14.795 26.699 -21.539 157 173 180
10.751 16.977 -20.978 186 199 205
6.886 7.679 -20.461 226 233 236
6.929 7.806 -20.405 233 236 235
7.196 8.474 -20.372 234 236 235
5.825 5.184 -20.165 236 238 238
6.207 6.131 -20.146 228 233 232
5.225 3.777 -19.988 216 223 221
6.001 5.679 -20.007 215 223 222
6.259 6.325 -19.973 213 220 221
7.951 10.446 -20.068 214 220 221
8.848 12.645 -20.083 220 224 226
8.623 12.125 -19.997 219 223 225
9.694 14.749 -20.019 180 185 188
9.020 13.140 -19.895 169 174 182
11.554 19.318 -20.022 170 176 188
11.948 20.304 -19.976 167 174 187
16.952 32.493 -20.255 134 142 154
17.779 33.440 -22.428 138 153 158
14.463 25.526 -21.890 161 179 188
14.990 26.820 -21.877 160 178 188
12.374 20.575 -21.456 170 187 197
9.658 14.081 -21.037 175 193 203
9.622 14.022 -20.964 177 194 204
11.343 18.186 -21.102 171 185 194
9.627 14.088 -20.827 192 203 210
6.499 6.589 -20.401 219 226 230
6.313 6.165 -20.320 221 226 227
6.874 7.538 -20.322 233 237 237
5.811 5.001 -20.148 235 240 239
5.755 4.887 -20.085 228 234 234
5.618 4.581 -20.013 223 230 230
6.338 6.340 -20.026 216 223 225
6.911 7.743 -20.020 209 215 218
8.761 12.235 -20.127 215 221 224
8.844 12.462 -20.067 217 224 227
7.521 9.289 -19.888 218 225 227
8.625 11.981 -19.915 193 199 202
9.931 15.166 -19.952 167 174 182
10.132 15.680 -19.897 171 179 191
11.587 19.231 -19.933 181 189 206
14.683 26.758 -20.075 144 153 172
17.681 34.057 -20.193 124 137 149
17.207 32.945 -20.069 118 133 139
17.693 32.961 -22.481 112 115 128
14.181 24.607 -21.910 150 160 177
13.940 24.061 -21.796 146 163 180
14.850 26.269 -21.835 149 167 180
13.333 22.671 -21.557 156 173 183
9.528 13.595 -21.002 185 199 210
8.463 11.070 -20.804 183 193 207
8.869 12.067 -20.787 174 184 196
9.204 12.896 -20.760 190 201 210
7.141 7.975 -20.458 205 214 224
7.438 8.711 -20.429 211 219 228
8.279 10.753 -20.457 202 210 215
7.314 8.460 -20.291 219 226 227
6.802 7.254 -20.177 229 235 237
5.864 5.022 -20.024 219 226 229
5.672 4.583 -19.947 218 225 228
6.906 7.574 -20.005 218 225 228
8.098 10.466 -20.051 219 226 229
7.817 9.815 -19.962 225 232 235
8.093 10.504 -19.921 211 218 221
8.287 10.997 -19.872 193 199 202
11.650 19.131 -20.071 164 171 176
11.030 17.665 -19.949 177 185 192
11.129 17.931 -19.883 190 200 213
12.992 22.458 -19.939 156 168 183
16.830 31.761 -20.116 122 136 145
17.635 33.741 -20.077 109 124 125
17.398 31.888 -22.775 180 187 185
15.213 26.728 -22.363 181 184 189
15.485 27.406 -22.318 151 152 165
14.755 25.702 -22.130 132 131 153
14.457 25.024 -22.006 134 134 162
14.537 25.244 -21.935 150 155 183
12.908 21.395 -21.636 150 161 186
13.504 22.846 -21.636 152 164 185
10.864 16.579 -21.221 181 193 211
7.558 8.719 -20.739 194 205 221
8.007 9.814 -20.731 201 211 224
7.468 8.551 -20.603 197 206 217
9.727 13.971 -20.802 197 205 214
8.365 10.742 -20.580 191 199 211
8.893 12.030 -20.573 186 194 208
10.898 16.851 -20.721 174 181 191
11.388 18.054 -20.700 176 183 188
10.163 15.146 -20.502 208 216 219
8.291 10.688 -20.248 216 225 228
6.932 7.455 -20.053 217 225 228
8.088 10.252 -20.099 211 218 221
9.229 13.014 -20.137 211 218 221
8.121 10.380 -19.973 218 225 228
6.870 7.400 -19.804 226 233 236
8.842 12.162 -19.902 177 184 187
10.807 16.910 -19.989 169 176 181
10.661 16.587 -19.905 177 185 192
10.360 15.890 -19.811 185 196 206
11.292 18.163 -19.804 164 177 187
15.419 28.129 -20.003 130 145 152
17.208 31.207 -22.720 151 161 172
12.860 20.935 -21.994 172 178 196
14.495 24.843 -22.152 159 163 187
14.905 25.845 -22.127 140 146 173
14.758 25.528 -22.024 146 155 182
15.002 26.139 -21.975 149 160 188
13.934 23.633 -21.750 153 165 192
13.328 22.223 -21.592 157 169 190
10.611 15.794 -21.170 201 213 229
8.239 10.179 -20.806 196 208 218
7.665 8.835 -20.672 199 210 217
7.562 8.615 -20.598 207 217 223
8.288 10.368 -20.619 212 220 227
9.125 12.388 -20.648 200 208 218
9.236 12.677 -20.593 191 199 211
10.483 15.676 -20.659 186 194 205
12.619 20.802 -20.809 185 193 203
11.283 17.640 -20.597 210 219 226
8.911 12.004 -20.293 225 233 238
7.855 9.506 -20.126 218 226 230
9.110 12.531 -20.178 205 212 215
9.033 12.372 -20.104 217 224 226
7.600 8.968 -19.914 225 232 235
6.874 7.253 -19.790 229 235 238
9.310 13.111 -19.925 166 172 175
9.966 14.710 -19.907 165 174 178
10.109 15.078 -19.848 175 186 192
9.614 13.918 -19.742 177 190 199
10.702 16.556 -19.748 152 167 177
16.420 30.310 -20.051 119 136 143
17.680 33.371 -20.041 115 133 136
17.611 33.241 -19.944 104 123 124
16.022 28.177 -22.517 118 132 152
12.174 19.118 -21.871 155 167 190
12.814 20.660 -21.888 158 169 194
16.664 29.794 -22.350 131 146 171
18.118 33.267 -22.461 125 143 168
17.824 32.640 -22.239 148 159 184
12.727 20.598 -21.493 173 185 202
9.428 12.807 -21.002 212 225 233
8.331 10.232 -20.800 196 208 214
8.130 9.780 -20.711 199 210 215
7.755 8.914 -20.604 208 219 222
8.028 9.586 -20.572 222 233 237
9.592 13.326 -20.683 203 212 218
8.779 11.418 -20.527 194 203 210
9.063 12.120 -20.491 197 205 214
11.790 18.632 -20.704 205 213 222
11.976 19.103 -20.648 208 217 225
11.658 18.374 -20.542 198 206 213
11.894 18.966 -20.490 193 200 205
10.433 15.510 -20.282 198 205 208
9.387 13.043 -20.119 211 218 219
8.561 11.098 -19.981 224 231 231
7.525 8.652 -19.830 227 233 233
10.142 14.925 -19.976 168 175 176
10.154 14.979 -19.906 166 175 181
9.904 14.408 -19.818 153 163 175
11.453 18.139 -19.858 140 150 163
11.872 19.170 -19.812 130 143 154
18.050 34.056 -19.951 89 115 115
14.567 24.534 -22.277 115 136 156
11.322 16.920 -21.726 140 160 184
12.194 19.003 -21.777 154 172 200
15.636 27.147 -22.181 134 152 180
17.699 32.113 -22.197 154 171 190
11.120 16.608 -21.266 184 198 210
9.459 12.711 -20.987 216 227 233
8.859 11.317 -20.847 210 221 225
7.802 8.842 -20.655 203 214 218
7.584 8.348 -20.567 206 217 222
8.159 9.734 -20.571 225 236 240
9.715 13.444 -20.679 203 214 218
9.028 11.841 -20.537 199 210 215
8.904 11.572 -20.457 201 213 218
10.391 15.123 -20.543 199 212 218
12.869 21.030 -20.718 202 215 223
14.515 24.968 -20.799 167 180 189
14.846 25.784 -20.748 162 174 182
11.031 16.751 -20.319 196 207 213
8.764 11.390 -20.049 219 230 236
7.880 9.312 -19.908 226 237 244
9.128 12.306 -19.947 207 217 226
10.591 15.815 -19.995 170 181 192
11.009 16.836 -19.956 160 171 185
10.647 16.002 -19.857 138 151 166
14.807 25.945 -20.077 115 129 144
15.436 27.475 -20.036 102 119 131
16.239 28.187 -22.670 145 163 182
13.039 20.742 -22.029 128 148 171
10.814 15.545 -21.632 133 154 178
10.661 15.212 -21.539 135 155 180
13.850 22.734 -21.910 133 155 180
16.955 30.064 -22.251 126 149 171
15.364 26.387 -21.869 169 188 202
10.133 14.101 -21.121 202 217 227
9.618 12.914 -20.988 204 215 222
9.428 12.491 -20.898 202 211 215
9.205 11.991 -20.805 207 216 218
8.235 9.727 -20.626 219 226 229
8.668 10.773 -20.611 219 226 229
8.387 10.135 -20.516 220 226 229
9.029 11.675 -20.520 210 217 220
9.689 13.260 -20.523 204 214 217
10.362 14.876 -20.523 198 211 217
12.584 20.160 -20.671 195 211 223
15.232 26.455 -20.847 160 178 197
14.271 24.210 -20.674 156 175 195
12.217 19.377 -20.409 176 195 213
9.407 12.745 -20.089 192 212 225
9.435 12.839 -20.024 191 211 220
10.559 15.531 -20.048 170 187 199
11.008 16.623 -20.012 175 189 206
11.432 17.657 -19.971 157 172 192
11.902 18.800 -19.932 129 145 166
16.927 29.547 -22.835 144 167 182
14.225 23.262 -22.338 137 161 178
16.772 29.250 -22.638 126 154 171
13.495 21.613 -22.072 130 160 178
11.000 15.802 -21.637 128 156 176
10.230 14.025 -21.459 138 163 185
12.082 18.391 -21.644 141 167 188
15.101 25.496 -21.977 136 161 180
16.194 28.121 -21.952 154 173 187
12.544 19.586 -21.406 181 197 208
11.553 17.287 -21.209 189 202 211
11.356 16.851 -21.112 200 210 215
10.023 13.745 -20.883 228 237 239
9.100 11.601 -20.709 231 239 241
8.390 9.956 -20.563 216 222 225
8.071 9.227 -20.465 217 224 227
8.552 10.386 -20.453 218 225 228
8.886 11.195 -20.422 217 224 226
9.505 12.679 -20.419 216 222 225
10.635 15.369 -20.462 206 214 219
11.745 18.015 -20.497 169 180 187
10.485 15.070 -20.307 171 185 193
9.784 13.440 -20.174 184 201 208
8.556 10.565 -20.000 194 212 219
8.448 10.334 -19.926 192 209 217
10.285 14.701 -20.009 174 192 200
11.313 17.162 -20.019 161 179 188
10.407 15.044 -19.879 169 187 202
10.690 15.741 -19.829 161 179 200
16.899 30.477 -20.185 146 164 185
17.226 31.352 -19.937 104 123 133
17.476 32.120 -19.496 98 115 118
17.011 29.489 -22.909 123 148 156
15.903 26.939 -22.652 124 152 160
14.192 22.984 -22.310 125 156 165
14.705 24.211 -22.306 126 159 170
15.449 25.976 -22.333 131 164 179
11.844 17.593 -21.737 136 166 183
10.442 14.347 -21.468 141 167 186
11.556 16.974 -21.551 139 165 184
13.109 20.631 -21.687 138 164 183
16.642 28.920 -22.073 133 158 174
18.091 32.342 -22.172 142 166 179
16.180 27.905 -21.841 145 170 182
15.083 25.369 -21.621 140 164 176
18.360 33.075 -21.931 144 163 174
14.894 24.987 -21.434 192 205 213
10.385 14.447 -20.838 222 231 236
7.527 7.769 -20.451 229 235 238
7.393 7.478 -20.375 220 226 229
7.865 8.610 -20.364 217 224 227
8.431 9.962 -20.359 217 224 227
8.891 11.066 -20.341 216 222 225
7.770 8.455 -20.167 220 227 230
7.347 7.485 -20.065 220 229 231
7.862 8.720 -20.051 206 216 219
8.094 9.289 -20.009 194 205 209
8.442 10.133 -19.975 187 198 202
8.195 9.576 -19.891 194 205 209
7.232 7.328 -19.750 212 225 230
6.936 6.653 -19.666 199 215 222
8.096 9.413 -19.692 189 207 218
9.205 12.055 -19.707 181 200 214
11.399 17.262 -19.790 165 185 199
12.759 20.502 -19.806 146 165 179
15.278 26.487 -19.887 111 130 143
17.781 32.438 -19.952 85 105 116
17.128 31.029 -19.553 95 110 120
15.721 27.729 -19.399 90 107 113
17.573 32.152 -19.392 93 111 113
17.001 29.213 -22.968 122 139 146
14.081 22.466 -22.427 124 143 150
13.454 21.039 -22.252 121 147 154
12.623 19.137 -22.050 118 149 158
13.547 21.314 -22.112 123 155 167
13.997 22.389 -22.099 137 167 183
12.628 19.233 -21.827 146 173 191
10.118 13.419 -21.404 158 183 203
10.689 14.774 -21.413 152 177 197
11.410 16.480 -21.439 145 171 190
11.863 17.562 -21.427 142 167 188
14.168 22.965 -21.647 123 148 172
16.566 28.590 -21.866 112 144 165
16.644 28.902 -21.529 161 178 193
9.783 12.889 -20.684 204 212 219
8.094 8.965 -20.435 219 226 229
8.236 9.321 -20.387 223 230 230
8.658 10.332 -20.367 216 223 223
7.497 7.637 -20.187 219 226 227
7.150 6.847 -20.092 223 230 230
6.846 6.157 -20.004 224 231 231
6.884 6.266 -19.948 217 224 224
6.029 4.282 -19.813 209 216 216
6.787 6.085 -19.820 217 224 224
6.385 5.162 -19.728 229 235 236
6.156 4.646 -19.651 219 225 226
6.378 5.189 -19.610 212 219 222
6.670 5.899 -19.573 196 207 213
7.417 7.678 -19.567 183 198 208
8.737 10.810 -19.595 170 187 199
11.185 16.601 -19.688 157 174 188
13.774 22.729 -19.776 111 127 143
18.594 34.123 -19.981 74 88 105
15.690 27.406 -19.467 97 107 121
14.472 24.560 -19.327 92 104 114
16.296 28.902 -19.321 89 102 109
16.011 26.705 -22.785 124 140 146
12.932 19.608 -22.225 118 136 143
12.385 18.371 -22.067 109 131 142
12.432 18.508 -22.000 112 138 153
10.956 15.114 -21.710 112 141 158
10.696 14.538 -21.602 139 169 187
10.412 13.905 -21.493 154 183 203
9.340 11.443 -21.277 157 182 203
9.772 12.470 -21.269 154 177 196
10.437 14.039 -21.290 168 189 207
8.330 9.168 -20.949 187 209 230
8.649 9.933 -20.926 183 209 232
9.383 11.665 -20.953 150 181 203
13.849 22.082 -21.428 145 182 201
16.353 27.940 -21.645 138 177 196
18.466 32.895 -21.803 135 172 191
15.612 26.279 -21.390 154 180 198
12.381 18.776 -20.952 168 182 197
10.926 15.411 -20.721 195 205 215
8.018 8.652 -20.348 216 225 230
7.931 8.472 -20.277 218 225 227
7.645 7.829 -20.187 217 224 224
7.815 8.247 -20.141 216 223 223
7.937 8.557 -20.091 222 228 229
6.913 6.185 -19.936 225 231 230
6.498 5.237 -19.840 225 229 228
5.724 3.445 -19.717 216 220 218
5.081 1.961 -19.608 219 223 222
4.976 1.736 -19.546 219 224 230
6.010 4.179 -19.570 209 217 229
7.036 6.607 -19.587 184 200 214
8.349 9.711 -19.619 160 183 196
9.527 12.501 -19.634 142 165 178
12.920 20.494 -19.784 118 137 151
12.670 19.934 -19.692 106 121 137
16.796 29.662 -19.857 90 100 118
16.021 27.968 -19.466 94 103 121
15.219 26.112 -19.345 88 99 112
17.078 30.526 -19.337 78 89 96
16.194 26.887 -22.872 111 126 132
15.128 24.458 -22.621 127 144 152
12.830 19.185 -22.186 120 137 149
12.866 19.296 -22.117 112 129 146
14.055 22.070 -22.218 104 122 143
12.124 17.638 -21.859 121 143 165
11.957 17.279 -21.762 129 154 176
11.069 15.252 -21.565 149 175 197
8.730 9.865 -21.174 150 175 196
8.647 9.699 -21.100 149 174 194
8.720 9.891 -21.046 188 211 228
6.853 5.588 -20.741 212 234 248
8.062 8.412 -20.835 211 231 240
8.720 9.961 -20.854 218 231 235
8.390 9.219 -20.750 225 232 233
8.685 9.927 -20.722 211 222 225
11.049 15.442 -20.929 191 208 213
12.817 19.575 -21.056 169 188 193
13.321 20.775 -21.035 174 192 197
13.415 21.022 -20.968 184 197 203
9.312 11.507 -20.466 208 217 224
7.388 7.052 -20.207 212 219 223
7.219 6.682 -20.130 211 218 219
7.122 6.479 -20.061 221 227 227
7.528 7.446 -20.038 227 232 231
6.765 5.691 -19.909 226 230 229
6.153 4.286 -19.797 237 242 241
6.043 4.049 -19.731 210 214 212
6.762 5.750 -19.732 193 198 197
7.198 6.792 -19.706 182 191 197
8.314 9.421 -19.730 164 179 192
9.362 11.896 -19.742 137 157 170
10.376 14.293 -19.745 127 151 164
11.451 16.835 -19.747 83 106 124
13.267 21.112 -19.790 81 102 124
11.635 17.318 -19.613 103 123 142
13.954 22.782 -19.674 86 106 119
17.643 31.460 -19.797 88 102 117
17.454 31.117 -19.516 90 100 116
16.759 29.519 -19.396 86 94 107
17.174 28.929 -23.001 116 135 130
15.400 24.881 -22.639 126 146 151
13.443 20.409 -22.257 117 136 152
13.633 20.874 -22.210 116 134 154
12.409 18.084 -21.952 128 147 168
11.771 16.641 -21.786 130 151 174
12.369 18.047 -21.799 119 142 166
10.894 14.672 -21.520 136 161 183
10.014 12.668 -21.331 148 174 193
8.987 10.324 -21.127 147 173 190
7.529 6.981 -20.872 191 215 228
6.418 4.437 -20.670 213 229 235
7.052 5.923 -20.692 222 228 229
7.717 7.484 -20.714 227 233 233
7.031 5.919 -20.571 225 232 233
7.406 6.810 -20.556 231 238 238
8.397 9.125 -20.608 232 239 240
8.368 9.081 -20.542 208 220 223
13.629 21.296 -21.049 173 188 194
13.755 21.617 -20.984 184 197 204
11.003 15.264 -20.623 186 195 202
7.011 6.028 -20.154 207 214 220
6.412 4.659 -20.037 212 219 222
6.869 5.741 -20.022 225 230 231
6.785 5.568 -19.956 230 235 234
6.309 4.483 -19.855 231 235 233
6.270 4.415 -19.794 235 240 239
5.949 3.689 -19.710 228 234 237
6.809 5.712 -19.722 205 213 220
7.843 8.141 -19.743 184 195 205
9.150 11.211 -19.778 167 182 194
9.467 11.973 -19.735 142 160 178
10.267 13.865 -19.723 130 151 173
11.812 17.495 -19.756 112 133 157
12.718 19.637 -19.739 92 112 135
12.412 18.951 -19.645 104 124 142
11.473 16.785 -19.516 111 130 144
14.144 23.056 -19.588 94 111 125
16.874 29.469 -19.649 96 110 125
15.702 25.401 -22.578 121 142 142
14.433 22.519 -22.306 112 132 141
14.845 23.495 -22.287 125 144 162
13.464 20.352 -22.009 126 147 171
11.695 16.316 -21.683 133 155 182
10.142 12.772 -21.397 139 163 186
10.379 13.341 -21.361 140 163 181
9.521 11.393 -21.180 173 194 208
8.041 8.010 -20.922 193 210 220
6.955 5.531 -20.722 217 229 234
7.159 6.022 -20.689 216 223 223
7.485 6.796 -20.669 221 227 227
8.584 9.354 -20.740 213 220 221
6.624 4.854 -20.449 229 235 236
8.274 8.686 -20.578 230 237 237
6.774 5.244 -20.350 223 231 233
11.798 16.873 -20.832 184 193 195
14.131 22.291 -21.004 185 194 197
11.918 17.204 -20.699 185 194 196
7.502 7.015 -20.188 200 208 209
6.659 5.087 -20.047 220 227 228
6.417 4.548 -19.966 221 227 227
6.944 5.789 -19.956 232 236 235
6.982 5.901 -19.900 234 239 237
6.411 4.598 -19.792 234 239 238
6.390 4.572 -19.733 234 240 239
6.128 3.985 -19.654 220 227 228
7.169 6.422 -19.677 204 212 216
7.944 8.244 -19.674 184 195 204
9.833 12.657 -19.746 147 163 178
9.875 12.781 -19.681 137 158 178
13.562 21.381 -19.854 105 126 149
12.911 19.896 -19.735 97 118 141
11.165 15.859 -19.555 109 128 151
10.139 13.496 -19.425 121 140 161
12.899 19.953 -19.505 107 125 141
16.595 28.597 -19.617 100 117 129
16.612 27.307 -22.606 109 128 136
13.984 21.325 -22.138 117 136 152
12.823 18.694 -21.895 127 147 173
13.515 20.307 -21.917 139 159 191
12.628 18.303 -21.719 148 169 193
10.642 13.777 -21.378 149 170 183
9.069 10.193 -21.102 170 190 200
7.975 7.705 -20.896 200 217 227
7.463 6.554 -20.770 218 230 238
7.416 6.466 -20.704 222 231 236
7.532 6.755 -20.659 224 231 233
7.443 6.574 -20.588 212 219 220
6.676 4.831 -20.440 220 227 229
7.495 6.736 -20.474 219 228 230
6.225 3.836 -20.275 214 223 226
8.929 10.083 -20.507 205 214 216
10.028 12.640 -20.557 200 209 212
10.603 13.990 -20.548 190 198 201
7.759 7.458 -20.199 207 215 215
7.116 5.995 -20.076 217 224 222
6.684 5.021 -19.977 221 227 226
6.217 3.964 -19.877 227 232 231
5.975 3.426 -19.799 229 234 233
6.078 3.685 -19.751 232 236 235
6.222 4.039 -19.706 233 237 236
6.406 4.486 -19.664 234 239 238
5.847 3.214 -19.563 224 229 229
8.063 8.365 -19.669 189 196 199
10.112 13.137 -19.751 139 152 164
12.045 17.642 -19.813 139 160 180
15.043 24.621 -19.934 103 127 149
15.141 24.880 -19.857 97 123 144
12.121 17.901 -19.597 114 140 162
10.354 13.825 -19.423 125 151 172
14.314 23.051 -19.565 100 124 141
18.193 30.737 -22.725 124 145 161
12.277 17.264 -21.795 140 162 180
10.723 13.741 -21.506 143 164 184
12.172 17.077 -21.635 158 179 196
9.628 11.289 -21.222 174 196 209
9.592 11.230 -21.152 186 206 218
9.854 11.854 -21.120 186 203 215
9.298 10.606 -20.984 190 204 213
8.403 8.581 -20.810 210 221 227
7.871 7.383 -20.683 212 222 227
8.304 8.399 -20.673 208 217 222
7.878 7.446 -20.562 207 216 221
7.219 5.955 -20.428 212 220 225
6.942 5.341 -20.338 213 222 225
6.936 5.350 -20.279 206 215 217
7.677 7.072 -20.297 224 234 235
7.357 6.359 -20.204 226 235 235
7.246 6.127 -20.134 215 223 222
7.418 6.545 -20.091 218 225 224
6.609 4.705 -19.956 222 229 227
6.399 4.243 -19.879 224 231 229
6.309 4.057 -19.814 227 233 232
6.077 3.543 -19.738 230 235 234
6.331 4.149 -19.702 233 237 236
6.382 4.289 -19.649 234 239 238
7.550 7.004 -19.679 233 236 234
8.094 8.283 -19.658 201 206 205
9.964 12.625 -19.726 150 166 175
13.491 20.800 -19.894 106 134 152
15.638 25.794 -19.954 103 136 155
15.715 26.002 -19.875 106 141 158
12.958 19.653 -19.630 123 157 176
11.806 17.016 -19.490 128 160 180
16.782 28.566 -19.680 94 124 142
13.825 20.663 -21.839 152 171 185
14.847 23.023 -21.898 165 185 199
8.562 8.811 -20.749 193 207 215
7.008 5.282 -20.506 211 222 228
8.217 8.068 -20.585 212 222 227
8.264 8.200 -20.528 215 224 229
7.635 6.783 -20.398 220 229 232
6.517 4.246 -20.220 220 229 231
7.046 5.477 -20.217 223 232 234
6.936 5.248 -20.148 226 235 235
7.101 5.647 -20.105 223 231 230
7.181 5.853 -20.054 223 230 228
6.715 4.804 -19.952 222 229 227
6.298 3.868 -19.857 223 230 228
6.302 3.899 -19.800 226 232 231
6.657 4.735 -19.773 226 230 229
6.070 3.409 -19.668 229 234 233
7.438 6.575 -19.718 233 237 236
7.396 6.501 -19.654 233 236 234
7.457 6.662 -19.599 204 208 207
9.955 12.438 -19.711 158 177 185
13.263 20.083 -19.863 110 143 161
16.318 27.154 -19.980 108 145 163
16.055 26.578 -19.879 115 152 169
13.028 19.628 -19.619 123 160 178
12.480 18.390 -19.513 137 174 193
17.505 30.021 -19.700 84 121 138
10.479 13.048 -20.892 180 197 207
8.651 8.907 -20.618 193 207 216
8.459 8.491 -20.534 196 207 213
8.747 9.171 -20.502 211 219 224
8.037 7.575 -20.365 223 229 232
7.698 6.823 -20.269 223 229 231
7.277 5.883 -20.167 226 233 234
8.007 7.574 -20.178 215 222 221
7.860 7.260 -20.103 218 225 224
8.139 7.921 -20.067 234 240 239
8.190 8.060 -20.010 235 240 239
7.900 7.419 -19.923 235 240 239
8.213 8.159 -19.888 234 239 238
7.870 7.394 -19.799 235 240 239
8.353 8.525 -19.775 232 236 235
6.707 4.773 -19.590 226 231 229
6.972 5.402 -19.551 225 232 231
9.765 11.836 -19.683 183 196 198
13.173 19.688 -19.841 139 159 165
13.698 20.924 -19.797 133 161 173
14.549 22.908 -19.771 122 157 171
12.588 18.427 -19.578 129 165 180
13.508 20.571 -19.554 126 161 176
16.912 28.438 -19.652 88 124 139
15.541 24.411 -21.375 158 180 189
13.923 20.763 -21.116 174 193 202
15.555 24.503 -21.213 175 190 198
16.671 27.073 -21.247 183 194 201
15.855 25.248 -21.080 185 195 199
13.732 20.442 -20.788 197 208 210
11.870 16.225 -20.533 197 208 210
10.495 13.117 -20.333 201 212 214
9.304 10.426 -20.158 207 219 221
8.635 8.946 -19.971 205 212 214
8.581 8.846 -19.904 211 215 216
8.904 9.607 -19.866 211 216 217
9.694 11.438 -19.863 216 223 223
7.383 6.176 -19.627 216 224 226
7.238 5.867 -19.557 219 227 232
8.357 8.450 -19.574 206 219 224
9.459 10.996 -19.583 173 191 196
11.332 15.312 -19.634 157 177 184
12.042 16.965 -19.605 146 168 177
11.639 16.067 -19.509 150 173 181
14.546 22.764 -19.594 111 135 143
18.538 31.955 -19.718 85 109 120
19.500 33.421 -21.148 141 157 176
13.990 21.009 -20.329 170 180 198
15.215 23.827 -20.347 164 173 192
16.703 27.249 -20.378 184 191 210
10.737 13.677 -19.858 194 202 215
9.380 10.630 -19.629 200 209 215
10.821 13.945 -19.657 177 188 195
15.560 24.857 -19.715 115 134 143
19.577 34.074 -19.847 78 98 107
